<svg width="16" height="16" viewBox="0 0 16 16" fill="none" xmlns="http://www.w3.org/2000/svg">
<g id="call">
<path id="Vector" d="M11.6333 15.1666C10.8799 15.1666 10.0866 14.9866 9.26659 14.64C8.46659 14.3 7.65992 13.8333 6.87325 13.2666C6.09325 12.6933 5.33992 12.0533 4.62659 11.3533C3.91992 10.64 3.27992 9.88665 2.71325 9.11331C2.13992 8.31331 1.67992 7.51331 1.35325 6.73998C1.00659 5.91331 0.833252 5.11331 0.833252 4.35998C0.833252 3.83998 0.926585 3.34665 1.10659 2.88665C1.29325 2.41331 1.59325 1.97331 1.99992 1.59331C2.51325 1.08665 3.09992 0.833313 3.72659 0.833313C3.98659 0.833313 4.25325 0.893313 4.47992 0.99998C4.73992 1.11998 4.95992 1.29998 5.11992 1.53998L6.66659 3.71998C6.80659 3.91331 6.91325 4.09998 6.98659 4.28665C7.07325 4.48665 7.11992 4.68665 7.11992 4.87998C7.11992 5.13331 7.04659 5.37998 6.90659 5.61331C6.80659 5.79331 6.65325 5.98665 6.45992 6.17998L6.00659 6.65331C6.01325 6.67331 6.01992 6.68665 6.02659 6.69998C6.10659 6.83998 6.26659 7.07998 6.57325 7.43998C6.89992 7.81331 7.20659 8.15331 7.51325 8.46665C7.90659 8.85331 8.23325 9.15998 8.53992 9.41331C8.91992 9.73331 9.16659 9.89331 9.31325 9.96665L9.29992 9.99998L9.78659 9.51998C9.99325 9.31331 10.1933 9.15998 10.3866 9.05998C10.7533 8.83331 11.2199 8.79331 11.6866 8.98665C11.8599 9.05998 12.0466 9.15998 12.2466 9.29998L14.4599 10.8733C14.7066 11.04 14.8866 11.2533 14.9933 11.5066C15.0933 11.76 15.1399 11.9933 15.1399 12.2266C15.1399 12.5466 15.0666 12.8666 14.9266 13.1666C14.7866 13.4666 14.6133 13.7266 14.3933 13.9666C14.0133 14.3866 13.5999 14.6866 13.1199 14.88C12.6599 15.0666 12.1599 15.1666 11.6333 15.1666ZM3.72659 1.83331C3.35992 1.83331 3.01992 1.99331 2.69325 2.31331C2.38659 2.59998 2.17325 2.91331 2.03992 3.25331C1.89992 3.59998 1.83325 3.96665 1.83325 4.35998C1.83325 4.97998 1.97992 5.65331 2.27325 6.34665C2.57325 7.05331 2.99325 7.78665 3.52659 8.51998C4.05992 9.25331 4.66659 9.96665 5.33325 10.64C5.99992 11.3 6.71992 11.9133 7.45992 12.4533C8.17992 12.98 8.91992 13.4066 9.65325 13.7133C10.7933 14.2 11.8599 14.3133 12.7399 13.9466C13.0799 13.8066 13.3799 13.5933 13.6533 13.2866C13.8066 13.12 13.9266 12.94 14.0266 12.7266C14.1066 12.56 14.1466 12.3866 14.1466 12.2133C14.1466 12.1066 14.1266 12 14.0733 11.88C14.0533 11.84 14.0133 11.7666 13.8866 11.68L11.6733 10.1066C11.5399 10.0133 11.4199 9.94665 11.3066 9.89998C11.1599 9.83998 11.0999 9.77998 10.8733 9.91998C10.7399 9.98665 10.6199 10.0866 10.4866 10.22L9.97992 10.72C9.71992 10.9733 9.31992 11.0333 9.01325 10.92L8.83325 10.84C8.55992 10.6933 8.23992 10.4666 7.88659 10.1666C7.56659 9.89331 7.21992 9.57331 6.79992 9.15998C6.47325 8.82665 6.14659 8.47331 5.80659 8.07998C5.49325 7.71331 5.26659 7.39998 5.12659 7.13998L5.04659 6.93998C5.00659 6.78665 4.99325 6.69998 4.99325 6.60665C4.99325 6.36665 5.07992 6.15331 5.24659 5.98665L5.74659 5.46665C5.87992 5.33331 5.97992 5.20665 6.04659 5.09331C6.09992 5.00665 6.11992 4.93331 6.11992 4.86665C6.11992 4.81331 6.09992 4.73331 6.06659 4.65331C6.01992 4.54665 5.94659 4.42665 5.85325 4.29998L4.30659 2.11331C4.23992 2.01998 4.15992 1.95331 4.05992 1.90665C3.95325 1.85998 3.83992 1.83331 3.72659 1.83331ZM9.29992 10.0066L9.19325 10.46L9.37325 9.99331C9.33992 9.98665 9.31325 9.99331 9.29992 10.0066Z" fill="#F7F4F1"/>
</g>
</svg>
