<svg width="36" height="36" viewBox="0 0 36 36" fill="none" xmlns="http://www.w3.org/2000/svg">
<g id="Frame">
<path id="Vector" d="M26.7039 25.9378C26.7039 25.9378 26.8194 25.8553 27.0039 25.7143C29.7684 23.5768 31.5039 20.4793 31.5039 17.0308C31.5039 10.6018 25.4589 5.38477 18.0039 5.38477C10.5489 5.38477 4.50391 10.6018 4.50391 17.0308C4.50391 23.4628 10.5489 28.4998 18.0039 28.4998C18.6399 28.4998 19.6839 28.4578 21.1359 28.3738C23.0289 29.6038 25.7919 30.6133 28.2099 30.6133C28.9584 30.6133 29.3109 29.9983 28.8309 29.3713C28.1019 28.4773 27.0969 27.0448 26.7069 25.9363L26.7039 25.9378Z" fill="#BDB5AA"/>
</g>
</svg>
