<svg width="16" height="16" viewBox="0 0 16 16" fill="none" xmlns="http://www.w3.org/2000/svg">
<g id="Frame 66" clip-path="url(#clip0_50_197)">
<g id="Group 16">
<circle id="Ellipse 2" cx="8" cy="8" r="7.5" stroke="#F7F4F1"/>
<path id="Ellipse 3" d="M11.5 8C11.5 10.1483 11.0635 12.0686 10.3812 13.4332C9.68393 14.8278 8.81316 15.5 8 15.5C7.18684 15.5 6.31607 14.8278 5.61879 13.4332C4.93646 12.0686 4.5 10.1483 4.5 8C4.5 5.85165 4.93646 3.93141 5.61879 2.56675C6.31607 1.17219 7.18684 0.5 8 0.5C8.81316 0.5 9.68393 1.17219 10.3812 2.56675C11.0635 3.93141 11.5 5.85165 11.5 8Z" stroke="#F7F4F1"/>
<line id="Line 11" y1="8.5" x2="16" y2="8.5" stroke="#F7F4F1"/>
</g>
</g>
<defs>
<clipPath id="clip0_50_197">
<rect width="16" height="16" fill="white"/>
</clipPath>
</defs>
</svg>
