<svg width="92" height="11" viewBox="0 0 92 11" fill="none" xmlns="http://www.w3.org/2000/svg">
<g id="Los Angeles">
<path id="Vector" d="M88.4425 0.0419922C88.9091 0.0419922 89.2638 0.0979922 89.5065 0.209992C89.7491 0.312659 89.9638 0.429326 90.1505 0.559993C90.2625 0.625326 90.3511 0.67666 90.4165 0.713993C90.4911 0.741993 90.5611 0.755993 90.6265 0.755993C90.7198 0.755993 90.7851 0.704659 90.8225 0.601993C90.8691 0.499326 90.9065 0.345326 90.9345 0.139993H91.2565C91.2471 0.298659 91.2331 0.489993 91.2145 0.713993C91.2051 0.92866 91.1958 1.21799 91.1865 1.58199C91.1865 1.93666 91.1865 2.40799 91.1865 2.99599H90.8645C90.8365 2.54799 90.7385 2.11866 90.5705 1.70799C90.4025 1.29733 90.1551 0.961325 89.8285 0.699992C89.5111 0.438659 89.0911 0.307992 88.5685 0.307992C88.0738 0.307992 87.6631 0.457326 87.3365 0.755993C87.0191 1.05466 86.8605 1.44666 86.8605 1.93199C86.8605 2.35199 86.9678 2.70666 87.1825 2.99599C87.3971 3.27599 87.6818 3.53266 88.0365 3.76599C88.4005 3.98999 88.7925 4.23266 89.2125 4.49399C89.6978 4.79266 90.1271 5.09133 90.5005 5.38999C90.8831 5.67933 91.1818 6.00133 91.3965 6.35599C91.6205 6.71066 91.7325 7.13999 91.7325 7.64399C91.7325 8.24133 91.5971 8.73599 91.3265 9.12799C91.0558 9.51999 90.6965 9.81399 90.2485 10.01C89.8005 10.206 89.3058 10.304 88.7645 10.304C88.2698 10.304 87.8778 10.248 87.5885 10.136C87.2991 10.024 87.0518 9.90733 86.8465 9.78599C86.6411 9.65533 86.4825 9.58999 86.3705 9.58999C86.2771 9.58999 86.2071 9.64133 86.1605 9.74399C86.1231 9.84666 86.0905 10.0007 86.0625 10.206H85.7405C85.7591 10.01 85.7685 9.78133 85.7685 9.51999C85.7778 9.24933 85.7825 8.89933 85.7825 8.46999C85.7918 8.04066 85.7965 7.49933 85.7965 6.84599H86.1185C86.1558 7.40599 86.2585 7.92866 86.4265 8.41399C86.6038 8.89933 86.8698 9.29133 87.2245 9.58999C87.5885 9.87933 88.0691 10.024 88.6665 10.024C88.9745 10.024 89.2638 9.96333 89.5345 9.84199C89.8145 9.71133 90.0431 9.51066 90.2205 9.23999C90.3978 8.95999 90.4865 8.60066 90.4865 8.16199C90.4865 7.77933 90.3931 7.44799 90.2065 7.16799C90.0291 6.87866 89.7771 6.61266 89.4505 6.36999C89.1238 6.11799 88.7411 5.86133 88.3025 5.59999C87.8638 5.32933 87.4531 5.05399 87.0705 4.77399C86.6878 4.49399 86.3798 4.17199 86.1465 3.80799C85.9225 3.43466 85.8105 2.98666 85.8105 2.46399C85.8105 1.91333 85.9318 1.46066 86.1745 1.10599C86.4265 0.741993 86.7531 0.475992 87.1545 0.307992C87.5558 0.130659 87.9851 0.0419922 88.4425 0.0419922Z" fill="white"/>
<path id="Vector_2" d="M83.6213 0.195984C83.5839 0.52265 83.5559 0.839983 83.5373 1.14798C83.5279 1.45598 83.5233 1.68932 83.5233 1.84798C83.5233 2.01598 83.5279 2.17932 83.5373 2.33798C83.5466 2.48732 83.5559 2.61332 83.5653 2.71598H83.2433C83.1873 2.16532 83.1079 1.73132 83.0053 1.41398C82.9026 1.08732 82.7253 0.85865 82.4733 0.727983C82.2306 0.587983 81.8619 0.517982 81.3673 0.517982H80.2053C79.8879 0.517982 79.6453 0.545983 79.4773 0.601983C79.3186 0.64865 79.2113 0.755984 79.1553 0.923984C79.0993 1.08265 79.0713 1.33465 79.0713 1.67998V8.62398C79.0713 8.95998 79.0993 9.21198 79.1553 9.37998C79.2113 9.54798 79.3186 9.65998 79.4773 9.71598C79.6453 9.76265 79.8879 9.78598 80.2053 9.78598H81.2273C81.8153 9.78598 82.2586 9.70665 82.5573 9.54798C82.8653 9.38932 83.0846 9.13265 83.2153 8.77798C83.3553 8.41398 83.4579 7.92398 83.5233 7.30798H83.8453C83.8173 7.55998 83.8033 7.89598 83.8033 8.31598C83.8033 8.49332 83.8079 8.74998 83.8173 9.08598C83.8359 9.41265 83.8639 9.75332 83.9013 10.108C83.4253 10.0893 82.8886 10.08 82.2913 10.08C81.6939 10.0707 81.1619 10.066 80.6953 10.066C80.4899 10.066 80.2239 10.066 79.8973 10.066C79.5799 10.066 79.2346 10.0707 78.8613 10.08C78.4879 10.08 78.1099 10.0847 77.7273 10.094C77.3446 10.094 76.9806 10.0987 76.6353 10.108V9.82798C76.9526 9.80932 77.1906 9.77198 77.3493 9.71598C77.5173 9.65998 77.6293 9.54798 77.6853 9.37998C77.7413 9.21198 77.7693 8.95998 77.7693 8.62398V1.67998C77.7693 1.33465 77.7413 1.08265 77.6853 0.923984C77.6293 0.755984 77.5173 0.643983 77.3493 0.587983C77.1906 0.52265 76.9526 0.485317 76.6353 0.475984V0.195984C76.9806 0.205317 77.3446 0.21465 77.7273 0.223983C78.1099 0.223983 78.4879 0.22865 78.8613 0.237983C79.2346 0.237983 79.5799 0.237983 79.8973 0.237983C80.2239 0.237983 80.4899 0.237983 80.6953 0.237983C81.1246 0.237983 81.6099 0.237983 82.1513 0.237983C82.7019 0.22865 83.1919 0.21465 83.6213 0.195984ZM81.2133 4.98398C81.2133 4.98398 81.2133 5.03065 81.2133 5.12398C81.2133 5.21732 81.2133 5.26398 81.2133 5.26398H78.6513C78.6513 5.26398 78.6513 5.21732 78.6513 5.12398C78.6513 5.03065 78.6513 4.98398 78.6513 4.98398H81.2133ZM81.6193 3.13598C81.5819 3.66798 81.5633 4.07398 81.5633 4.35398C81.5726 4.63398 81.5773 4.89065 81.5773 5.12398C81.5773 5.35732 81.5819 5.61398 81.5913 5.89398C81.6006 6.17398 81.6239 6.57998 81.6613 7.11198H81.3393C81.3019 6.81332 81.2553 6.52398 81.1993 6.24398C81.1526 5.95465 81.0406 5.72132 80.8633 5.54398C80.6953 5.35732 80.4059 5.26398 79.9953 5.26398V4.98398C80.3033 4.98398 80.5366 4.92332 80.6953 4.80198C80.8633 4.67132 80.9846 4.50798 81.0593 4.31198C81.1339 4.11598 81.1853 3.91532 81.2133 3.70998C81.2413 3.49532 81.2693 3.30398 81.2973 3.13598H81.6193Z" fill="white"/>
<path id="Vector_3" d="M71.6948 0.195984V0.475984C71.3774 0.485317 71.1348 0.52265 70.9668 0.587983C70.8081 0.643983 70.7008 0.755984 70.6448 0.923984C70.5888 1.08265 70.5608 1.33465 70.5608 1.67998V8.62398C70.5608 8.95998 70.5888 9.21198 70.6448 9.37998C70.7008 9.54798 70.8081 9.65998 70.9668 9.71598C71.1348 9.76265 71.3774 9.78598 71.6948 9.78598H72.7168C73.1554 9.78598 73.5101 9.73932 73.7808 9.64598C74.0608 9.55265 74.2801 9.40798 74.4388 9.21198C74.6068 9.00665 74.7328 8.73598 74.8168 8.39998C74.9008 8.06398 74.9661 7.65332 75.0128 7.16798H75.3348C75.3068 7.45732 75.2928 7.83998 75.2928 8.31598C75.2928 8.49332 75.2974 8.74998 75.3068 9.08598C75.3254 9.41265 75.3534 9.75332 75.3908 10.108C74.9148 10.0893 74.3781 10.08 73.7808 10.08C73.1834 10.0707 72.6514 10.066 72.1848 10.066C71.9794 10.066 71.7134 10.066 71.3868 10.066C71.0694 10.066 70.7241 10.0707 70.3508 10.08C69.9774 10.08 69.5994 10.0847 69.2168 10.094C68.8341 10.094 68.4701 10.0987 68.1248 10.108V9.82798C68.4421 9.80932 68.6801 9.77198 68.8388 9.71598C69.0068 9.65998 69.1188 9.54798 69.1748 9.37998C69.2308 9.21198 69.2588 8.95998 69.2588 8.62398V1.67998C69.2588 1.33465 69.2308 1.08265 69.1748 0.923984C69.1188 0.755984 69.0068 0.643983 68.8388 0.587983C68.6801 0.52265 68.4421 0.485317 68.1248 0.475984V0.195984C68.3208 0.205317 68.5774 0.21465 68.8948 0.223983C69.2121 0.233316 69.5528 0.237983 69.9168 0.237983C70.2434 0.237983 70.5654 0.233316 70.8828 0.223983C71.2094 0.21465 71.4801 0.205317 71.6948 0.195984Z" fill="white"/>
<path id="Vector_4" d="M66.2995 0.195984C66.2621 0.52265 66.2341 0.839983 66.2155 1.14798C66.2061 1.45598 66.2015 1.68932 66.2015 1.84798C66.2015 2.01598 66.2061 2.17932 66.2155 2.33798C66.2248 2.48732 66.2341 2.61332 66.2435 2.71598H65.9215C65.8655 2.16532 65.7861 1.73132 65.6835 1.41398C65.5808 1.08732 65.4035 0.85865 65.1515 0.727983C64.9088 0.587983 64.5401 0.517982 64.0455 0.517982H62.8835C62.5661 0.517982 62.3235 0.545983 62.1555 0.601983C61.9968 0.64865 61.8895 0.755984 61.8335 0.923984C61.7775 1.08265 61.7495 1.33465 61.7495 1.67998V8.62398C61.7495 8.95998 61.7775 9.21198 61.8335 9.37998C61.8895 9.54798 61.9968 9.65998 62.1555 9.71598C62.3235 9.76265 62.5661 9.78598 62.8835 9.78598H63.9055C64.4935 9.78598 64.9368 9.70665 65.2355 9.54798C65.5435 9.38932 65.7628 9.13265 65.8935 8.77798C66.0335 8.41398 66.1361 7.92398 66.2015 7.30798H66.5235C66.4955 7.55998 66.4815 7.89598 66.4815 8.31598C66.4815 8.49332 66.4861 8.74998 66.4955 9.08598C66.5141 9.41265 66.5421 9.75332 66.5795 10.108C66.1035 10.0893 65.5668 10.08 64.9695 10.08C64.3721 10.0707 63.8401 10.066 63.3735 10.066C63.1681 10.066 62.9021 10.066 62.5755 10.066C62.2581 10.066 61.9128 10.0707 61.5395 10.08C61.1661 10.08 60.7881 10.0847 60.4055 10.094C60.0228 10.094 59.6588 10.0987 59.3135 10.108V9.82798C59.6308 9.80932 59.8688 9.77198 60.0275 9.71598C60.1955 9.65998 60.3075 9.54798 60.3635 9.37998C60.4195 9.21198 60.4475 8.95998 60.4475 8.62398V1.67998C60.4475 1.33465 60.4195 1.08265 60.3635 0.923984C60.3075 0.755984 60.1955 0.643983 60.0275 0.587983C59.8688 0.52265 59.6308 0.485317 59.3135 0.475984V0.195984C59.6588 0.205317 60.0228 0.21465 60.4055 0.223983C60.7881 0.223983 61.1661 0.22865 61.5395 0.237983C61.9128 0.237983 62.2581 0.237983 62.5755 0.237983C62.9021 0.237983 63.1681 0.237983 63.3735 0.237983C63.8028 0.237983 64.2881 0.237983 64.8295 0.237983C65.3801 0.22865 65.8701 0.21465 66.2995 0.195984ZM63.8915 4.98398C63.8915 4.98398 63.8915 5.03065 63.8915 5.12398C63.8915 5.21732 63.8915 5.26398 63.8915 5.26398H61.3295C61.3295 5.26398 61.3295 5.21732 61.3295 5.12398C61.3295 5.03065 61.3295 4.98398 61.3295 4.98398H63.8915ZM64.2975 3.13598C64.2601 3.66798 64.2415 4.07398 64.2415 4.35398C64.2508 4.63398 64.2555 4.89065 64.2555 5.12398C64.2555 5.35732 64.2601 5.61398 64.2695 5.89398C64.2788 6.17398 64.3021 6.57998 64.3395 7.11198H64.0175C63.9801 6.81332 63.9335 6.52398 63.8775 6.24398C63.8308 5.95465 63.7188 5.72132 63.5415 5.54398C63.3735 5.35732 63.0841 5.26398 62.6735 5.26398V4.98398C62.9815 4.98398 63.2148 4.92332 63.3735 4.80198C63.5415 4.67132 63.6628 4.50798 63.7375 4.31198C63.8121 4.11598 63.8635 3.91532 63.8915 3.70998C63.9195 3.49532 63.9475 3.30398 63.9755 3.13598H64.2975Z" fill="white"/>
<path id="Vector_5" d="M53.8657 0C54.4723 0 54.9623 0.0933336 55.3357 0.280001C55.709 0.457334 56.059 0.667334 56.3857 0.910001C56.507 1.00333 56.6003 1.05 56.6657 1.05C56.843 1.05 56.9597 0.765334 57.0157 0.196001H57.3377C57.319 0.541334 57.305 0.961334 57.2957 1.456C57.2863 1.95067 57.2817 2.604 57.2817 3.416H56.9597C56.8943 3.024 56.815 2.646 56.7217 2.282C56.6283 1.918 56.4743 1.60533 56.2597 1.344C55.989 0.998667 55.6343 0.732667 55.1957 0.546C54.757 0.35 54.3043 0.252 53.8377 0.252C53.371 0.252 52.9463 0.368667 52.5637 0.602C52.1903 0.826 51.8683 1.15267 51.5977 1.582C51.327 2.01133 51.117 2.52933 50.9677 3.136C50.8277 3.73333 50.7577 4.41 50.7577 5.166C50.7577 6.846 51.0283 8.078 51.5697 8.862C52.111 9.63667 52.951 10.024 54.0897 10.024C54.4257 10.024 54.715 9.97733 54.9577 9.884C55.2097 9.78133 55.4057 9.68333 55.5457 9.59C55.723 9.46867 55.835 9.35667 55.8817 9.254C55.9283 9.142 55.9517 8.99733 55.9517 8.82V7.476C55.9517 7.09333 55.9143 6.80867 55.8397 6.622C55.765 6.43533 55.625 6.30933 55.4197 6.244C55.2237 6.17867 54.9297 6.14133 54.5377 6.132V5.852C54.7057 5.86133 54.9017 5.87067 55.1257 5.88C55.3497 5.88 55.583 5.88467 55.8257 5.894C56.0777 5.894 56.3063 5.894 56.5117 5.894C56.8197 5.894 57.095 5.88933 57.3377 5.88C57.5897 5.87067 57.7997 5.86133 57.9677 5.852V6.132C57.7623 6.14133 57.6083 6.174 57.5057 6.23C57.403 6.286 57.333 6.398 57.2957 6.566C57.2677 6.734 57.2537 6.99067 57.2537 7.336V10.108H56.9737C56.9643 9.94933 56.927 9.77667 56.8617 9.59C56.8057 9.40333 56.717 9.31 56.5957 9.31C56.5397 9.31 56.4837 9.324 56.4277 9.352C56.3717 9.38 56.2737 9.44533 56.1337 9.548C55.8257 9.78133 55.499 9.968 55.1537 10.108C54.8083 10.2387 54.407 10.304 53.9497 10.304C52.9883 10.304 52.1623 10.108 51.4717 9.716C50.7903 9.31467 50.2677 8.74067 49.9037 7.994C49.5397 7.24733 49.3577 6.356 49.3577 5.32C49.3577 4.228 49.5537 3.28533 49.9457 2.492C50.3377 1.69867 50.8697 1.08733 51.5417 0.658001C52.223 0.219334 52.9977 0 53.8657 0Z" fill="white"/>
<path id="Vector_6" d="M47.9126 0.195984V0.475984C47.5953 0.485317 47.3526 0.531983 47.1846 0.615983C47.0259 0.699983 46.9186 0.835317 46.8626 1.02198C46.8066 1.20865 46.7786 1.47465 46.7786 1.81998V10.178C46.7226 10.178 46.6666 10.178 46.6106 10.178C46.5639 10.178 46.5126 10.178 46.4566 10.178L40.5766 1.09198V8.48398C40.5766 8.81998 40.6046 9.08598 40.6606 9.28198C40.7259 9.46865 40.8473 9.60398 41.0246 9.68798C41.2113 9.76265 41.4866 9.80932 41.8506 9.82798V10.108C41.6826 10.0893 41.4633 10.08 41.1926 10.08C40.9219 10.0707 40.6653 10.066 40.4226 10.066C40.1893 10.066 39.9513 10.0707 39.7086 10.08C39.4753 10.08 39.2793 10.0893 39.1206 10.108V9.82798C39.4379 9.80932 39.6759 9.76265 39.8346 9.68798C40.0026 9.60398 40.1146 9.46865 40.1706 9.28198C40.2266 9.08598 40.2546 8.81998 40.2546 8.48398V1.67998C40.2546 1.33465 40.2266 1.08265 40.1706 0.923984C40.1146 0.755984 40.0026 0.643983 39.8346 0.587983C39.6759 0.52265 39.4379 0.485317 39.1206 0.475984V0.195984C39.2793 0.205317 39.4753 0.21465 39.7086 0.223983C39.9513 0.233316 40.1893 0.237983 40.4226 0.237983C40.6279 0.237983 40.8239 0.233316 41.0106 0.223983C41.1973 0.21465 41.3653 0.205317 41.5146 0.195984L46.4566 7.81198V1.81998C46.4566 1.47465 46.4239 1.20865 46.3586 1.02198C46.3026 0.835317 46.1813 0.699983 45.9946 0.615983C45.8173 0.531983 45.5466 0.485317 45.1826 0.475984V0.195984C45.3506 0.205317 45.5699 0.21465 45.8406 0.223983C46.1206 0.233316 46.3773 0.237983 46.6106 0.237983C46.8533 0.237983 47.0913 0.233316 47.3246 0.223983C47.5673 0.21465 47.7633 0.205317 47.9126 0.195984Z" fill="white"/>
<path id="Vector_7" d="M34.2299 0.125977L37.6459 8.93198C37.7859 9.28664 37.9445 9.52464 38.1219 9.64598C38.2992 9.75798 38.4625 9.81864 38.6119 9.82798V10.108C38.4252 10.0893 38.1965 10.08 37.9259 10.08C37.6552 10.0706 37.3845 10.066 37.1139 10.066C36.7499 10.066 36.4092 10.0706 36.0919 10.08C35.7745 10.08 35.5179 10.0893 35.3219 10.108V9.82798C35.7979 9.80931 36.1012 9.72998 36.2319 9.58998C36.3625 9.44064 36.3345 9.12798 36.1479 8.65198L33.5439 1.69398L33.7679 1.51198L31.3319 7.83998C31.1825 8.21331 31.0939 8.53064 31.0659 8.79198C31.0379 9.04398 31.0612 9.24464 31.1359 9.39398C31.2199 9.54331 31.3552 9.65064 31.5419 9.71598C31.7379 9.78131 31.9805 9.81864 32.2699 9.82798V10.108C32.0085 10.0893 31.7332 10.08 31.4439 10.08C31.1639 10.0706 30.9025 10.066 30.6599 10.066C30.4265 10.066 30.2259 10.0706 30.0579 10.08C29.8992 10.08 29.7499 10.0893 29.6099 10.108V9.82798C29.7965 9.78131 29.9879 9.67398 30.1839 9.50598C30.3799 9.32864 30.5572 9.02998 30.7159 8.60998L34.0059 0.125977C34.0432 0.125977 34.0805 0.125977 34.1179 0.125977C34.1552 0.125977 34.1925 0.125977 34.2299 0.125977ZM35.9379 6.07598V6.35598H31.7659L31.9059 6.07598H35.9379Z" fill="white"/>
<path id="Vector_8" d="M22.1634 0.0419922C22.6301 0.0419922 22.9848 0.0979922 23.2274 0.209992C23.4701 0.312659 23.6848 0.429326 23.8714 0.559993C23.9834 0.625326 24.0721 0.67666 24.1374 0.713993C24.2121 0.741993 24.2821 0.755993 24.3474 0.755993C24.4408 0.755993 24.5061 0.704659 24.5434 0.601993C24.5901 0.499326 24.6274 0.345326 24.6554 0.139993H24.9774C24.9681 0.298659 24.9541 0.489993 24.9354 0.713993C24.9261 0.92866 24.9168 1.21799 24.9074 1.58199C24.9074 1.93666 24.9074 2.40799 24.9074 2.99599H24.5854C24.5574 2.54799 24.4594 2.11866 24.2914 1.70799C24.1234 1.29733 23.8761 0.961325 23.5494 0.699992C23.2321 0.438659 22.8121 0.307992 22.2894 0.307992C21.7948 0.307992 21.3841 0.457326 21.0574 0.755993C20.7401 1.05466 20.5814 1.44666 20.5814 1.93199C20.5814 2.35199 20.6888 2.70666 20.9034 2.99599C21.1181 3.27599 21.4028 3.53266 21.7574 3.76599C22.1214 3.98999 22.5134 4.23266 22.9334 4.49399C23.4188 4.79266 23.8481 5.09133 24.2214 5.38999C24.6041 5.67933 24.9028 6.00133 25.1174 6.35599C25.3414 6.71066 25.4534 7.13999 25.4534 7.64399C25.4534 8.24133 25.3181 8.73599 25.0474 9.12799C24.7768 9.51999 24.4174 9.81399 23.9694 10.01C23.5214 10.206 23.0268 10.304 22.4854 10.304C21.9908 10.304 21.5988 10.248 21.3094 10.136C21.0201 10.024 20.7728 9.90733 20.5674 9.78599C20.3621 9.65533 20.2034 9.58999 20.0914 9.58999C19.9981 9.58999 19.9281 9.64133 19.8814 9.74399C19.8441 9.84666 19.8114 10.0007 19.7834 10.206H19.4614C19.4801 10.01 19.4894 9.78133 19.4894 9.51999C19.4988 9.24933 19.5034 8.89933 19.5034 8.46999C19.5128 8.04066 19.5174 7.49933 19.5174 6.84599H19.8394C19.8768 7.40599 19.9794 7.92866 20.1474 8.41399C20.3248 8.89933 20.5908 9.29133 20.9454 9.58999C21.3094 9.87933 21.7901 10.024 22.3874 10.024C22.6954 10.024 22.9848 9.96333 23.2554 9.84199C23.5354 9.71133 23.7641 9.51066 23.9414 9.23999C24.1188 8.95999 24.2074 8.60066 24.2074 8.16199C24.2074 7.77933 24.1141 7.44799 23.9274 7.16799C23.7501 6.87866 23.4981 6.61266 23.1714 6.36999C22.8448 6.11799 22.4621 5.86133 22.0234 5.59999C21.5848 5.32933 21.1741 5.05399 20.7914 4.77399C20.4088 4.49399 20.1008 4.17199 19.8674 3.80799C19.6434 3.43466 19.5314 2.98666 19.5314 2.46399C19.5314 1.91333 19.6528 1.46066 19.8954 1.10599C20.1474 0.741993 20.4741 0.475992 20.8754 0.307992C21.2768 0.130659 21.7061 0.0419922 22.1634 0.0419922Z" fill="white"/>
<path id="Vector_9" d="M13.1166 0C14.0032 0 14.7779 0.200667 15.4406 0.602C16.1126 1.00333 16.6306 1.582 16.9946 2.338C17.3679 3.08467 17.5546 3.99467 17.5546 5.068C17.5546 6.11333 17.3632 7.028 16.9806 7.812C16.6072 8.596 16.0846 9.20733 15.4126 9.646C14.7406 10.0847 13.9706 10.304 13.1026 10.304C12.2159 10.304 11.4366 10.1033 10.7646 9.702C10.1019 9.30067 9.58388 8.722 9.21055 7.966C8.84655 7.21 8.66455 6.3 8.66455 5.236C8.66455 4.19067 8.85588 3.276 9.23855 2.492C9.62122 1.708 10.1439 1.09667 10.8066 0.658001C11.4786 0.219334 12.2486 0 13.1166 0ZM13.0606 0.252C12.4539 0.252 11.9266 0.462 11.4786 0.882C11.0306 1.302 10.6806 1.88067 10.4286 2.618C10.1859 3.35533 10.0646 4.20933 10.0646 5.18C10.0646 6.16933 10.1999 7.03267 10.4706 7.77C10.7506 8.498 11.1239 9.06267 11.5906 9.464C12.0666 9.856 12.5892 10.052 13.1586 10.052C13.7652 10.052 14.2926 9.842 14.7406 9.422C15.1886 9.002 15.5339 8.42333 15.7766 7.686C16.0286 6.93933 16.1546 6.08533 16.1546 5.124C16.1546 4.12533 16.0146 3.262 15.7346 2.534C15.4639 1.806 15.0952 1.246 14.6286 0.854001C14.1619 0.452667 13.6392 0.252 13.0606 0.252Z" fill="white"/>
<path id="Vector_10" d="M3.57 0.195984V0.475984C3.25267 0.485317 3.01 0.52265 2.842 0.587983C2.68333 0.643983 2.576 0.755984 2.52 0.923984C2.464 1.08265 2.436 1.33465 2.436 1.67998V8.62398C2.436 8.95998 2.464 9.21198 2.52 9.37998C2.576 9.54798 2.68333 9.65998 2.842 9.71598C3.01 9.76265 3.25267 9.78598 3.57 9.78598H4.592C5.03067 9.78598 5.38533 9.73932 5.656 9.64598C5.936 9.55265 6.15533 9.40798 6.314 9.21198C6.482 9.00665 6.608 8.73598 6.692 8.39998C6.776 8.06398 6.84133 7.65332 6.888 7.16798H7.21C7.182 7.45732 7.168 7.83998 7.168 8.31598C7.168 8.49332 7.17267 8.74998 7.182 9.08598C7.20067 9.41265 7.22867 9.75332 7.266 10.108C6.79 10.0893 6.25333 10.08 5.656 10.08C5.05867 10.0707 4.52667 10.066 4.06 10.066C3.85467 10.066 3.58867 10.066 3.262 10.066C2.94467 10.066 2.59933 10.0707 2.226 10.08C1.85267 10.08 1.47467 10.0847 1.092 10.094C0.709333 10.094 0.345333 10.0987 0 10.108V9.82798C0.317333 9.80932 0.555333 9.77198 0.714 9.71598C0.882 9.65998 0.994 9.54798 1.05 9.37998C1.106 9.21198 1.134 8.95998 1.134 8.62398V1.67998C1.134 1.33465 1.106 1.08265 1.05 0.923984C0.994 0.755984 0.882 0.643983 0.714 0.587983C0.555333 0.52265 0.317333 0.485317 0 0.475984V0.195984C0.196 0.205317 0.452667 0.21465 0.77 0.223983C1.08733 0.233316 1.428 0.237983 1.792 0.237983C2.11867 0.237983 2.44067 0.233316 2.758 0.223983C3.08467 0.21465 3.35533 0.205317 3.57 0.195984Z" fill="white"/>
</g>
</svg>
