<svg width="110" height="14" viewBox="0 0 110 14" fill="none" xmlns="http://www.w3.org/2000/svg">
<path opacity="0.87" d="M3.192 5.592V8.44C3.192 10.792 3.256 11.816 3.544 12.104C3.8 12.36 4.216 12.472 5.464 12.472C6.312 12.472 7.016 12.456 7.4 11.992C7.608 11.736 7.768 11.336 7.816 11.032C7.832 10.904 7.864 10.824 7.96 10.824C8.04 10.824 8.056 10.888 8.056 11.064C8.056 11.24 7.944 12.2 7.816 12.664C7.704 13.032 7.656 13.096 6.808 13.096C5.656 13.096 4.824 13.064 4.152 13.048C3.48 13.016 2.984 13 2.52 13C2.456 13 2.184 13.016 1.864 13.016C1.544 13.032 1.192 13.048 0.952 13.048C0.776 13.048 0.696 13.016 0.696 12.92C0.696 12.872 0.728 12.824 0.824 12.824C0.968 12.824 1.16 12.792 1.304 12.76C1.624 12.696 1.704 12.344 1.768 11.88C1.848 11.208 1.848 9.944 1.848 8.408V5.592C1.848 3.096 1.848 2.648 1.816 2.136C1.784 1.592 1.656 1.336 1.128 1.224C1 1.192 0.728 1.176 0.584 1.176C0.52 1.176 0.456 1.144 0.456 1.08C0.456 0.983999 0.536 0.952 0.712 0.952C1.432 0.952 2.44 0.999999 2.52 0.999999C2.6 0.999999 3.768 0.952 4.248 0.952C4.424 0.952 4.504 0.983999 4.504 1.08C4.504 1.144 4.44 1.176 4.376 1.176C4.264 1.176 4.04 1.192 3.848 1.224C3.384 1.304 3.256 1.576 3.224 2.136C3.192 2.648 3.192 3.096 3.192 5.592ZM9.42688 7.88C9.42688 5.688 11.1229 2.568 15.0109 2.568C18.1789 2.568 20.5789 4.504 20.5789 7.672C20.5789 10.712 18.3229 13.224 14.9309 13.224C11.0749 13.224 9.42688 10.328 9.42688 7.88ZM10.8829 7.512C10.8829 10.68 12.7869 12.664 15.3309 12.664C16.5949 12.664 19.1389 11.992 19.1389 8.056C19.1389 4.792 17.1549 3.08 14.9309 3.08C12.5789 3.08 10.8829 4.552 10.8829 7.512ZM25.3128 13.224C24.6568 13.224 23.8408 13.128 23.2648 12.856C23.0728 12.76 23.0568 12.712 23.0568 12.344C23.0568 11.672 23.1208 11.128 23.1368 10.904C23.1368 10.76 23.1688 10.68 23.2488 10.68C23.3288 10.68 23.3768 10.728 23.3768 10.84C23.3768 10.952 23.3768 11.144 23.4248 11.336C23.6488 12.328 24.7048 12.68 25.6488 12.68C27.0408 12.68 27.7608 11.896 27.7608 10.872C27.7608 9.896 27.2328 9.432 25.9848 8.504L25.3448 8.024C23.8248 6.888 23.3288 6.056 23.3288 5.112C23.3288 3.512 24.5928 2.552 26.4488 2.552C27.0088 2.552 27.5688 2.632 27.9048 2.712C28.1768 2.776 28.2888 2.776 28.4008 2.776C28.5128 2.776 28.5448 2.792 28.5448 2.872C28.5448 2.936 28.4808 3.384 28.4808 4.312C28.4808 4.52 28.4648 4.616 28.3688 4.616C28.2728 4.616 28.2568 4.552 28.2408 4.44C28.2248 4.28 28.1128 3.912 28.0328 3.768C27.9368 3.608 27.4728 3.096 26.2088 3.096C25.1848 3.096 24.3368 3.608 24.3368 4.568C24.3368 5.432 24.7688 5.928 26.1608 6.872L26.5608 7.144C28.2728 8.312 28.8648 9.256 28.8648 10.424C28.8648 11.224 28.5608 12.088 27.5528 12.744C26.9608 13.128 26.0807 13.224 25.3128 13.224ZM38.0825 11.288L41.7145 1.352C41.9065 0.823999 41.9705 0.728 42.0665 0.728C42.1625 0.728 42.2265 0.808 42.4185 1.304C42.6585 1.912 45.1705 8.52 46.1465 10.952C46.7225 12.376 47.1865 12.632 47.5225 12.728C47.7625 12.808 48.0025 12.824 48.1625 12.824C48.2585 12.824 48.3225 12.84 48.3225 12.92C48.3225 13.016 48.1785 13.048 48.0025 13.048C47.7625 13.048 46.5945 13.048 45.4905 13.016C45.1865 13 45.0105 13 45.0105 12.904C45.0105 12.84 45.0585 12.808 45.1225 12.792C45.2185 12.76 45.3145 12.616 45.2185 12.36L43.7305 8.424C43.6985 8.36 43.6665 8.328 43.5865 8.328H40.1465C40.0665 8.328 40.0185 8.376 39.9865 8.456L39.0265 11.288C38.8825 11.688 38.8025 12.072 38.8025 12.36C38.8025 12.68 39.1385 12.824 39.4105 12.824H39.5705C39.6825 12.824 39.7305 12.856 39.7305 12.92C39.7305 13.016 39.6345 13.048 39.4905 13.048C39.1065 13.048 38.4185 13 38.2425 13C38.0665 13 37.1865 13.048 36.4345 13.048C36.2265 13.048 36.1305 13.016 36.1305 12.92C36.1305 12.856 36.1945 12.824 36.2745 12.824C36.3865 12.824 36.6105 12.808 36.7385 12.792C37.4745 12.696 37.7945 12.088 38.0825 11.288ZM40.3225 7.752H43.3785C43.4585 7.752 43.4585 7.704 43.4425 7.64L41.9225 3.32C41.8425 3.08 41.7625 3.08 41.6825 3.32L40.2745 7.64C40.2425 7.72 40.2745 7.752 40.3225 7.752ZM51.1776 4.776L51.3376 11.192C51.3696 12.312 51.4976 12.648 51.8816 12.744C52.1376 12.808 52.4576 12.824 52.5856 12.824C52.6496 12.824 52.6976 12.872 52.6976 12.936C52.6976 13.016 52.6016 13.048 52.4416 13.048C51.6416 13.048 51.0816 13 50.9536 13C50.8256 13 50.2336 13.048 49.5936 13.048C49.4496 13.048 49.3696 13.032 49.3696 12.936C49.3696 12.872 49.4176 12.824 49.4816 12.824C49.5936 12.824 49.8496 12.808 50.0576 12.744C50.4096 12.648 50.4576 12.28 50.4576 11.048V3.256C50.4576 2.712 50.5376 2.568 50.6496 2.568C50.8096 2.568 51.0496 2.84 51.1936 2.984C51.4176 3.208 53.4656 5.384 55.6416 7.624C57.0336 9.064 58.5376 10.68 58.9696 11.128L58.8256 4.312C58.8096 3.432 58.7296 3.128 58.2976 3.048C58.0416 3 57.7216 2.984 57.6096 2.984C57.5136 2.984 57.4976 2.904 57.4976 2.856C57.4976 2.776 57.6096 2.76 57.7696 2.76C58.4096 2.76 59.0816 2.792 59.2416 2.792C59.4016 2.792 59.8656 2.76 60.4416 2.76C60.5856 2.76 60.6976 2.776 60.6976 2.856C60.6976 2.904 60.6336 2.984 60.5376 2.984C60.4736 2.984 60.3616 2.984 60.2016 3.016C59.7376 3.112 59.7056 3.384 59.7056 4.2L59.6736 12.168C59.6736 13.064 59.6576 13.144 59.5616 13.144C59.4176 13.144 59.2736 13.032 58.4896 12.312C58.3456 12.184 56.3136 10.184 54.8256 8.632C53.1936 6.92 51.6096 5.256 51.1776 4.776ZM70.979 11.928V9.576C70.979 8.472 70.947 8.312 70.371 8.2C70.259 8.184 70.019 8.168 69.891 8.168C69.843 8.168 69.779 8.104 69.779 8.056C69.779 7.96 69.843 7.944 70.003 7.944C70.643 7.944 71.587 7.976 71.667 7.976C71.731 7.976 72.611 7.944 73.043 7.944C73.203 7.944 73.267 7.96 73.267 8.056C73.267 8.104 73.203 8.168 73.155 8.168C73.059 8.168 72.963 8.168 72.803 8.2C72.419 8.264 72.307 8.472 72.275 8.952C72.259 9.384 72.259 9.784 72.259 10.36V11.88C72.259 12.504 72.243 12.52 72.067 12.616C71.171 13.08 69.891 13.224 69.075 13.224C68.003 13.224 66.003 13.096 64.435 11.768C63.571 11.048 62.755 9.592 62.755 7.896C62.755 5.72 63.859 4.184 65.107 3.432C66.371 2.664 67.779 2.568 68.851 2.568C69.747 2.568 70.739 2.728 71.011 2.792C71.299 2.856 71.795 2.936 72.147 2.936C72.291 2.936 72.323 3 72.323 3.064C72.323 3.256 72.243 3.624 72.243 4.984C72.243 5.208 72.179 5.272 72.083 5.272C72.003 5.272 71.987 5.192 71.987 5.064C71.971 4.888 71.891 4.488 71.667 4.168C71.315 3.656 70.243 3.112 68.419 3.112C67.571 3.112 66.547 3.176 65.475 3.992C64.659 4.616 64.083 5.832 64.083 7.416C64.083 9.336 65.075 10.712 65.571 11.176C66.691 12.216 67.875 12.6 69.171 12.6C69.667 12.6 70.323 12.552 70.691 12.344C70.867 12.248 70.979 12.184 70.979 11.928ZM76.9956 9.096V6.696C76.9956 4.584 76.9956 4.2 76.9636 3.768C76.9316 3.304 76.8516 3.08 76.3876 3.016C76.2756 3 76.0356 2.984 75.9076 2.984C75.8596 2.984 75.7956 2.92 75.7956 2.872C75.7956 2.792 75.8596 2.76 76.0196 2.76C76.6596 2.76 77.5716 2.792 77.6516 2.792C77.7476 2.792 80.6916 2.808 81.0116 2.792C81.2836 2.776 81.5396 2.728 81.6516 2.712C81.7156 2.696 81.7796 2.648 81.8436 2.648C81.8916 2.648 81.9076 2.712 81.9076 2.776C81.9076 2.872 81.8276 3.032 81.7956 3.416C81.7796 3.544 81.7476 4.152 81.7156 4.312C81.6996 4.376 81.6516 4.456 81.5876 4.456C81.5076 4.456 81.4756 4.392 81.4756 4.28C81.4756 4.184 81.4596 3.96 81.3956 3.8C81.2996 3.576 81.1556 3.48 80.3876 3.384C80.1476 3.352 78.5156 3.336 78.3556 3.336C78.2916 3.336 78.2756 3.384 78.2756 3.48V7.176C78.2756 7.272 78.2756 7.32 78.3556 7.32C78.5316 7.32 80.3876 7.32 80.7076 7.288C81.0436 7.256 81.2516 7.24 81.3956 7.096C81.4916 7 81.5556 6.92 81.6036 6.92C81.6516 6.92 81.6836 6.952 81.6836 7.032C81.6836 7.112 81.6036 7.336 81.5716 7.784C81.5396 8.056 81.5076 8.568 81.5076 8.664C81.5076 8.776 81.4756 8.92 81.3796 8.92C81.3156 8.92 81.2836 8.872 81.2836 8.792C81.2836 8.664 81.2836 8.52 81.2196 8.344C81.1716 8.152 81.0436 7.992 80.4996 7.928C80.1156 7.88 78.6116 7.864 78.3716 7.864C78.2916 7.864 78.2756 7.912 78.2756 7.96V9.096C78.2756 9.56 78.2596 11.144 78.2756 11.416C78.3076 12.328 78.5636 12.504 79.9556 12.504C80.3236 12.504 80.9956 12.504 81.3636 12.36C81.7316 12.2 81.9236 11.96 82.0036 11.416C82.0356 11.256 82.0676 11.208 82.1476 11.208C82.2276 11.208 82.2436 11.32 82.2436 11.416C82.2436 11.512 82.1316 12.44 82.0516 12.728C81.9556 13.08 81.8116 13.08 81.2676 13.08C80.2116 13.08 79.3956 13.048 78.8196 13.032C78.2276 13 77.8596 13 77.6516 13C77.6196 13 77.3476 13 77.0436 13.016C76.7716 13.032 76.4516 13.048 76.2276 13.048C76.0836 13.048 76.0036 13.016 76.0036 12.936C76.0036 12.888 76.0356 12.824 76.1156 12.824C76.2436 12.824 76.4196 12.776 76.5476 12.76C76.8196 12.712 76.8516 12.44 76.9156 12.04C76.9956 11.48 76.9956 10.408 76.9956 9.096ZM87.5881 6.696V9.128C87.5881 11.128 87.6201 11.944 87.8761 12.184C88.1001 12.408 88.6441 12.504 89.7481 12.504C90.4841 12.504 91.1081 12.488 91.4441 12.088C91.6201 11.88 91.7321 11.592 91.7801 11.32C91.7961 11.224 91.8441 11.144 91.9241 11.144C91.9881 11.144 92.0201 11.208 92.0201 11.352C92.0201 11.496 91.9241 12.312 91.8121 12.712C91.7161 13.032 91.6681 13.08 90.9161 13.08C89.9081 13.08 89.1241 13.064 88.4681 13.032C87.8281 13.016 87.3481 13 86.9321 13C86.8681 13 86.6281 13 86.3561 13.016C86.0681 13.032 85.7641 13.048 85.5401 13.048C85.3961 13.048 85.3161 13.016 85.3161 12.936C85.3161 12.888 85.3481 12.824 85.4281 12.824C85.5561 12.824 85.7321 12.792 85.8601 12.76C86.1321 12.696 86.1641 12.44 86.2281 12.04C86.3081 11.48 86.3081 10.408 86.3081 9.096V6.696C86.3081 4.584 86.3081 4.2 86.2761 3.768C86.2441 3.304 86.1641 3.08 85.7001 3.016C85.5881 3 85.3481 2.984 85.2201 2.984C85.1721 2.984 85.1081 2.92 85.1081 2.872C85.1081 2.792 85.1721 2.76 85.3321 2.76C85.9721 2.76 86.8521 2.792 86.9321 2.792C86.9961 2.792 88.0521 2.76 88.4841 2.76C88.6281 2.76 88.7081 2.792 88.7081 2.872C88.7081 2.92 88.6441 2.968 88.5961 2.968C88.5001 2.968 88.2921 2.984 88.1321 3C87.7161 3.08 87.6361 3.288 87.6041 3.768C87.5881 4.2 87.5881 4.584 87.5881 6.696ZM95.3706 9.096V6.696C95.3706 4.584 95.3706 4.2 95.3386 3.768C95.3066 3.304 95.2266 3.08 94.7626 3.016C94.6506 3 94.4106 2.984 94.2826 2.984C94.2346 2.984 94.1706 2.92 94.1706 2.872C94.1706 2.792 94.2346 2.76 94.3946 2.76C95.0346 2.76 95.9466 2.792 96.0266 2.792C96.1226 2.792 99.0666 2.808 99.3866 2.792C99.6586 2.776 99.9146 2.728 100.027 2.712C100.091 2.696 100.155 2.648 100.219 2.648C100.267 2.648 100.283 2.712 100.283 2.776C100.283 2.872 100.203 3.032 100.171 3.416C100.155 3.544 100.123 4.152 100.091 4.312C100.075 4.376 100.027 4.456 99.9626 4.456C99.8826 4.456 99.8506 4.392 99.8506 4.28C99.8506 4.184 99.8346 3.96 99.7706 3.8C99.6746 3.576 99.5306 3.48 98.7626 3.384C98.5226 3.352 96.8906 3.336 96.7306 3.336C96.6666 3.336 96.6506 3.384 96.6506 3.48V7.176C96.6506 7.272 96.6506 7.32 96.7306 7.32C96.9066 7.32 98.7626 7.32 99.0826 7.288C99.4186 7.256 99.6266 7.24 99.7706 7.096C99.8666 7 99.9306 6.92 99.9786 6.92C100.027 6.92 100.059 6.952 100.059 7.032C100.059 7.112 99.9786 7.336 99.9466 7.784C99.9146 8.056 99.8826 8.568 99.8826 8.664C99.8826 8.776 99.8506 8.92 99.7546 8.92C99.6906 8.92 99.6586 8.872 99.6586 8.792C99.6586 8.664 99.6586 8.52 99.5946 8.344C99.5466 8.152 99.4186 7.992 98.8746 7.928C98.4906 7.88 96.9866 7.864 96.7466 7.864C96.6666 7.864 96.6506 7.912 96.6506 7.96V9.096C96.6506 9.56 96.6346 11.144 96.6506 11.416C96.6826 12.328 96.9386 12.504 98.3306 12.504C98.6986 12.504 99.3706 12.504 99.7386 12.36C100.107 12.2 100.299 11.96 100.379 11.416C100.411 11.256 100.443 11.208 100.523 11.208C100.603 11.208 100.619 11.32 100.619 11.416C100.619 11.512 100.507 12.44 100.427 12.728C100.331 13.08 100.187 13.08 99.6426 13.08C98.5866 13.08 97.7706 13.048 97.1946 13.032C96.6026 13 96.2346 13 96.0266 13C95.9946 13 95.7226 13 95.4186 13.016C95.1466 13.032 94.8266 13.048 94.6026 13.048C94.4586 13.048 94.3786 13.016 94.3786 12.936C94.3786 12.888 94.4106 12.824 94.4906 12.824C94.6186 12.824 94.7946 12.776 94.9226 12.76C95.1946 12.712 95.2266 12.44 95.2906 12.04C95.3706 11.48 95.3706 10.408 95.3706 9.096ZM105.547 13.224C104.891 13.224 104.075 13.128 103.499 12.856C103.307 12.76 103.291 12.712 103.291 12.344C103.291 11.672 103.355 11.128 103.371 10.904C103.371 10.76 103.403 10.68 103.483 10.68C103.563 10.68 103.611 10.728 103.611 10.84C103.611 10.952 103.611 11.144 103.659 11.336C103.883 12.328 104.939 12.68 105.883 12.68C107.275 12.68 107.995 11.896 107.995 10.872C107.995 9.896 107.467 9.432 106.219 8.504L105.579 8.024C104.059 6.888 103.563 6.056 103.563 5.112C103.563 3.512 104.827 2.552 106.683 2.552C107.243 2.552 107.803 2.632 108.139 2.712C108.411 2.776 108.523 2.776 108.635 2.776C108.747 2.776 108.779 2.792 108.779 2.872C108.779 2.936 108.715 3.384 108.715 4.312C108.715 4.52 108.699 4.616 108.603 4.616C108.507 4.616 108.491 4.552 108.475 4.44C108.459 4.28 108.347 3.912 108.267 3.768C108.171 3.608 107.707 3.096 106.443 3.096C105.419 3.096 104.571 3.608 104.571 4.568C104.571 5.432 105.003 5.928 106.395 6.872L106.795 7.144C108.507 8.312 109.099 9.256 109.099 10.424C109.099 11.224 108.795 12.088 107.787 12.744C107.195 13.128 106.315 13.224 105.547 13.224Z" fill="white"/>
</svg>
