<svg width="150" height="14" viewBox="0 0 150 14" fill="none" xmlns="http://www.w3.org/2000/svg">
<path opacity="0.87" d="M0.024 6.984C0.024 4.392 1.912 0.728 6.328 0.728C9.928 0.728 12.616 3 12.616 6.728C12.616 10.312 10.088 13.272 6.232 13.272C1.848 13.272 0.024 9.864 0.024 6.984ZM1.544 6.536C1.544 10.264 3.784 12.664 6.664 12.664C8.104 12.664 11.08 11.832 11.08 7.176C11.08 3.336 8.744 1.272 6.216 1.272C3.544 1.272 1.544 3.032 1.544 6.536ZM16.0894 9.096V6.696C16.0894 4.584 16.0894 4.2 16.0574 3.768C16.0254 3.304 15.9454 3.08 15.4814 3.016C15.3694 3 15.1294 2.984 15.0014 2.984C14.9534 2.984 14.8894 2.92 14.8894 2.872C14.8894 2.792 14.9534 2.76 15.1134 2.76C15.7534 2.76 16.6974 2.792 16.7774 2.792C16.9214 2.792 18.1054 2.76 18.5374 2.76C19.4334 2.76 20.4254 2.84 21.1614 3.352C21.5134 3.608 22.1374 4.264 22.1374 5.208C22.1374 6.216 21.7214 7.192 20.4094 8.312C21.5614 9.752 22.5374 10.984 23.3534 11.832C24.1054 12.6 24.5694 12.728 24.9214 12.776C25.1934 12.824 25.3374 12.824 25.4174 12.824C25.4974 12.824 25.5454 12.888 25.5454 12.936C25.5454 13.016 25.4654 13.048 25.2094 13.048H24.3294C23.5294 13.048 23.1774 12.968 22.8254 12.776C22.2174 12.456 21.7054 11.8 20.9054 10.776C20.3134 10.04 19.6894 9.16 19.3854 8.792C19.3214 8.728 19.2894 8.712 19.1934 8.712L17.4014 8.68C17.3374 8.68 17.3054 8.712 17.3054 8.792V9.112C17.3054 10.424 17.3054 11.48 17.3694 12.04C17.4174 12.44 17.4974 12.696 17.9294 12.76C18.1214 12.792 18.4254 12.824 18.5534 12.824C18.6494 12.824 18.6654 12.888 18.6654 12.936C18.6654 13 18.6014 13.048 18.4414 13.048C17.6734 13.048 16.7774 13 16.7134 13C16.6974 13 15.7534 13.048 15.3214 13.048C15.1774 13.048 15.0974 13.016 15.0974 12.936C15.0974 12.888 15.1294 12.824 15.2094 12.824C15.3374 12.824 15.5134 12.792 15.6414 12.76C15.9134 12.696 15.9454 12.44 16.0094 12.04C16.0894 11.48 16.0894 10.408 16.0894 9.096ZM17.3054 3.48V7.848C17.3054 7.928 17.3374 7.976 17.4014 8.024C17.6094 8.136 18.3294 8.232 18.9534 8.232C19.2894 8.232 19.6734 8.216 20.0094 7.992C20.4894 7.672 20.8574 6.952 20.8574 5.912C20.8574 4.216 19.9294 3.24 18.4254 3.24C18.0094 3.24 17.5614 3.288 17.4174 3.32C17.3534 3.352 17.3054 3.4 17.3054 3.48ZM26.2495 11.544L29.5615 3.032C29.7375 2.584 29.8015 2.504 29.8975 2.504C30.0415 2.504 30.0895 2.696 30.2335 3C30.4895 3.576 32.7455 9.192 33.6095 11.256C34.1215 12.472 34.5055 12.648 34.8095 12.744C35.0175 12.808 35.2255 12.824 35.3695 12.824C35.4495 12.824 35.5455 12.856 35.5455 12.936C35.5455 13.016 35.3855 13.048 35.2255 13.048C35.0175 13.048 33.9775 13.048 33.0015 13.016C32.7295 13 32.5055 13 32.5055 12.92C32.5055 12.856 32.5375 12.856 32.6015 12.824C32.6815 12.792 32.8255 12.68 32.7295 12.456L31.4655 9.336C31.4335 9.272 31.4175 9.256 31.3375 9.256H28.0895C28.0255 9.256 27.9775 9.288 27.9455 9.368L27.1455 11.544C27.0175 11.88 26.9375 12.216 26.9375 12.456C26.9375 12.728 27.1775 12.824 27.4175 12.824H27.5455C27.6575 12.824 27.6895 12.872 27.6895 12.936C27.6895 13.016 27.6095 13.048 27.4815 13.048C27.1455 13.048 26.3775 13 26.2175 13C26.0735 13 25.3695 13.048 24.7935 13.048C24.6175 13.048 24.5215 13.016 24.5215 12.936C24.5215 12.872 24.5855 12.824 24.6495 12.824C24.7455 12.824 24.9535 12.808 25.0655 12.792C25.7055 12.712 25.9775 12.232 26.2495 11.544ZM28.2815 8.696H31.1295C31.1935 8.696 31.1935 8.664 31.1775 8.6L29.7855 4.872C29.7055 4.664 29.6255 4.664 29.5455 4.872L28.2335 8.6C28.2175 8.664 28.2335 8.696 28.2815 8.696ZM38.3339 4.776L38.4939 11.192C38.5259 12.312 38.6539 12.648 39.0379 12.744C39.2939 12.808 39.6139 12.824 39.7419 12.824C39.8059 12.824 39.8539 12.872 39.8539 12.936C39.8539 13.016 39.7579 13.048 39.5979 13.048C38.7979 13.048 38.2379 13 38.1099 13C37.9819 13 37.3899 13.048 36.7499 13.048C36.6059 13.048 36.5259 13.032 36.5259 12.936C36.5259 12.872 36.5739 12.824 36.6379 12.824C36.7499 12.824 37.0059 12.808 37.2139 12.744C37.5659 12.648 37.6139 12.28 37.6139 11.048V3.256C37.6139 2.712 37.6939 2.568 37.8059 2.568C37.9659 2.568 38.2059 2.84 38.3499 2.984C38.5739 3.208 40.6219 5.384 42.7979 7.624C44.1899 9.064 45.6939 10.68 46.1259 11.128L45.9819 4.312C45.9659 3.432 45.8859 3.128 45.4539 3.048C45.1979 3 44.8779 2.984 44.7659 2.984C44.6699 2.984 44.6539 2.904 44.6539 2.856C44.6539 2.776 44.7659 2.76 44.9259 2.76C45.5659 2.76 46.2379 2.792 46.3979 2.792C46.5579 2.792 47.0219 2.76 47.5979 2.76C47.7419 2.76 47.8539 2.776 47.8539 2.856C47.8539 2.904 47.7899 2.984 47.6939 2.984C47.6299 2.984 47.5179 2.984 47.3579 3.016C46.8939 3.112 46.8619 3.384 46.8619 4.2L46.8299 12.168C46.8299 13.064 46.8139 13.144 46.7179 13.144C46.5739 13.144 46.4299 13.032 45.6459 12.312C45.5019 12.184 43.4699 10.184 41.9819 8.632C40.3499 6.92 38.7659 5.256 38.3339 4.776ZM58.1353 11.928V9.576C58.1353 8.472 58.1033 8.312 57.5273 8.2C57.4153 8.184 57.1753 8.168 57.0473 8.168C56.9993 8.168 56.9353 8.104 56.9353 8.056C56.9353 7.96 56.9993 7.944 57.1593 7.944C57.7993 7.944 58.7433 7.976 58.8233 7.976C58.8873 7.976 59.7673 7.944 60.1993 7.944C60.3593 7.944 60.4233 7.96 60.4233 8.056C60.4233 8.104 60.3593 8.168 60.3113 8.168C60.2153 8.168 60.1193 8.168 59.9593 8.2C59.5753 8.264 59.4633 8.472 59.4313 8.952C59.4153 9.384 59.4153 9.784 59.4153 10.36V11.88C59.4153 12.504 59.3993 12.52 59.2233 12.616C58.3273 13.08 57.0473 13.224 56.2313 13.224C55.1593 13.224 53.1593 13.096 51.5913 11.768C50.7273 11.048 49.9113 9.592 49.9113 7.896C49.9113 5.72 51.0153 4.184 52.2633 3.432C53.5273 2.664 54.9353 2.568 56.0073 2.568C56.9033 2.568 57.8953 2.728 58.1673 2.792C58.4553 2.856 58.9513 2.936 59.3033 2.936C59.4473 2.936 59.4793 3 59.4793 3.064C59.4793 3.256 59.3993 3.624 59.3993 4.984C59.3993 5.208 59.3353 5.272 59.2393 5.272C59.1593 5.272 59.1433 5.192 59.1433 5.064C59.1273 4.888 59.0473 4.488 58.8233 4.168C58.4713 3.656 57.3993 3.112 55.5753 3.112C54.7273 3.112 53.7033 3.176 52.6313 3.992C51.8153 4.616 51.2393 5.832 51.2393 7.416C51.2393 9.336 52.2313 10.712 52.7273 11.176C53.8473 12.216 55.0313 12.6 56.3273 12.6C56.8233 12.6 57.4792 12.552 57.8472 12.344C58.0233 12.248 58.1353 12.184 58.1353 11.928ZM64.1519 9.096V6.696C64.1519 4.584 64.1519 4.2 64.1199 3.768C64.0879 3.304 64.0079 3.08 63.5439 3.016C63.4319 3 63.1919 2.984 63.0639 2.984C63.0159 2.984 62.9519 2.92 62.9519 2.872C62.9519 2.792 63.0159 2.76 63.1759 2.76C63.8159 2.76 64.7279 2.792 64.8079 2.792C64.9039 2.792 67.8479 2.808 68.1679 2.792C68.4399 2.776 68.6959 2.728 68.8079 2.712C68.8719 2.696 68.9359 2.648 68.9999 2.648C69.0479 2.648 69.0639 2.712 69.0639 2.776C69.0639 2.872 68.9839 3.032 68.9519 3.416C68.9359 3.544 68.9039 4.152 68.8719 4.312C68.8559 4.376 68.8079 4.456 68.7439 4.456C68.6639 4.456 68.6319 4.392 68.6319 4.28C68.6319 4.184 68.6159 3.96 68.5519 3.8C68.4559 3.576 68.3119 3.48 67.5439 3.384C67.3039 3.352 65.6719 3.336 65.5119 3.336C65.4479 3.336 65.4319 3.384 65.4319 3.48V7.176C65.4319 7.272 65.4319 7.32 65.5119 7.32C65.6879 7.32 67.5439 7.32 67.8639 7.288C68.1999 7.256 68.4079 7.24 68.5519 7.096C68.6479 7 68.7119 6.92 68.7599 6.92C68.8079 6.92 68.8399 6.952 68.8399 7.032C68.8399 7.112 68.7599 7.336 68.7279 7.784C68.6959 8.056 68.6639 8.568 68.6639 8.664C68.6639 8.776 68.6319 8.92 68.5359 8.92C68.4719 8.92 68.4399 8.872 68.4399 8.792C68.4399 8.664 68.4399 8.52 68.3759 8.344C68.3279 8.152 68.1999 7.992 67.6559 7.928C67.2719 7.88 65.7679 7.864 65.5279 7.864C65.4479 7.864 65.4319 7.912 65.4319 7.96V9.096C65.4319 9.56 65.4159 11.144 65.4319 11.416C65.4639 12.328 65.7199 12.504 67.1119 12.504C67.4799 12.504 68.1519 12.504 68.5199 12.36C68.8879 12.2 69.0799 11.96 69.1599 11.416C69.1919 11.256 69.2239 11.208 69.3039 11.208C69.3839 11.208 69.3999 11.32 69.3999 11.416C69.3999 11.512 69.2879 12.44 69.2079 12.728C69.1119 13.08 68.9679 13.08 68.4239 13.08C67.3679 13.08 66.5519 13.048 65.9759 13.032C65.3839 13 65.0159 13 64.8079 13C64.7759 13 64.5039 13 64.1999 13.016C63.9279 13.032 63.6079 13.048 63.3839 13.048C63.2399 13.048 63.1599 13.016 63.1599 12.936C63.1599 12.888 63.1919 12.824 63.2719 12.824C63.3999 12.824 63.5759 12.776 63.7039 12.76C63.9759 12.712 64.0079 12.44 64.0719 12.04C64.1519 11.48 64.1519 10.408 64.1519 9.096ZM84.9275 13.272C82.5275 13.272 80.9115 12.68 79.6475 11.544C78.0955 10.152 77.7115 8.328 77.7115 6.808C77.7115 5.736 78.0795 3.864 79.5035 2.44C80.4635 1.48 81.9195 0.728 84.3835 0.728C85.0235 0.728 85.9195 0.775999 86.7035 0.919999C87.3115 1.032 87.8235 1.128 88.3355 1.16C88.5115 1.176 88.5435 1.24 88.5435 1.336C88.5435 1.464 88.4955 1.656 88.4635 2.232C88.4315 2.76 88.4315 3.64 88.4155 3.88C88.3995 4.12 88.3675 4.216 88.2715 4.216C88.1595 4.216 88.1435 4.104 88.1435 3.88C88.1435 3.256 87.8875 2.6 87.4715 2.248C86.9115 1.768 85.6795 1.336 84.2715 1.336C82.1435 1.336 81.1515 1.96 80.5915 2.504C79.4235 3.624 79.1515 5.048 79.1515 6.68C79.1515 9.736 81.5035 12.536 84.9275 12.536C86.1275 12.536 87.0715 12.392 87.7115 11.736C88.0475 11.384 88.2555 10.68 88.3035 10.392C88.3355 10.216 88.3675 10.152 88.4635 10.152C88.5435 10.152 88.5755 10.264 88.5755 10.392C88.5755 10.504 88.3835 11.896 88.2235 12.44C88.1275 12.744 88.0955 12.776 87.8075 12.904C87.1675 13.16 85.9515 13.272 84.9275 13.272ZM90.7706 7.88C90.7706 5.688 92.4666 2.568 96.3546 2.568C99.5226 2.568 101.923 4.504 101.923 7.672C101.923 10.712 99.6666 13.224 96.2746 13.224C92.4186 13.224 90.7706 10.328 90.7706 7.88ZM92.2266 7.512C92.2266 10.68 94.1306 12.664 96.6746 12.664C97.9386 12.664 100.483 11.992 100.483 8.056C100.483 4.792 98.4986 3.08 96.2746 3.08C93.9226 3.08 92.2266 4.552 92.2266 7.512ZM105.073 8.696V6.696C105.073 4.584 105.073 4.2 105.041 3.768C105.009 3.336 104.929 3.08 104.465 3.016C104.353 3 104.113 2.984 103.985 2.984C103.937 2.984 103.873 2.92 103.873 2.872C103.873 2.792 103.937 2.76 104.097 2.76C104.737 2.76 105.585 2.792 105.713 2.792C105.841 2.792 106.721 2.76 107.137 2.76C107.297 2.76 107.377 2.792 107.377 2.872C107.377 2.92 107.312 2.984 107.249 2.984C107.153 2.984 107.073 2.984 106.897 3.016C106.529 3.08 106.449 3.32 106.417 3.768C106.385 4.2 106.385 4.584 106.385 6.696V8.6C106.385 10.568 106.817 11.384 107.424 11.928C108.113 12.552 108.721 12.664 109.521 12.664C110.385 12.664 111.217 12.28 111.697 11.704C112.352 10.92 112.497 9.8 112.497 8.408V6.696C112.497 4.584 112.481 4.2 112.465 3.768C112.449 3.336 112.369 3.08 111.905 3.016C111.793 3 111.553 2.984 111.425 2.984C111.361 2.984 111.312 2.92 111.312 2.872C111.312 2.792 111.377 2.76 111.536 2.76C112.161 2.76 112.977 2.792 113.057 2.792C113.153 2.792 113.825 2.76 114.241 2.76C114.401 2.76 114.465 2.792 114.465 2.872C114.465 2.92 114.417 2.984 114.353 2.984C114.257 2.984 114.177 2.984 114.001 3.016C113.617 3.096 113.537 3.32 113.505 3.768C113.473 4.2 113.489 4.584 113.489 6.696V8.152C113.489 9.624 113.297 11.272 112.177 12.232C111.153 13.112 110.065 13.224 109.233 13.224C108.769 13.224 107.297 13.192 106.305 12.264C105.617 11.624 105.073 10.68 105.073 8.696ZM118.443 4.776L118.603 11.192C118.635 12.312 118.763 12.648 119.147 12.744C119.403 12.808 119.723 12.824 119.851 12.824C119.915 12.824 119.963 12.872 119.963 12.936C119.963 13.016 119.867 13.048 119.707 13.048C118.907 13.048 118.347 13 118.219 13C118.091 13 117.499 13.048 116.859 13.048C116.715 13.048 116.635 13.032 116.635 12.936C116.635 12.872 116.683 12.824 116.747 12.824C116.859 12.824 117.115 12.808 117.323 12.744C117.675 12.648 117.723 12.28 117.723 11.048V3.256C117.723 2.712 117.803 2.568 117.915 2.568C118.075 2.568 118.315 2.84 118.459 2.984C118.683 3.208 120.731 5.384 122.907 7.624C124.299 9.064 125.803 10.68 126.235 11.128L126.091 4.312C126.075 3.432 125.995 3.128 125.563 3.048C125.307 3 124.987 2.984 124.875 2.984C124.779 2.984 124.763 2.904 124.763 2.856C124.763 2.776 124.875 2.76 125.035 2.76C125.675 2.76 126.347 2.792 126.507 2.792C126.667 2.792 127.131 2.76 127.707 2.76C127.851 2.76 127.963 2.776 127.963 2.856C127.963 2.904 127.899 2.984 127.803 2.984C127.739 2.984 127.627 2.984 127.467 3.016C127.003 3.112 126.971 3.384 126.971 4.2L126.939 12.168C126.939 13.064 126.923 13.144 126.827 13.144C126.683 13.144 126.539 13.032 125.755 12.312C125.611 12.184 123.579 10.184 122.091 8.632C120.459 6.92 118.875 5.256 118.443 4.776ZM134.911 3.384V9.096C134.911 10.408 134.911 11.48 134.975 12.04C135.023 12.44 135.087 12.696 135.519 12.76C135.711 12.792 136.031 12.824 136.159 12.824C136.255 12.824 136.271 12.888 136.271 12.936C136.271 13 136.207 13.048 136.047 13.048C135.279 13.048 134.383 13 134.303 13C134.239 13 133.263 13.048 132.847 13.048C132.687 13.048 132.623 13.016 132.623 12.936C132.623 12.888 132.655 12.84 132.735 12.84C132.863 12.84 133.023 12.808 133.151 12.776C133.439 12.712 133.519 12.44 133.567 12.04C133.631 11.48 133.631 10.408 133.631 9.096V3.384L131.599 3.416C130.719 3.432 130.383 3.528 130.175 3.848C130.015 4.088 129.999 4.184 129.951 4.28C129.919 4.392 129.871 4.408 129.807 4.408C129.775 4.408 129.711 4.376 129.711 4.296C129.711 4.152 129.983 2.936 130.015 2.824C130.031 2.744 130.111 2.568 130.159 2.568C130.255 2.568 130.399 2.68 130.783 2.728C131.183 2.776 131.727 2.792 131.887 2.792H137.199C137.663 2.792 137.983 2.76 138.207 2.728C138.415 2.696 138.543 2.664 138.607 2.664C138.671 2.664 138.671 2.744 138.671 2.824C138.671 3.24 138.623 4.216 138.623 4.376C138.623 4.488 138.559 4.552 138.495 4.552C138.431 4.552 138.399 4.504 138.383 4.312L138.367 4.168C138.319 3.752 138.015 3.448 136.671 3.416L134.911 3.384ZM144.018 10.68V9.512C144.018 8.776 143.922 8.504 143.714 8.12C143.602 7.912 141.698 4.888 141.218 4.168C140.882 3.656 140.546 3.352 140.29 3.176C140.082 3.048 139.809 2.984 139.697 2.984C139.617 2.984 139.553 2.92 139.553 2.856C139.553 2.792 139.601 2.76 139.729 2.76C140.002 2.76 141.058 2.792 141.122 2.792C141.218 2.792 141.794 2.76 142.338 2.76C142.498 2.76 142.53 2.792 142.53 2.856C142.53 2.904 142.434 2.952 142.306 3C142.194 3.048 142.13 3.112 142.13 3.224C142.13 3.416 142.226 3.576 142.322 3.752L144.882 7.992C145.17 7.416 146.93 4.504 147.186 4.056C147.362 3.752 147.426 3.528 147.426 3.352C147.426 3.16 147.362 3.048 147.202 3C147.074 2.968 146.994 2.904 146.994 2.84C146.994 2.792 147.074 2.76 147.218 2.76C147.586 2.76 148.082 2.792 148.194 2.792C148.29 2.792 149.298 2.76 149.57 2.76C149.666 2.76 149.746 2.792 149.746 2.84C149.746 2.904 149.682 2.984 149.57 2.984C149.41 2.984 149.138 3.032 148.914 3.16C148.642 3.32 148.514 3.464 148.21 3.832C147.746 4.376 145.762 7.576 145.474 8.152C145.234 8.632 145.298 9.064 145.298 9.512V10.68C145.298 10.904 145.298 11.48 145.346 12.04C145.378 12.44 145.474 12.696 145.89 12.76C146.082 12.792 146.402 12.824 146.53 12.824C146.61 12.824 146.642 12.888 146.642 12.936C146.642 13 146.562 13.048 146.418 13.048C145.634 13.048 144.722 13 144.641 13C144.578 13 143.682 13.048 143.266 13.048C143.106 13.048 143.042 13.016 143.042 12.936C143.042 12.888 143.074 12.824 143.154 12.824C143.282 12.824 143.442 12.792 143.57 12.76C143.858 12.696 143.954 12.44 143.986 12.04C144.018 11.48 144.018 10.904 144.018 10.68Z" fill="white"/>
</svg>
