<svg width="119" height="11" viewBox="0 0 119 11" fill="none" xmlns="http://www.w3.org/2000/svg">
<g id="ORANGE COUNTY">
<path id="Vector" d="M118.776 0.195984V0.475984C118.598 0.513317 118.421 0.629983 118.244 0.825983C118.066 1.01265 117.87 1.31132 117.656 1.72198L114.828 7.32198H114.59L111.314 1.27398C111.127 0.92865 110.968 0.713983 110.838 0.629983C110.716 0.53665 110.604 0.489984 110.502 0.489984V0.195984C110.688 0.205317 110.88 0.21465 111.076 0.223983C111.281 0.233316 111.5 0.237983 111.734 0.237983C112.042 0.237983 112.368 0.237983 112.714 0.237983C113.068 0.22865 113.395 0.21465 113.694 0.195984V0.489984C113.46 0.489984 113.255 0.517983 113.078 0.573983C112.9 0.629984 112.784 0.73265 112.728 0.881983C112.672 1.03132 112.714 1.24132 112.854 1.51198L115.22 6.04798L115.108 6.13198L116.97 2.42198C117.231 1.90865 117.357 1.51198 117.348 1.23198C117.348 0.951983 117.24 0.76065 117.026 0.657984C116.811 0.545984 116.508 0.485317 116.116 0.475984V0.195984C116.386 0.205317 116.662 0.21465 116.942 0.223983C117.222 0.233316 117.483 0.237983 117.726 0.237983C117.968 0.237983 118.169 0.233316 118.328 0.223983C118.486 0.21465 118.636 0.205317 118.776 0.195984ZM115.458 5.85198V8.62398C115.458 8.95998 115.486 9.21198 115.542 9.37998C115.598 9.54798 115.705 9.65998 115.864 9.71598C116.032 9.77198 116.274 9.80932 116.592 9.82798V10.108C116.377 10.0893 116.106 10.08 115.78 10.08C115.462 10.0707 115.14 10.066 114.814 10.066C114.45 10.066 114.109 10.0707 113.792 10.08C113.474 10.08 113.218 10.0893 113.022 10.108V9.82798C113.339 9.80932 113.577 9.77198 113.736 9.71598C113.904 9.65998 114.016 9.54798 114.072 9.37998C114.128 9.21198 114.156 8.95998 114.156 8.62398V5.75398L114.912 6.62198L115.458 5.85198Z" fill="white"/>
<path id="Vector_2" d="M109.856 0.195984C109.819 0.55065 109.791 0.895983 109.772 1.23198C109.763 1.55865 109.758 1.81065 109.758 1.98798C109.758 2.21198 109.763 2.42198 109.772 2.61798C109.782 2.81398 109.791 2.98665 109.8 3.13598H109.478C109.413 2.48265 109.324 1.96932 109.212 1.59598C109.1 1.21332 108.904 0.937982 108.624 0.769982C108.344 0.601982 107.91 0.517982 107.322 0.517982H106.566V8.48398C106.566 8.85732 106.599 9.13732 106.664 9.32398C106.739 9.51065 106.879 9.63665 107.084 9.70198C107.29 9.76732 107.588 9.80932 107.98 9.82798V10.108C107.738 10.0893 107.43 10.08 107.056 10.08C106.683 10.0707 106.305 10.066 105.922 10.066C105.502 10.066 105.106 10.0707 104.732 10.08C104.368 10.08 104.074 10.0893 103.85 10.108V9.82798C104.242 9.80932 104.541 9.76732 104.746 9.70198C104.952 9.63665 105.087 9.51065 105.152 9.32398C105.227 9.13732 105.264 8.85732 105.264 8.48398V0.517982H104.508C103.93 0.517982 103.496 0.601982 103.206 0.769982C102.926 0.937982 102.73 1.21332 102.618 1.59598C102.506 1.96932 102.418 2.48265 102.352 3.13598H102.03C102.049 2.98665 102.058 2.81398 102.058 2.61798C102.068 2.42198 102.072 2.21198 102.072 1.98798C102.072 1.81065 102.063 1.55865 102.044 1.23198C102.035 0.895983 102.012 0.55065 101.974 0.195984C102.366 0.205317 102.791 0.21465 103.248 0.223983C103.715 0.233316 104.182 0.237983 104.648 0.237983C105.115 0.237983 105.54 0.237983 105.922 0.237983C106.305 0.237983 106.725 0.237983 107.182 0.237983C107.649 0.237983 108.116 0.233316 108.582 0.223983C109.049 0.21465 109.474 0.205317 109.856 0.195984Z" fill="white"/>
<path id="Vector_3" d="M100.784 0.195984V0.475984C100.466 0.485317 100.224 0.531983 100.056 0.615983C99.897 0.699983 99.7897 0.835317 99.7337 1.02198C99.6777 1.20865 99.6497 1.47465 99.6497 1.81998V10.178C99.5937 10.178 99.5377 10.178 99.4817 10.178C99.435 10.178 99.3837 10.178 99.3277 10.178L93.4477 1.09198V8.48398C93.4477 8.81998 93.4757 9.08598 93.5317 9.28198C93.597 9.46865 93.7184 9.60398 93.8957 9.68798C94.0824 9.76265 94.3577 9.80932 94.7217 9.82798V10.108C94.5537 10.0893 94.3344 10.08 94.0637 10.08C93.793 10.0707 93.5364 10.066 93.2937 10.066C93.0604 10.066 92.8224 10.0707 92.5797 10.08C92.3464 10.08 92.1504 10.0893 91.9917 10.108V9.82798C92.309 9.80932 92.547 9.76265 92.7057 9.68798C92.8737 9.60398 92.9857 9.46865 93.0417 9.28198C93.0977 9.08598 93.1257 8.81998 93.1257 8.48398V1.67998C93.1257 1.33465 93.0977 1.08265 93.0417 0.923984C92.9857 0.755984 92.8737 0.643983 92.7057 0.587983C92.547 0.52265 92.309 0.485317 91.9917 0.475984V0.195984C92.1504 0.205317 92.3464 0.21465 92.5797 0.223983C92.8224 0.233316 93.0604 0.237983 93.2937 0.237983C93.499 0.237983 93.695 0.233316 93.8817 0.223983C94.0684 0.21465 94.2364 0.205317 94.3857 0.195984L99.3277 7.81198V1.81998C99.3277 1.47465 99.295 1.20865 99.2297 1.02198C99.1737 0.835317 99.0524 0.699983 98.8657 0.615983C98.6884 0.531983 98.4177 0.485317 98.0537 0.475984V0.195984C98.2217 0.205317 98.441 0.21465 98.7117 0.223983C98.9917 0.233316 99.2484 0.237983 99.4817 0.237983C99.7244 0.237983 99.9624 0.233316 100.196 0.223983C100.438 0.21465 100.634 0.205317 100.784 0.195984Z" fill="white"/>
<path id="Vector_4" d="M90.7507 0.195984V0.475984C90.4334 0.485317 90.1907 0.531983 90.0227 0.615983C89.8641 0.699983 89.7567 0.835317 89.7007 1.02198C89.6447 1.20865 89.6167 1.47465 89.6167 1.81998V6.03398C89.6167 6.68732 89.5747 7.25665 89.4907 7.74198C89.4067 8.22732 89.2574 8.64732 89.0427 9.00198C88.8094 9.39398 88.4687 9.71132 88.0207 9.95398C87.5727 10.1873 87.0594 10.304 86.4807 10.304C86.0327 10.304 85.6034 10.248 85.1927 10.136C84.7914 10.0333 84.4367 9.83732 84.1287 9.54798C83.8581 9.28665 83.6434 9.01132 83.4847 8.72198C83.3354 8.43265 83.2327 8.07798 83.1767 7.65798C83.1207 7.23798 83.0927 6.71065 83.0927 6.07598V1.67998C83.0927 1.33465 83.0647 1.08265 83.0087 0.923984C82.9527 0.755984 82.8407 0.643983 82.6727 0.587983C82.5141 0.52265 82.2761 0.485317 81.9587 0.475984V0.195984C82.1547 0.205317 82.4114 0.21465 82.7287 0.223983C83.0461 0.233316 83.3867 0.237983 83.7507 0.237983C84.0774 0.237983 84.3994 0.233316 84.7167 0.223983C85.0434 0.21465 85.3141 0.205317 85.5287 0.195984V0.475984C85.2114 0.485317 84.9687 0.52265 84.8007 0.587983C84.6421 0.643983 84.5347 0.755984 84.4787 0.923984C84.4227 1.08265 84.3947 1.33465 84.3947 1.67998V6.31398C84.3947 6.78998 84.4181 7.24265 84.4647 7.67198C84.5114 8.09198 84.6047 8.46532 84.7447 8.79198C84.8941 9.10932 85.1181 9.36132 85.4167 9.54798C85.7154 9.72532 86.1121 9.81398 86.6067 9.81398C87.3161 9.81398 87.8621 9.65998 88.2447 9.35198C88.6367 9.03465 88.9074 8.60065 89.0567 8.04998C89.2154 7.49932 89.2947 6.87865 89.2947 6.18798V1.81998C89.2947 1.47465 89.2527 1.20865 89.1687 1.02198C89.0941 0.835317 88.9634 0.699983 88.7767 0.615983C88.5901 0.531983 88.3381 0.485317 88.0207 0.475984V0.195984C88.1887 0.205317 88.4081 0.21465 88.6787 0.223983C88.9587 0.233316 89.2154 0.237983 89.4487 0.237983C89.6914 0.237983 89.9294 0.233316 90.1627 0.223983C90.4054 0.21465 90.6014 0.205317 90.7507 0.195984Z" fill="white"/>
<path id="Vector_5" d="M76.1998 0C77.0865 0 77.8611 0.200667 78.5238 0.602C79.1958 1.00333 79.7138 1.582 80.0778 2.338C80.4511 3.08467 80.6378 3.99467 80.6378 5.068C80.6378 6.11333 80.4465 7.028 80.0638 7.812C79.6905 8.596 79.1678 9.20733 78.4958 9.646C77.8238 10.0847 77.0538 10.304 76.1858 10.304C75.2991 10.304 74.5198 10.1033 73.8478 9.702C73.1851 9.30067 72.6671 8.722 72.2938 7.966C71.9298 7.21 71.7478 6.3 71.7478 5.236C71.7478 4.19067 71.9391 3.276 72.3218 2.492C72.7045 1.708 73.2271 1.09667 73.8898 0.658001C74.5618 0.219334 75.3318 0 76.1998 0ZM76.1438 0.252C75.5371 0.252 75.0098 0.462 74.5618 0.882C74.1138 1.302 73.7638 1.88067 73.5118 2.618C73.2691 3.35533 73.1478 4.20933 73.1478 5.18C73.1478 6.16933 73.2831 7.03267 73.5538 7.77C73.8338 8.498 74.2071 9.06267 74.6738 9.464C75.1498 9.856 75.6725 10.052 76.2418 10.052C76.8485 10.052 77.3758 9.842 77.8238 9.422C78.2718 9.002 78.6171 8.42333 78.8598 7.686C79.1118 6.93933 79.2378 6.08533 79.2378 5.124C79.2378 4.12533 79.0978 3.262 78.8178 2.534C78.5471 1.806 78.1785 1.246 77.7118 0.854001C77.2451 0.452667 76.7225 0.252 76.1438 0.252Z" fill="white"/>
<path id="Vector_6" d="M66.2811 0C66.8971 0 67.4011 0.0933336 67.7931 0.280001C68.1944 0.457334 68.5491 0.667334 68.8571 0.910001C69.0438 1.05 69.1838 1.06867 69.2771 0.966C69.3798 0.854 69.4498 0.597334 69.4871 0.196001H69.8091C69.7904 0.541334 69.7764 0.961334 69.7671 1.456C69.7578 1.95067 69.7531 2.604 69.7531 3.416H69.4311C69.3658 3.01467 69.3051 2.69733 69.2491 2.464C69.1931 2.22133 69.1231 2.016 69.0391 1.848C68.9644 1.68 68.8618 1.512 68.7311 1.344C68.4418 0.961333 68.0778 0.686 67.6391 0.518C67.2004 0.340666 66.7384 0.252 66.2531 0.252C65.7958 0.252 65.3804 0.368667 65.0071 0.602C64.6431 0.826 64.3258 1.15267 64.0551 1.582C63.7938 2.01133 63.5884 2.52933 63.4391 3.136C63.2991 3.74267 63.2291 4.424 63.2291 5.18C63.2291 5.964 63.3084 6.65933 63.4671 7.266C63.6258 7.86333 63.8451 8.36733 64.1251 8.778C64.4144 9.18867 64.7504 9.50133 65.1331 9.716C65.5251 9.92133 65.9451 10.024 66.3931 10.024C66.8131 10.024 67.2518 9.94 67.7091 9.772C68.1664 9.604 68.5258 9.33333 68.7871 8.96C68.9924 8.68933 69.1324 8.39533 69.2071 8.078C69.2911 7.76067 69.3658 7.31733 69.4311 6.748H69.7531C69.7531 7.59733 69.7578 8.28333 69.7671 8.806C69.7764 9.31933 69.7904 9.75333 69.8091 10.108H69.4871C69.4498 9.70667 69.3844 9.45467 69.2911 9.352C69.2071 9.24933 69.0624 9.26333 68.8571 9.394C68.5118 9.63667 68.1431 9.85133 67.7511 10.038C67.3684 10.2153 66.8738 10.304 66.2671 10.304C65.3804 10.304 64.6011 10.1033 63.9291 9.702C63.2664 9.30067 62.7484 8.722 62.3751 7.966C62.0111 7.21 61.8291 6.3 61.8291 5.236C61.8291 4.19067 62.0204 3.276 62.4031 2.492C62.7858 1.708 63.3084 1.09667 63.9711 0.658001C64.6431 0.219334 65.4131 0 66.2811 0Z" fill="white"/>
<path id="Vector_7" d="M56.0837 0.195984C56.0463 0.52265 56.0183 0.839983 55.9997 1.14798C55.9903 1.45598 55.9857 1.68932 55.9857 1.84798C55.9857 2.01598 55.9903 2.17932 55.9997 2.33798C56.009 2.48732 56.0183 2.61332 56.0277 2.71598H55.7057C55.6497 2.16532 55.5703 1.73132 55.4677 1.41398C55.365 1.08732 55.1877 0.85865 54.9357 0.727983C54.693 0.587983 54.3243 0.517982 53.8297 0.517982H52.6677C52.3503 0.517982 52.1077 0.545983 51.9397 0.601983C51.781 0.64865 51.6737 0.755984 51.6177 0.923984C51.5617 1.08265 51.5337 1.33465 51.5337 1.67998V8.62398C51.5337 8.95998 51.5617 9.21198 51.6177 9.37998C51.6737 9.54798 51.781 9.65998 51.9397 9.71598C52.1077 9.76265 52.3503 9.78598 52.6677 9.78598H53.6897C54.2777 9.78598 54.721 9.70665 55.0197 9.54798C55.3277 9.38932 55.547 9.13265 55.6777 8.77798C55.8177 8.41398 55.9203 7.92398 55.9857 7.30798H56.3077C56.2797 7.55998 56.2657 7.89598 56.2657 8.31598C56.2657 8.49332 56.2703 8.74998 56.2797 9.08598C56.2983 9.41265 56.3263 9.75332 56.3637 10.108C55.8877 10.0893 55.351 10.08 54.7537 10.08C54.1563 10.0707 53.6243 10.066 53.1577 10.066C52.9523 10.066 52.6863 10.066 52.3597 10.066C52.0423 10.066 51.697 10.0707 51.3237 10.08C50.9503 10.08 50.5723 10.0847 50.1897 10.094C49.807 10.094 49.443 10.0987 49.0977 10.108V9.82798C49.415 9.80932 49.653 9.77198 49.8117 9.71598C49.9797 9.65998 50.0917 9.54798 50.1477 9.37998C50.2037 9.21198 50.2317 8.95998 50.2317 8.62398V1.67998C50.2317 1.33465 50.2037 1.08265 50.1477 0.923984C50.0917 0.755984 49.9797 0.643983 49.8117 0.587983C49.653 0.52265 49.415 0.485317 49.0977 0.475984V0.195984C49.443 0.205317 49.807 0.21465 50.1897 0.223983C50.5723 0.223983 50.9503 0.22865 51.3237 0.237983C51.697 0.237983 52.0423 0.237983 52.3597 0.237983C52.6863 0.237983 52.9523 0.237983 53.1577 0.237983C53.587 0.237983 54.0723 0.237983 54.6137 0.237983C55.1643 0.22865 55.6543 0.21465 56.0837 0.195984ZM53.6757 4.98398C53.6757 4.98398 53.6757 5.03065 53.6757 5.12398C53.6757 5.21732 53.6757 5.26398 53.6757 5.26398H51.1137C51.1137 5.26398 51.1137 5.21732 51.1137 5.12398C51.1137 5.03065 51.1137 4.98398 51.1137 4.98398H53.6757ZM54.0817 3.13598C54.0443 3.66798 54.0257 4.07398 54.0257 4.35398C54.035 4.63398 54.0397 4.89065 54.0397 5.12398C54.0397 5.35732 54.0443 5.61398 54.0537 5.89398C54.063 6.17398 54.0863 6.57998 54.1237 7.11198H53.8017C53.7643 6.81332 53.7177 6.52398 53.6617 6.24398C53.615 5.95465 53.503 5.72132 53.3257 5.54398C53.1577 5.35732 52.8683 5.26398 52.4577 5.26398V4.98398C52.7657 4.98398 52.999 4.92332 53.1577 4.80198C53.3257 4.67132 53.447 4.50798 53.5217 4.31198C53.5963 4.11598 53.6477 3.91532 53.6757 3.70998C53.7037 3.49532 53.7317 3.30398 53.7597 3.13598H54.0817Z" fill="white"/>
<path id="Vector_8" d="M43.6498 0C44.2565 0 44.7465 0.0933336 45.1198 0.280001C45.4932 0.457334 45.8432 0.667334 46.1698 0.910001C46.2912 1.00333 46.3845 1.05 46.4498 1.05C46.6272 1.05 46.7438 0.765334 46.7998 0.196001H47.1218C47.1032 0.541334 47.0892 0.961334 47.0798 1.456C47.0705 1.95067 47.0658 2.604 47.0658 3.416H46.7438C46.6785 3.024 46.5992 2.646 46.5058 2.282C46.4125 1.918 46.2585 1.60533 46.0438 1.344C45.7732 0.998667 45.4185 0.732667 44.9798 0.546C44.5412 0.35 44.0885 0.252 43.6218 0.252C43.1552 0.252 42.7305 0.368667 42.3478 0.602C41.9745 0.826 41.6525 1.15267 41.3818 1.582C41.1112 2.01133 40.9012 2.52933 40.7518 3.136C40.6118 3.73333 40.5418 4.41 40.5418 5.166C40.5418 6.846 40.8125 8.078 41.3538 8.862C41.8952 9.63667 42.7352 10.024 43.8738 10.024C44.2098 10.024 44.4992 9.97733 44.7418 9.884C44.9938 9.78133 45.1898 9.68333 45.3298 9.59C45.5072 9.46867 45.6192 9.35667 45.6658 9.254C45.7125 9.142 45.7358 8.99733 45.7358 8.82V7.476C45.7358 7.09333 45.6985 6.80867 45.6238 6.622C45.5492 6.43533 45.4092 6.30933 45.2038 6.244C45.0078 6.17867 44.7138 6.14133 44.3218 6.132V5.852C44.4898 5.86133 44.6858 5.87067 44.9098 5.88C45.1338 5.88 45.3672 5.88467 45.6098 5.894C45.8618 5.894 46.0905 5.894 46.2958 5.894C46.6038 5.894 46.8792 5.88933 47.1218 5.88C47.3738 5.87067 47.5838 5.86133 47.7518 5.852V6.132C47.5465 6.14133 47.3925 6.174 47.2898 6.23C47.1872 6.286 47.1172 6.398 47.0798 6.566C47.0518 6.734 47.0378 6.99067 47.0378 7.336V10.108H46.7578C46.7485 9.94933 46.7112 9.77667 46.6458 9.59C46.5898 9.40333 46.5012 9.31 46.3798 9.31C46.3238 9.31 46.2678 9.324 46.2118 9.352C46.1558 9.38 46.0578 9.44533 45.9178 9.548C45.6098 9.78133 45.2832 9.968 44.9378 10.108C44.5925 10.2387 44.1912 10.304 43.7338 10.304C42.7725 10.304 41.9465 10.108 41.2558 9.716C40.5745 9.31467 40.0518 8.74067 39.6878 7.994C39.3238 7.24733 39.1418 6.356 39.1418 5.32C39.1418 4.228 39.3378 3.28533 39.7298 2.492C40.1218 1.69867 40.6538 1.08733 41.3258 0.658001C42.0072 0.219334 42.7818 0 43.6498 0Z" fill="white"/>
<path id="Vector_9" d="M37.6968 0.195984V0.475984C37.3795 0.485317 37.1368 0.531983 36.9688 0.615983C36.8101 0.699983 36.7028 0.835317 36.6468 1.02198C36.5908 1.20865 36.5628 1.47465 36.5628 1.81998V10.178C36.5068 10.178 36.4508 10.178 36.3948 10.178C36.3481 10.178 36.2968 10.178 36.2408 10.178L30.3608 1.09198V8.48398C30.3608 8.81998 30.3888 9.08598 30.4448 9.28198C30.5101 9.46865 30.6315 9.60398 30.8088 9.68798C30.9955 9.76265 31.2708 9.80932 31.6348 9.82798V10.108C31.4668 10.0893 31.2475 10.08 30.9768 10.08C30.7061 10.0707 30.4495 10.066 30.2068 10.066C29.9735 10.066 29.7355 10.0707 29.4928 10.08C29.2595 10.08 29.0635 10.0893 28.9048 10.108V9.82798C29.2221 9.80932 29.4601 9.76265 29.6188 9.68798C29.7868 9.60398 29.8988 9.46865 29.9548 9.28198C30.0108 9.08598 30.0388 8.81998 30.0388 8.48398V1.67998C30.0388 1.33465 30.0108 1.08265 29.9548 0.923984C29.8988 0.755984 29.7868 0.643983 29.6188 0.587983C29.4601 0.52265 29.2221 0.485317 28.9048 0.475984V0.195984C29.0635 0.205317 29.2595 0.21465 29.4928 0.223983C29.7355 0.233316 29.9735 0.237983 30.2068 0.237983C30.4121 0.237983 30.6081 0.233316 30.7948 0.223983C30.9815 0.21465 31.1495 0.205317 31.2988 0.195984L36.2408 7.81198V1.81998C36.2408 1.47465 36.2081 1.20865 36.1428 1.02198C36.0868 0.835317 35.9655 0.699983 35.7788 0.615983C35.6015 0.531983 35.3308 0.485317 34.9668 0.475984V0.195984C35.1348 0.205317 35.3541 0.21465 35.6248 0.223983C35.9048 0.233316 36.1615 0.237983 36.3948 0.237983C36.6375 0.237983 36.8755 0.233316 37.1088 0.223983C37.3515 0.21465 37.5475 0.205317 37.6968 0.195984Z" fill="white"/>
<path id="Vector_10" d="M24.0138 0.125977L27.4298 8.93198C27.5698 9.28664 27.7285 9.52464 27.9058 9.64598C28.0831 9.75798 28.2465 9.81864 28.3958 9.82798V10.108C28.2091 10.0893 27.9805 10.08 27.7098 10.08C27.4391 10.0706 27.1685 10.066 26.8978 10.066C26.5338 10.066 26.1931 10.0706 25.8758 10.08C25.5585 10.08 25.3018 10.0893 25.1058 10.108V9.82798C25.5818 9.80931 25.8851 9.72998 26.0158 9.58998C26.1465 9.44064 26.1185 9.12798 25.9318 8.65198L23.3278 1.69398L23.5518 1.51198L21.1158 7.83998C20.9665 8.21331 20.8778 8.53064 20.8498 8.79198C20.8218 9.04398 20.8451 9.24464 20.9198 9.39398C21.0038 9.54331 21.1391 9.65064 21.3258 9.71598C21.5218 9.78131 21.7645 9.81864 22.0538 9.82798V10.108C21.7925 10.0893 21.5171 10.08 21.2278 10.08C20.9478 10.0706 20.6865 10.066 20.4438 10.066C20.2105 10.066 20.0098 10.0706 19.8418 10.08C19.6831 10.08 19.5338 10.0893 19.3938 10.108V9.82798C19.5805 9.78131 19.7718 9.67398 19.9678 9.50598C20.1638 9.32864 20.3411 9.02998 20.4998 8.60998L23.7898 0.125977C23.8271 0.125977 23.8645 0.125977 23.9018 0.125977C23.9391 0.125977 23.9765 0.125977 24.0138 0.125977ZM25.7218 6.07598V6.35598H21.5498L21.6898 6.07598H25.7218Z" fill="white"/>
<path id="Vector_11" d="M10.7217 0.195984C10.9177 0.205317 11.1743 0.21465 11.4917 0.223983C11.809 0.233316 12.1217 0.237983 12.4297 0.237983C12.8683 0.237983 13.2883 0.233316 13.6897 0.223983C14.091 0.21465 14.3757 0.209983 14.5437 0.209983C15.2997 0.209983 15.925 0.317317 16.4197 0.531983C16.9237 0.74665 17.297 1.04065 17.5397 1.41398C17.7917 1.77798 17.9177 2.18865 17.9177 2.64598C17.9177 2.92598 17.8617 3.22465 17.7497 3.54198C17.6377 3.85932 17.4417 4.15798 17.1617 4.43798C16.891 4.71798 16.5177 4.95132 16.0417 5.13798C15.5657 5.31532 14.9637 5.40398 14.2357 5.40398H12.8917V5.12398H14.0957C14.7583 5.12398 15.2623 5.02132 15.6077 4.81598C15.9623 4.60132 16.2003 4.32132 16.3217 3.97598C16.4523 3.62132 16.5177 3.22932 16.5177 2.79998C16.5177 2.06265 16.3403 1.49332 15.9857 1.09198C15.6403 0.681316 15.043 0.475984 14.1937 0.475984C13.7643 0.475984 13.4843 0.555317 13.3537 0.713984C13.223 0.87265 13.1577 1.19465 13.1577 1.67998V8.62398C13.1577 8.95998 13.1857 9.21198 13.2417 9.37998C13.2977 9.54798 13.405 9.65998 13.5637 9.71598C13.7317 9.77198 13.9743 9.80932 14.2917 9.82798V10.108C14.077 10.0893 13.8063 10.08 13.4797 10.08C13.1623 10.0707 12.8403 10.066 12.5137 10.066C12.1497 10.066 11.809 10.0707 11.4917 10.08C11.1743 10.08 10.9177 10.0893 10.7217 10.108V9.82798C11.039 9.80932 11.277 9.77198 11.4357 9.71598C11.6037 9.65998 11.7157 9.54798 11.7717 9.37998C11.8277 9.21198 11.8557 8.95998 11.8557 8.62398V1.67998C11.8557 1.33465 11.8277 1.08265 11.7717 0.923984C11.7157 0.755984 11.6037 0.643983 11.4357 0.587983C11.277 0.52265 11.039 0.485317 10.7217 0.475984V0.195984ZM12.9477 5.16598C13.4517 5.18465 13.8483 5.20798 14.1377 5.23598C14.427 5.25465 14.6603 5.27332 14.8377 5.29198C15.0243 5.31065 15.2017 5.33398 15.3697 5.36198C15.995 5.46465 16.443 5.65598 16.7137 5.93598C16.9937 6.20665 17.199 6.63132 17.3297 7.20998L17.6797 8.63798C17.773 9.04865 17.8663 9.34732 17.9597 9.53398C18.0623 9.71132 18.2163 9.79532 18.4217 9.78598C18.5803 9.77665 18.711 9.72532 18.8137 9.63198C18.9257 9.53865 19.0423 9.41265 19.1637 9.25398L19.3737 9.40798C19.1777 9.69732 18.9723 9.92132 18.7577 10.08C18.5523 10.2293 18.2583 10.304 17.8757 10.304C17.5303 10.304 17.227 10.2013 16.9657 9.99598C16.7043 9.79065 16.5083 9.38932 16.3777 8.79198L16.0697 7.39198C15.9857 6.99065 15.8877 6.64532 15.7757 6.35598C15.673 6.05732 15.5237 5.82398 15.3277 5.65598C15.141 5.48798 14.861 5.40398 14.4877 5.40398H12.9757L12.9477 5.16598Z" fill="white"/>
<path id="Vector_12" d="M4.78013 0C5.66679 0 6.44146 0.200667 7.10413 0.602C7.77613 1.00333 8.29413 1.582 8.65813 2.338C9.03146 3.08467 9.21813 3.99467 9.21813 5.068C9.21813 6.11333 9.02679 7.028 8.64413 7.812C8.27079 8.596 7.74813 9.20733 7.07613 9.646C6.40413 10.0847 5.63413 10.304 4.76613 10.304C3.87946 10.304 3.10012 10.1033 2.42812 9.702C1.76546 9.30067 1.24746 8.722 0.874125 7.966C0.510125 7.21 0.328125 6.3 0.328125 5.236C0.328125 4.19067 0.519458 3.276 0.902125 2.492C1.28479 1.708 1.80746 1.09667 2.47013 0.658001C3.14213 0.219334 3.91213 0 4.78013 0ZM4.72412 0.252C4.11746 0.252 3.59013 0.462 3.14213 0.882C2.69413 1.302 2.34413 1.88067 2.09212 2.618C1.84946 3.35533 1.72813 4.20933 1.72813 5.18C1.72813 6.16933 1.86346 7.03267 2.13412 7.77C2.41412 8.498 2.78746 9.06267 3.25413 9.464C3.73013 9.856 4.25279 10.052 4.82212 10.052C5.42879 10.052 5.95613 9.842 6.40413 9.422C6.85213 9.002 7.19746 8.42333 7.44013 7.686C7.69212 6.93933 7.81813 6.08533 7.81813 5.124C7.81813 4.12533 7.67812 3.262 7.39813 2.534C7.12746 1.806 6.75879 1.246 6.29213 0.854001C5.82546 0.452667 5.30279 0.252 4.72412 0.252Z" fill="white"/>
</g>
</svg>
