<svg width="140" height="11" viewBox="0 0 140 11" fill="none" xmlns="http://www.w3.org/2000/svg">
<g id="SaN Gablel Velley">
<path id="Vector" d="M139.328 0.195984V0.475984C139.151 0.513317 138.973 0.629983 138.796 0.825983C138.619 1.01265 138.423 1.31132 138.208 1.72198L135.38 7.32198H135.142L131.866 1.27398C131.679 0.92865 131.521 0.713983 131.39 0.629983C131.269 0.53665 131.157 0.489984 131.054 0.489984V0.195984C131.241 0.205317 131.432 0.21465 131.628 0.223983C131.833 0.233316 132.053 0.237983 132.286 0.237983C132.594 0.237983 132.921 0.237983 133.266 0.237983C133.621 0.22865 133.947 0.21465 134.246 0.195984V0.489984C134.013 0.489984 133.807 0.517983 133.63 0.573983C133.453 0.629984 133.336 0.73265 133.28 0.881983C133.224 1.03132 133.266 1.24132 133.406 1.51198L135.772 6.04798L135.66 6.13198L137.522 2.42198C137.783 1.90865 137.909 1.51198 137.9 1.23198C137.9 0.951983 137.793 0.76065 137.578 0.657984C137.363 0.545984 137.06 0.485317 136.668 0.475984V0.195984C136.939 0.205317 137.214 0.21465 137.494 0.223983C137.774 0.233316 138.035 0.237983 138.278 0.237983C138.521 0.237983 138.721 0.233316 138.88 0.223983C139.039 0.21465 139.188 0.205317 139.328 0.195984ZM136.01 5.85198V8.62398C136.01 8.95998 136.038 9.21198 136.094 9.37998C136.15 9.54798 136.257 9.65998 136.416 9.71598C136.584 9.77198 136.827 9.80932 137.144 9.82798V10.108C136.929 10.0893 136.659 10.08 136.332 10.08C136.015 10.0707 135.693 10.066 135.366 10.066C135.002 10.066 134.661 10.0707 134.344 10.08C134.027 10.08 133.77 10.0893 133.574 10.108V9.82798C133.891 9.80932 134.129 9.77198 134.288 9.71598C134.456 9.65998 134.568 9.54798 134.624 9.37998C134.68 9.21198 134.708 8.95998 134.708 8.62398V5.75398L135.464 6.62198L136.01 5.85198Z" fill="white"/>
<path id="Vector_2" d="M129.859 0.195984C129.821 0.52265 129.793 0.839983 129.775 1.14798C129.765 1.45598 129.761 1.68932 129.761 1.84798C129.761 2.01598 129.765 2.17932 129.775 2.33798C129.784 2.48732 129.793 2.61332 129.803 2.71598H129.481C129.425 2.16532 129.345 1.73132 129.243 1.41398C129.14 1.08732 128.963 0.85865 128.711 0.727983C128.468 0.587983 128.099 0.517982 127.605 0.517982H126.443C126.125 0.517982 125.883 0.545983 125.715 0.601983C125.556 0.64865 125.449 0.755984 125.393 0.923984C125.337 1.08265 125.309 1.33465 125.309 1.67998V8.62398C125.309 8.95998 125.337 9.21198 125.393 9.37998C125.449 9.54798 125.556 9.65998 125.715 9.71598C125.883 9.76265 126.125 9.78598 126.443 9.78598H127.465C128.053 9.78598 128.496 9.70665 128.795 9.54798C129.103 9.38932 129.322 9.13265 129.453 8.77798C129.593 8.41398 129.695 7.92398 129.761 7.30798H130.083C130.055 7.55998 130.041 7.89598 130.041 8.31598C130.041 8.49332 130.045 8.74998 130.055 9.08598C130.073 9.41265 130.101 9.75332 130.139 10.108C129.663 10.0893 129.126 10.08 128.529 10.08C127.931 10.0707 127.399 10.066 126.933 10.066C126.727 10.066 126.461 10.066 126.135 10.066C125.817 10.066 125.472 10.0707 125.099 10.08C124.725 10.08 124.347 10.0847 123.965 10.094C123.582 10.094 123.218 10.0987 122.873 10.108V9.82798C123.19 9.80932 123.428 9.77198 123.587 9.71598C123.755 9.65998 123.867 9.54798 123.923 9.37998C123.979 9.21198 124.007 8.95998 124.007 8.62398V1.67998C124.007 1.33465 123.979 1.08265 123.923 0.923984C123.867 0.755984 123.755 0.643983 123.587 0.587983C123.428 0.52265 123.19 0.485317 122.873 0.475984V0.195984C123.218 0.205317 123.582 0.21465 123.965 0.223983C124.347 0.223983 124.725 0.22865 125.099 0.237983C125.472 0.237983 125.817 0.237983 126.135 0.237983C126.461 0.237983 126.727 0.237983 126.933 0.237983C127.362 0.237983 127.847 0.237983 128.389 0.237983C128.939 0.22865 129.429 0.21465 129.859 0.195984ZM127.451 4.98398C127.451 4.98398 127.451 5.03065 127.451 5.12398C127.451 5.21732 127.451 5.26398 127.451 5.26398H124.889C124.889 5.26398 124.889 5.21732 124.889 5.12398C124.889 5.03065 124.889 4.98398 124.889 4.98398H127.451ZM127.857 3.13598C127.819 3.66798 127.801 4.07398 127.801 4.35398C127.81 4.63398 127.815 4.89065 127.815 5.12398C127.815 5.35732 127.819 5.61398 127.829 5.89398C127.838 6.17398 127.861 6.57998 127.899 7.11198H127.577C127.539 6.81332 127.493 6.52398 127.437 6.24398C127.39 5.95465 127.278 5.72132 127.101 5.54398C126.933 5.35732 126.643 5.26398 126.233 5.26398V4.98398C126.541 4.98398 126.774 4.92332 126.933 4.80198C127.101 4.67132 127.222 4.50798 127.297 4.31198C127.371 4.11598 127.423 3.91532 127.451 3.70998C127.479 3.49532 127.507 3.30398 127.535 3.13598H127.857Z" fill="white"/>
<path id="Vector_3" d="M117.932 0.195984V0.475984C117.615 0.485317 117.372 0.52265 117.204 0.587983C117.046 0.643983 116.938 0.755984 116.882 0.923984C116.826 1.08265 116.798 1.33465 116.798 1.67998V8.62398C116.798 8.95998 116.826 9.21198 116.882 9.37998C116.938 9.54798 117.046 9.65998 117.204 9.71598C117.372 9.76265 117.615 9.78598 117.932 9.78598H118.954C119.393 9.78598 119.748 9.73932 120.018 9.64598C120.298 9.55265 120.518 9.40798 120.676 9.21198C120.844 9.00665 120.97 8.73598 121.054 8.39998C121.138 8.06398 121.204 7.65332 121.25 7.16798H121.572C121.544 7.45732 121.53 7.83998 121.53 8.31598C121.53 8.49332 121.535 8.74998 121.544 9.08598C121.563 9.41265 121.591 9.75332 121.628 10.108C121.152 10.0893 120.616 10.08 120.018 10.08C119.421 10.0707 118.889 10.066 118.422 10.066C118.217 10.066 117.951 10.066 117.624 10.066C117.307 10.066 116.962 10.0707 116.588 10.08C116.215 10.08 115.837 10.0847 115.454 10.094C115.072 10.094 114.708 10.0987 114.362 10.108V9.82798C114.68 9.80932 114.918 9.77198 115.076 9.71598C115.244 9.65998 115.356 9.54798 115.412 9.37998C115.468 9.21198 115.496 8.95998 115.496 8.62398V1.67998C115.496 1.33465 115.468 1.08265 115.412 0.923984C115.356 0.755984 115.244 0.643983 115.076 0.587983C114.918 0.52265 114.68 0.485317 114.362 0.475984V0.195984C114.558 0.205317 114.815 0.21465 115.132 0.223983C115.45 0.233316 115.79 0.237983 116.154 0.237983C116.481 0.237983 116.803 0.233316 117.12 0.223983C117.447 0.21465 117.718 0.205317 117.932 0.195984Z" fill="white"/>
<path id="Vector_4" d="M109.422 0.195984V0.475984C109.104 0.485317 108.862 0.52265 108.694 0.587983C108.535 0.643983 108.428 0.755984 108.372 0.923984C108.316 1.08265 108.288 1.33465 108.288 1.67998V8.62398C108.288 8.95998 108.316 9.21198 108.372 9.37998C108.428 9.54798 108.535 9.65998 108.694 9.71598C108.862 9.76265 109.104 9.78598 109.422 9.78598H110.444C110.882 9.78598 111.237 9.73932 111.508 9.64598C111.788 9.55265 112.007 9.40798 112.166 9.21198C112.334 9.00665 112.46 8.73598 112.544 8.39998C112.628 8.06398 112.693 7.65332 112.74 7.16798H113.062C113.034 7.45732 113.02 7.83998 113.02 8.31598C113.02 8.49332 113.024 8.74998 113.034 9.08598C113.052 9.41265 113.08 9.75332 113.118 10.108C112.642 10.0893 112.105 10.08 111.508 10.08C110.91 10.0707 110.378 10.066 109.912 10.066C109.706 10.066 109.44 10.066 109.114 10.066C108.796 10.066 108.451 10.0707 108.078 10.08C107.704 10.08 107.326 10.0847 106.944 10.094C106.561 10.094 106.197 10.0987 105.852 10.108V9.82798C106.169 9.80932 106.407 9.77198 106.566 9.71598C106.734 9.65998 106.846 9.54798 106.902 9.37998C106.958 9.21198 106.986 8.95998 106.986 8.62398V1.67998C106.986 1.33465 106.958 1.08265 106.902 0.923984C106.846 0.755984 106.734 0.643983 106.566 0.587983C106.407 0.52265 106.169 0.485317 105.852 0.475984V0.195984C106.048 0.205317 106.304 0.21465 106.622 0.223983C106.939 0.233316 107.28 0.237983 107.644 0.237983C107.97 0.237983 108.292 0.233316 108.61 0.223983C108.936 0.21465 109.207 0.205317 109.422 0.195984Z" fill="white"/>
<path id="Vector_5" d="M104.027 0.195984C103.989 0.52265 103.961 0.839983 103.943 1.14798C103.933 1.45598 103.929 1.68932 103.929 1.84798C103.929 2.01598 103.933 2.17932 103.943 2.33798C103.952 2.48732 103.961 2.61332 103.971 2.71598H103.649C103.593 2.16532 103.513 1.73132 103.411 1.41398C103.308 1.08732 103.131 0.85865 102.879 0.727983C102.636 0.587983 102.267 0.517982 101.773 0.517982H100.611C100.293 0.517982 100.051 0.545983 99.8825 0.601983C99.7239 0.64865 99.6165 0.755984 99.5605 0.923984C99.5045 1.08265 99.4765 1.33465 99.4765 1.67998V8.62398C99.4765 8.95998 99.5045 9.21198 99.5605 9.37998C99.6165 9.54798 99.7239 9.65998 99.8825 9.71598C100.051 9.76265 100.293 9.78598 100.611 9.78598H101.633C102.221 9.78598 102.664 9.70665 102.963 9.54798C103.271 9.38932 103.49 9.13265 103.621 8.77798C103.761 8.41398 103.863 7.92398 103.929 7.30798H104.251C104.223 7.55998 104.209 7.89598 104.209 8.31598C104.209 8.49332 104.213 8.74998 104.223 9.08598C104.241 9.41265 104.269 9.75332 104.307 10.108C103.831 10.0893 103.294 10.08 102.697 10.08C102.099 10.0707 101.567 10.066 101.101 10.066C100.895 10.066 100.629 10.066 100.303 10.066C99.9852 10.066 99.6399 10.0707 99.2665 10.08C98.8932 10.08 98.5152 10.0847 98.1325 10.094C97.7499 10.094 97.3859 10.0987 97.0405 10.108V9.82798C97.3579 9.80932 97.5959 9.77198 97.7545 9.71598C97.9225 9.65998 98.0345 9.54798 98.0905 9.37998C98.1465 9.21198 98.1745 8.95998 98.1745 8.62398V1.67998C98.1745 1.33465 98.1465 1.08265 98.0905 0.923984C98.0345 0.755984 97.9225 0.643983 97.7545 0.587983C97.5959 0.52265 97.3579 0.485317 97.0405 0.475984V0.195984C97.3859 0.205317 97.7499 0.21465 98.1325 0.223983C98.5152 0.223983 98.8932 0.22865 99.2665 0.237983C99.6399 0.237983 99.9852 0.237983 100.303 0.237983C100.629 0.237983 100.895 0.237983 101.101 0.237983C101.53 0.237983 102.015 0.237983 102.557 0.237983C103.107 0.22865 103.597 0.21465 104.027 0.195984ZM101.619 4.98398C101.619 4.98398 101.619 5.03065 101.619 5.12398C101.619 5.21732 101.619 5.26398 101.619 5.26398H99.0565C99.0565 5.26398 99.0565 5.21732 99.0565 5.12398C99.0565 5.03065 99.0565 4.98398 99.0565 4.98398H101.619ZM102.025 3.13598C101.987 3.66798 101.969 4.07398 101.969 4.35398C101.978 4.63398 101.983 4.89065 101.983 5.12398C101.983 5.35732 101.987 5.61398 101.997 5.89398C102.006 6.17398 102.029 6.57998 102.067 7.11198H101.745C101.707 6.81332 101.661 6.52398 101.605 6.24398C101.558 5.95465 101.446 5.72132 101.269 5.54398C101.101 5.35732 100.811 5.26398 100.401 5.26398V4.98398C100.709 4.98398 100.942 4.92332 101.101 4.80198C101.269 4.67132 101.39 4.50798 101.465 4.31198C101.539 4.11598 101.591 3.91532 101.619 3.70998C101.647 3.49532 101.675 3.30398 101.703 3.13598H102.025Z" fill="white"/>
<path id="Vector_6" d="M96.2723 0.195984V0.475984C96.0949 0.513317 95.9036 0.62065 95.6983 0.797983C95.5023 0.975316 95.3249 1.27398 95.1663 1.69398L91.8763 10.178C91.8576 10.178 91.8389 10.178 91.8203 10.178C91.8016 10.178 91.7829 10.178 91.7643 10.178C91.7456 10.178 91.7269 10.178 91.7083 10.178C91.6896 10.178 91.6709 10.178 91.6523 10.178L88.2363 1.37198C88.0963 1.01732 87.9376 0.783982 87.7603 0.671983C87.5829 0.550649 87.4196 0.485317 87.2703 0.475984V0.195984C87.4569 0.205317 87.6856 0.21465 87.9563 0.223983C88.2363 0.233316 88.5069 0.237983 88.7683 0.237983C89.1323 0.237983 89.4729 0.233316 89.7903 0.223983C90.1076 0.21465 90.3643 0.205317 90.5603 0.195984V0.475984C90.2429 0.485317 90.0003 0.52265 89.8323 0.587983C89.6736 0.653316 89.5849 0.769983 89.5663 0.937984C89.5569 1.09665 89.6129 1.33465 89.7343 1.65198L92.3383 8.55398L92.1143 8.79198L94.5503 2.46398C94.7463 1.95998 94.8396 1.56798 94.8303 1.28798C94.8209 0.99865 94.7136 0.793316 94.5083 0.671983C94.3029 0.550649 94.0043 0.485317 93.6123 0.475984V0.195984C93.8829 0.205317 94.1583 0.21465 94.4383 0.223983C94.7183 0.233316 94.9796 0.237983 95.2223 0.237983C95.4649 0.237983 95.6656 0.233316 95.8243 0.223983C95.9829 0.21465 96.1323 0.205317 96.2723 0.195984Z" fill="white"/>
<path id="Vector_7" d="M79.714 0.195984V0.475984C79.3967 0.485317 79.154 0.52265 78.986 0.587983C78.8274 0.643983 78.72 0.755984 78.664 0.923984C78.608 1.08265 78.58 1.33465 78.58 1.67998V8.62398C78.58 8.95998 78.608 9.21198 78.664 9.37998C78.72 9.54798 78.8274 9.65998 78.986 9.71598C79.154 9.76265 79.3967 9.78598 79.714 9.78598H80.736C81.1747 9.78598 81.5294 9.73932 81.8 9.64598C82.08 9.55265 82.2994 9.40798 82.458 9.21198C82.626 9.00665 82.752 8.73598 82.836 8.39998C82.92 8.06398 82.9854 7.65332 83.032 7.16798H83.354C83.326 7.45732 83.312 7.83998 83.312 8.31598C83.312 8.49332 83.3167 8.74998 83.326 9.08598C83.3447 9.41265 83.3727 9.75332 83.41 10.108C82.934 10.0893 82.3974 10.08 81.8 10.08C81.2027 10.0707 80.6707 10.066 80.204 10.066C79.9987 10.066 79.7327 10.066 79.406 10.066C79.0887 10.066 78.7434 10.0707 78.37 10.08C77.9967 10.08 77.6187 10.0847 77.236 10.094C76.8534 10.094 76.4894 10.0987 76.144 10.108V9.82798C76.4614 9.80932 76.6994 9.77198 76.858 9.71598C77.026 9.65998 77.138 9.54798 77.194 9.37998C77.25 9.21198 77.278 8.95998 77.278 8.62398V1.67998C77.278 1.33465 77.25 1.08265 77.194 0.923984C77.138 0.755984 77.026 0.643983 76.858 0.587983C76.6994 0.52265 76.4614 0.485317 76.144 0.475984V0.195984C76.34 0.205317 76.5967 0.21465 76.914 0.223983C77.2314 0.233316 77.572 0.237983 77.936 0.237983C78.2627 0.237983 78.5847 0.233316 78.902 0.223983C79.2287 0.21465 79.4994 0.205317 79.714 0.195984Z" fill="white"/>
<path id="Vector_8" d="M74.3188 0.195984C74.2814 0.52265 74.2534 0.839983 74.2348 1.14798C74.2254 1.45598 74.2208 1.68932 74.2208 1.84798C74.2208 2.01598 74.2254 2.17932 74.2348 2.33798C74.2441 2.48732 74.2534 2.61332 74.2628 2.71598H73.9408C73.8848 2.16532 73.8054 1.73132 73.7028 1.41398C73.6001 1.08732 73.4228 0.85865 73.1708 0.727983C72.9281 0.587983 72.5594 0.517982 72.0648 0.517982H70.9028C70.5854 0.517982 70.3428 0.545983 70.1748 0.601983C70.0161 0.64865 69.9088 0.755984 69.8528 0.923984C69.7968 1.08265 69.7688 1.33465 69.7688 1.67998V8.62398C69.7688 8.95998 69.7968 9.21198 69.8528 9.37998C69.9088 9.54798 70.0161 9.65998 70.1748 9.71598C70.3428 9.76265 70.5854 9.78598 70.9028 9.78598H71.9248C72.5128 9.78598 72.9561 9.70665 73.2548 9.54798C73.5628 9.38932 73.7821 9.13265 73.9128 8.77798C74.0528 8.41398 74.1554 7.92398 74.2208 7.30798H74.5428C74.5148 7.55998 74.5008 7.89598 74.5008 8.31598C74.5008 8.49332 74.5054 8.74998 74.5148 9.08598C74.5334 9.41265 74.5614 9.75332 74.5988 10.108C74.1228 10.0893 73.5861 10.08 72.9888 10.08C72.3914 10.0707 71.8594 10.066 71.3928 10.066C71.1874 10.066 70.9214 10.066 70.5948 10.066C70.2774 10.066 69.9321 10.0707 69.5588 10.08C69.1854 10.08 68.8074 10.0847 68.4248 10.094C68.0421 10.094 67.6781 10.0987 67.3328 10.108V9.82798C67.6501 9.80932 67.8881 9.77198 68.0468 9.71598C68.2148 9.65998 68.3268 9.54798 68.3828 9.37998C68.4388 9.21198 68.4668 8.95998 68.4668 8.62398V1.67998C68.4668 1.33465 68.4388 1.08265 68.3828 0.923984C68.3268 0.755984 68.2148 0.643983 68.0468 0.587983C67.8881 0.52265 67.6501 0.485317 67.3328 0.475984V0.195984C67.6781 0.205317 68.0421 0.21465 68.4248 0.223983C68.8074 0.223983 69.1854 0.22865 69.5588 0.237983C69.9321 0.237983 70.2774 0.237983 70.5948 0.237983C70.9214 0.237983 71.1874 0.237983 71.3928 0.237983C71.8221 0.237983 72.3074 0.237983 72.8488 0.237983C73.3994 0.22865 73.8894 0.21465 74.3188 0.195984ZM71.9108 4.98398C71.9108 4.98398 71.9108 5.03065 71.9108 5.12398C71.9108 5.21732 71.9108 5.26398 71.9108 5.26398H69.3488C69.3488 5.26398 69.3488 5.21732 69.3488 5.12398C69.3488 5.03065 69.3488 4.98398 69.3488 4.98398H71.9108ZM72.3168 3.13598C72.2794 3.66798 72.2608 4.07398 72.2608 4.35398C72.2701 4.63398 72.2748 4.89065 72.2748 5.12398C72.2748 5.35732 72.2794 5.61398 72.2888 5.89398C72.2981 6.17398 72.3214 6.57998 72.3588 7.11198H72.0368C71.9994 6.81332 71.9528 6.52398 71.8968 6.24398C71.8501 5.95465 71.7381 5.72132 71.5608 5.54398C71.3928 5.35732 71.1034 5.26398 70.6928 5.26398V4.98398C71.0008 4.98398 71.2341 4.92332 71.3928 4.80198C71.5608 4.67132 71.6821 4.50798 71.7568 4.31198C71.8314 4.11598 71.8828 3.91532 71.9108 3.70998C71.9388 3.49532 71.9668 3.30398 71.9948 3.13598H72.3168Z" fill="white"/>
<path id="Vector_9" d="M62.3923 0.195984V0.475984C62.0749 0.485317 61.8323 0.52265 61.6643 0.587983C61.5056 0.643983 61.3983 0.755984 61.3423 0.923984C61.2863 1.08265 61.2583 1.33465 61.2583 1.67998V8.62398C61.2583 8.95998 61.2863 9.21198 61.3423 9.37998C61.3983 9.54798 61.5056 9.65998 61.6643 9.71598C61.8323 9.76265 62.0749 9.78598 62.3923 9.78598H63.4143C63.8529 9.78598 64.2076 9.73932 64.4783 9.64598C64.7583 9.55265 64.9776 9.40798 65.1363 9.21198C65.3043 9.00665 65.4303 8.73598 65.5143 8.39998C65.5983 8.06398 65.6636 7.65332 65.7103 7.16798H66.0323C66.0043 7.45732 65.9903 7.83998 65.9903 8.31598C65.9903 8.49332 65.9949 8.74998 66.0043 9.08598C66.0229 9.41265 66.0509 9.75332 66.0883 10.108C65.6123 10.0893 65.0756 10.08 64.4783 10.08C63.8809 10.0707 63.3489 10.066 62.8823 10.066C62.6769 10.066 62.4109 10.066 62.0843 10.066C61.7669 10.066 61.4216 10.0707 61.0483 10.08C60.6749 10.08 60.2969 10.0847 59.9143 10.094C59.5316 10.094 59.1676 10.0987 58.8223 10.108V9.82798C59.1396 9.80932 59.3776 9.77198 59.5363 9.71598C59.7043 9.65998 59.8163 9.54798 59.8723 9.37998C59.9283 9.21198 59.9563 8.95998 59.9563 8.62398V1.67998C59.9563 1.33465 59.9283 1.08265 59.8723 0.923984C59.8163 0.755984 59.7043 0.643983 59.5363 0.587983C59.3776 0.52265 59.1396 0.485317 58.8223 0.475984V0.195984C59.0183 0.205317 59.2749 0.21465 59.5923 0.223983C59.9096 0.233316 60.2503 0.237983 60.6143 0.237983C60.9409 0.237983 61.2629 0.233316 61.5803 0.223983C61.9069 0.21465 62.1776 0.205317 62.3923 0.195984Z" fill="white"/>
<path id="Vector_10" d="M49.9153 0.195984C50.1113 0.205317 50.368 0.21465 50.6853 0.223983C51.0026 0.233316 51.3153 0.237983 51.6233 0.237983C52.062 0.237983 52.4819 0.233316 52.8833 0.223983C53.2846 0.21465 53.5693 0.209983 53.7373 0.209983C54.7173 0.209983 55.4546 0.415317 55.9493 0.825983C56.444 1.23665 56.6913 1.76398 56.6913 2.40798C56.6913 2.73465 56.6213 3.05665 56.4813 3.37398C56.3506 3.68198 56.1266 3.96665 55.8093 4.22798C55.5013 4.47998 55.0859 4.68532 54.5633 4.84398V4.87198C55.3006 4.96532 55.8746 5.14265 56.2853 5.40398C56.7053 5.65598 56.9993 5.95465 57.1673 6.29998C57.3353 6.64532 57.4193 7.00932 57.4193 7.39198C57.4193 7.92398 57.2839 8.39532 57.0133 8.80598C56.7519 9.20732 56.3693 9.52465 55.8653 9.75798C55.3613 9.99132 54.7593 10.108 54.0593 10.108C53.854 10.108 53.5459 10.1033 53.1353 10.094C52.7246 10.0753 52.23 10.066 51.6513 10.066C51.3246 10.066 51.0026 10.0707 50.6853 10.08C50.368 10.08 50.1113 10.0893 49.9153 10.108V9.82798C50.2326 9.80932 50.4706 9.77198 50.6293 9.71598C50.7973 9.65998 50.9093 9.54798 50.9653 9.37998C51.0213 9.21198 51.0493 8.95998 51.0493 8.62398V1.67998C51.0493 1.33465 51.0213 1.08265 50.9653 0.923984C50.9093 0.755984 50.7973 0.643983 50.6293 0.587983C50.4706 0.52265 50.2326 0.485317 49.9153 0.475984V0.195984ZM53.3873 0.475984C52.9579 0.475984 52.6779 0.555317 52.5473 0.713984C52.4166 0.87265 52.3513 1.19465 52.3513 1.67998V8.62398C52.3513 8.95065 52.3793 9.19798 52.4353 9.36598C52.4913 9.53398 52.5939 9.64598 52.7433 9.70198C52.8926 9.75798 53.112 9.78598 53.4013 9.78598C54.316 9.78598 54.9786 9.57598 55.3893 9.15598C55.8093 8.72665 56.0193 8.11998 56.0193 7.33598C56.0193 6.61732 55.8233 6.06198 55.4313 5.66998C55.0486 5.27798 54.4139 5.08198 53.5273 5.08198H52.0853C52.0853 5.08198 52.0853 5.04465 52.0853 4.96998C52.0853 4.88598 52.0853 4.84398 52.0853 4.84398H53.2893C53.84 4.84398 54.2646 4.74132 54.5633 4.53598C54.8619 4.32132 55.0673 4.04132 55.1793 3.69598C55.2913 3.34132 55.3473 2.96332 55.3473 2.56198C55.3473 1.87132 55.1933 1.35332 54.8853 1.00798C54.5866 0.653317 54.0873 0.475984 53.3873 0.475984Z" fill="white"/>
<path id="Vector_11" d="M45.0243 0.125977L48.4403 8.93198C48.5803 9.28664 48.739 9.52464 48.9163 9.64598C49.0936 9.75798 49.257 9.81864 49.4063 9.82798V10.108C49.2196 10.0893 48.991 10.08 48.7203 10.08C48.4496 10.0706 48.179 10.066 47.9083 10.066C47.5443 10.066 47.2036 10.0706 46.8863 10.08C46.569 10.08 46.3123 10.0893 46.1163 10.108V9.82798C46.5923 9.80931 46.8956 9.72998 47.0263 9.58998C47.157 9.44064 47.129 9.12798 46.9423 8.65198L44.3383 1.69398L44.5623 1.51198L42.1263 7.83998C41.977 8.21331 41.8883 8.53064 41.8603 8.79198C41.8323 9.04398 41.8556 9.24464 41.9303 9.39398C42.0143 9.54331 42.1496 9.65064 42.3363 9.71598C42.5323 9.78131 42.775 9.81864 43.0643 9.82798V10.108C42.803 10.0893 42.5276 10.08 42.2383 10.08C41.9583 10.0706 41.697 10.066 41.4543 10.066C41.221 10.066 41.0203 10.0706 40.8523 10.08C40.6936 10.08 40.5443 10.0893 40.4043 10.108V9.82798C40.591 9.78131 40.7823 9.67398 40.9783 9.50598C41.1743 9.32864 41.3516 9.02998 41.5103 8.60998L44.8003 0.125977C44.8376 0.125977 44.875 0.125977 44.9123 0.125977C44.9496 0.125977 44.987 0.125977 45.0243 0.125977ZM46.7323 6.07598V6.35598H42.5603L42.7003 6.07598H46.7323Z" fill="white"/>
<path id="Vector_12" d="M35.6425 0C36.2492 0 36.7392 0.0933336 37.1125 0.280001C37.4859 0.457334 37.8359 0.667334 38.1625 0.910001C38.2839 1.00333 38.3772 1.05 38.4425 1.05C38.6199 1.05 38.7365 0.765334 38.7925 0.196001H39.1145C39.0959 0.541334 39.0819 0.961334 39.0725 1.456C39.0632 1.95067 39.0585 2.604 39.0585 3.416H38.7365C38.6712 3.024 38.5919 2.646 38.4985 2.282C38.4052 1.918 38.2512 1.60533 38.0365 1.344C37.7659 0.998667 37.4112 0.732667 36.9725 0.546C36.5339 0.35 36.0812 0.252 35.6145 0.252C35.1479 0.252 34.7232 0.368667 34.3405 0.602C33.9672 0.826 33.6452 1.15267 33.3745 1.582C33.1039 2.01133 32.8939 2.52933 32.7445 3.136C32.6045 3.73333 32.5345 4.41 32.5345 5.166C32.5345 6.846 32.8052 8.078 33.3465 8.862C33.8879 9.63667 34.7279 10.024 35.8665 10.024C36.2025 10.024 36.4919 9.97733 36.7345 9.884C36.9865 9.78133 37.1825 9.68333 37.3225 9.59C37.4999 9.46867 37.6119 9.35667 37.6585 9.254C37.7052 9.142 37.7285 8.99733 37.7285 8.82V7.476C37.7285 7.09333 37.6912 6.80867 37.6165 6.622C37.5419 6.43533 37.4019 6.30933 37.1965 6.244C37.0005 6.17867 36.7065 6.14133 36.3145 6.132V5.852C36.4825 5.86133 36.6785 5.87067 36.9025 5.88C37.1265 5.88 37.3599 5.88467 37.6025 5.894C37.8545 5.894 38.0832 5.894 38.2885 5.894C38.5965 5.894 38.8719 5.88933 39.1145 5.88C39.3665 5.87067 39.5765 5.86133 39.7445 5.852V6.132C39.5392 6.14133 39.3852 6.174 39.2825 6.23C39.1799 6.286 39.1099 6.398 39.0725 6.566C39.0445 6.734 39.0305 6.99067 39.0305 7.336V10.108H38.7505C38.7412 9.94933 38.7039 9.77667 38.6385 9.59C38.5825 9.40333 38.4939 9.31 38.3725 9.31C38.3165 9.31 38.2605 9.324 38.2045 9.352C38.1485 9.38 38.0505 9.44533 37.9105 9.548C37.6025 9.78133 37.2759 9.968 36.9305 10.108C36.5852 10.2387 36.1839 10.304 35.7265 10.304C34.7652 10.304 33.9392 10.108 33.2485 9.716C32.5672 9.31467 32.0445 8.74067 31.6805 7.994C31.3165 7.24733 31.1345 6.356 31.1345 5.32C31.1345 4.228 31.3305 3.28533 31.7225 2.492C32.1145 1.69867 32.6465 1.08733 33.3185 0.658001C33.9999 0.219334 34.7745 0 35.6425 0Z" fill="white"/>
<path id="Vector_13" d="M25.8276 0.195984V0.475984C25.5103 0.485317 25.2676 0.531983 25.0996 0.615983C24.941 0.699983 24.8336 0.835317 24.7776 1.02198C24.7216 1.20865 24.6936 1.47465 24.6936 1.81998V10.178C24.6376 10.178 24.5816 10.178 24.5256 10.178C24.479 10.178 24.4276 10.178 24.3716 10.178L18.4916 1.09198V8.48398C18.4916 8.81998 18.5196 9.08598 18.5756 9.28198C18.641 9.46865 18.7623 9.60398 18.9396 9.68798C19.1263 9.76265 19.4016 9.80932 19.7656 9.82798V10.108C19.5976 10.0893 19.3783 10.08 19.1076 10.08C18.837 10.0707 18.5803 10.066 18.3376 10.066C18.1043 10.066 17.8663 10.0707 17.6236 10.08C17.3903 10.08 17.1943 10.0893 17.0356 10.108V9.82798C17.353 9.80932 17.591 9.76265 17.7496 9.68798C17.9176 9.60398 18.0296 9.46865 18.0856 9.28198C18.1416 9.08598 18.1696 8.81998 18.1696 8.48398V1.67998C18.1696 1.33465 18.1416 1.08265 18.0856 0.923984C18.0296 0.755984 17.9176 0.643983 17.7496 0.587983C17.591 0.52265 17.353 0.485317 17.0356 0.475984V0.195984C17.1943 0.205317 17.3903 0.21465 17.6236 0.223983C17.8663 0.233316 18.1043 0.237983 18.3376 0.237983C18.543 0.237983 18.739 0.233316 18.9256 0.223983C19.1123 0.21465 19.2803 0.205317 19.4296 0.195984L24.3716 7.81198V1.81998C24.3716 1.47465 24.339 1.20865 24.2736 1.02198C24.2176 0.835317 24.0963 0.699983 23.9096 0.615983C23.7323 0.531983 23.4616 0.485317 23.0976 0.475984V0.195984C23.2656 0.205317 23.485 0.21465 23.7556 0.223983C24.0356 0.233316 24.2923 0.237983 24.5256 0.237983C24.7683 0.237983 25.0063 0.233316 25.2396 0.223983C25.4823 0.21465 25.6783 0.205317 25.8276 0.195984Z" fill="white"/>
<path id="Vector_14" d="M12.1447 0.125977L15.5607 8.93198C15.7007 9.28664 15.8593 9.52464 16.0367 9.64598C16.214 9.75798 16.3773 9.81864 16.5267 9.82798V10.108C16.34 10.0893 16.1113 10.08 15.8407 10.08C15.57 10.0706 15.2993 10.066 15.0287 10.066C14.6647 10.066 14.324 10.0706 14.0067 10.08C13.6893 10.08 13.4327 10.0893 13.2367 10.108V9.82798C13.7127 9.80931 14.016 9.72998 14.1467 9.58998C14.2773 9.44064 14.2493 9.12798 14.0627 8.65198L11.4587 1.69398L11.6827 1.51198L9.24666 7.83998C9.09732 8.21331 9.00866 8.53064 8.98066 8.79198C8.95266 9.04398 8.97599 9.24464 9.05066 9.39398C9.13466 9.54331 9.26999 9.65064 9.45666 9.71598C9.65266 9.78131 9.89532 9.81864 10.1847 9.82798V10.108C9.92332 10.0893 9.64799 10.08 9.35866 10.08C9.07866 10.0706 8.81733 10.066 8.57466 10.066C8.34133 10.066 8.14066 10.0706 7.97266 10.08C7.81399 10.08 7.66466 10.0893 7.52466 10.108V9.82798C7.71132 9.78131 7.90266 9.67398 8.09866 9.50598C8.29466 9.32864 8.47199 9.02998 8.63066 8.60998L11.9207 0.125977C11.958 0.125977 11.9953 0.125977 12.0327 0.125977C12.07 0.125977 12.1073 0.125977 12.1447 0.125977ZM13.8527 6.07598V6.35598H9.68066L9.82066 6.07598H13.8527Z" fill="white"/>
<path id="Vector_15" d="M3.43442 0.0419922C3.90109 0.0419922 4.25576 0.0979922 4.49842 0.209992C4.74109 0.312659 4.95576 0.429326 5.14242 0.559993C5.25442 0.625326 5.34309 0.67666 5.40842 0.713993C5.48309 0.741993 5.55309 0.755993 5.61842 0.755993C5.71176 0.755993 5.77709 0.704659 5.81442 0.601993C5.86109 0.499326 5.89842 0.345326 5.92642 0.139993H6.24842C6.23909 0.298659 6.22509 0.489993 6.20642 0.713993C6.19709 0.92866 6.18776 1.21799 6.17842 1.58199C6.17842 1.93666 6.17842 2.40799 6.17842 2.99599H5.85642C5.82842 2.54799 5.73042 2.11866 5.56242 1.70799C5.39442 1.29733 5.14709 0.961325 4.82042 0.699992C4.50309 0.438659 4.08309 0.307992 3.56042 0.307992C3.06576 0.307992 2.65509 0.457326 2.32842 0.755993C2.01109 1.05466 1.85242 1.44666 1.85242 1.93199C1.85242 2.35199 1.95976 2.70666 2.17442 2.99599C2.38909 3.27599 2.67376 3.53266 3.02842 3.76599C3.39242 3.98999 3.78442 4.23266 4.20442 4.49399C4.68976 4.79266 5.11909 5.09133 5.49242 5.38999C5.87509 5.67933 6.17376 6.00133 6.38842 6.35599C6.61242 6.71066 6.72442 7.13999 6.72442 7.64399C6.72442 8.24133 6.58909 8.73599 6.31842 9.12799C6.04776 9.51999 5.68842 9.81399 5.24042 10.01C4.79242 10.206 4.29776 10.304 3.75642 10.304C3.26176 10.304 2.86976 10.248 2.58042 10.136C2.29109 10.024 2.04376 9.90733 1.83842 9.78599C1.63309 9.65533 1.47442 9.58999 1.36242 9.58999C1.26909 9.58999 1.19909 9.64133 1.15242 9.74399C1.11509 9.84666 1.08242 10.0007 1.05442 10.206H0.732422C0.751089 10.01 0.760422 9.78133 0.760422 9.51999C0.769755 9.24933 0.774422 8.89933 0.774422 8.46999C0.783755 8.04066 0.788422 7.49933 0.788422 6.84599H1.11042C1.14776 7.40599 1.25042 7.92866 1.41842 8.41399C1.59576 8.89933 1.86176 9.29133 2.21642 9.58999C2.58042 9.87933 3.06109 10.024 3.65842 10.024C3.96642 10.024 4.25576 9.96333 4.52642 9.84199C4.80642 9.71133 5.03509 9.51066 5.21242 9.23999C5.38976 8.95999 5.47842 8.60066 5.47842 8.16199C5.47842 7.77933 5.38509 7.44799 5.19842 7.16799C5.02109 6.87866 4.76909 6.61266 4.44242 6.36999C4.11576 6.11799 3.73309 5.86133 3.29442 5.59999C2.85576 5.32933 2.44509 5.05399 2.06242 4.77399C1.67976 4.49399 1.37176 4.17199 1.13842 3.80799C0.914422 3.43466 0.802422 2.98666 0.802422 2.46399C0.802422 1.91333 0.923755 1.46066 1.16642 1.10599C1.41842 0.741993 1.74509 0.475992 2.14642 0.307992C2.54776 0.130659 2.97709 0.0419922 3.43442 0.0419922Z" fill="white"/>
</g>
</svg>
