<svg width="109" height="14" viewBox="0 0 109 14" fill="none" xmlns="http://www.w3.org/2000/svg">
<path opacity="0.87" d="M2.968 13.272C2.216 13.272 1.48 13.16 0.824 12.84C0.6 12.728 0.584 12.664 0.584 12.232C0.584 11.432 0.648 10.792 0.664 10.536C0.68 10.36 0.712 10.28 0.792 10.28C0.888 10.28 0.904 10.328 0.904 10.456C0.904 10.6 0.904 10.824 0.952 11.048C1.192 12.232 2.248 12.68 3.32 12.68C4.856 12.68 5.608 11.576 5.608 10.552C5.608 9.448 5.144 8.808 3.768 7.672L3.048 7.08C1.352 5.688 0.968 4.696 0.968 3.608C0.968 1.896 2.248 0.728 4.28 0.728C4.904 0.728 5.368 0.792 5.768 0.888C6.072 0.952 6.2 0.967999 6.328 0.967999C6.456 0.967999 6.488 0.999999 6.488 1.08C6.488 1.16 6.424 1.688 6.424 2.776C6.424 3.032 6.392 3.144 6.312 3.144C6.216 3.144 6.2 3.064 6.184 2.936C6.168 2.744 6.072 2.312 5.976 2.136C5.88 1.96 5.448 1.288 3.976 1.288C2.872 1.288 2.008 1.976 2.008 3.144C2.008 4.056 2.424 4.632 3.96 5.832L4.408 6.184C6.296 7.672 6.744 8.664 6.744 9.944C6.744 10.6 6.488 11.816 5.384 12.6C4.696 13.08 3.832 13.272 2.968 13.272ZM9.937 11.544L13.249 3.032C13.425 2.584 13.489 2.504 13.585 2.504C13.729 2.504 13.777 2.696 13.921 3C14.177 3.576 16.433 9.192 17.297 11.256C17.809 12.472 18.193 12.648 18.497 12.744C18.705 12.808 18.913 12.824 19.057 12.824C19.137 12.824 19.233 12.856 19.233 12.936C19.233 13.016 19.073 13.048 18.913 13.048C18.705 13.048 17.665 13.048 16.689 13.016C16.417 13 16.193 13 16.193 12.92C16.193 12.856 16.225 12.856 16.289 12.824C16.369 12.792 16.513 12.68 16.417 12.456L15.153 9.336C15.121 9.272 15.105 9.256 15.025 9.256H11.777C11.713 9.256 11.665 9.288 11.633 9.368L10.833 11.544C10.705 11.88 10.625 12.216 10.625 12.456C10.625 12.728 10.865 12.824 11.105 12.824H11.233C11.345 12.824 11.377 12.872 11.377 12.936C11.377 13.016 11.297 13.048 11.169 13.048C10.833 13.048 10.065 13 9.905 13C9.761 13 9.057 13.048 8.481 13.048C8.305 13.048 8.209 13.016 8.209 12.936C8.209 12.872 8.273 12.824 8.337 12.824C8.433 12.824 8.641 12.808 8.753 12.792C9.393 12.712 9.665 12.232 9.937 11.544ZM11.969 8.696H14.817C14.881 8.696 14.881 8.664 14.865 8.6L13.473 4.872C13.393 4.664 13.313 4.664 13.233 4.872L11.921 8.6C11.905 8.664 11.921 8.696 11.969 8.696ZM22.0214 4.776L22.1814 11.192C22.2134 12.312 22.3414 12.648 22.7254 12.744C22.9814 12.808 23.3014 12.824 23.4294 12.824C23.4934 12.824 23.5414 12.872 23.5414 12.936C23.5414 13.016 23.4454 13.048 23.2854 13.048C22.4854 13.048 21.9254 13 21.7974 13C21.6694 13 21.0774 13.048 20.4374 13.048C20.2934 13.048 20.2134 13.032 20.2134 12.936C20.2134 12.872 20.2614 12.824 20.3254 12.824C20.4374 12.824 20.6934 12.808 20.9014 12.744C21.2534 12.648 21.3014 12.28 21.3014 11.048V3.256C21.3014 2.712 21.3814 2.568 21.4934 2.568C21.6534 2.568 21.8934 2.84 22.0374 2.984C22.2614 3.208 24.3094 5.384 26.4854 7.624C27.8774 9.064 29.3814 10.68 29.8134 11.128L29.6694 4.312C29.6534 3.432 29.5734 3.128 29.1414 3.048C28.8854 3 28.5654 2.984 28.4534 2.984C28.3574 2.984 28.3414 2.904 28.3414 2.856C28.3414 2.776 28.4534 2.76 28.6134 2.76C29.2534 2.76 29.9254 2.792 30.0854 2.792C30.2454 2.792 30.7094 2.76 31.2854 2.76C31.4294 2.76 31.5414 2.776 31.5414 2.856C31.5414 2.904 31.4774 2.984 31.3814 2.984C31.3174 2.984 31.2054 2.984 31.0454 3.016C30.5814 3.112 30.5494 3.384 30.5494 4.2L30.5174 12.168C30.5174 13.064 30.5014 13.144 30.4054 13.144C30.2614 13.144 30.1174 13.032 29.3334 12.312C29.1894 12.184 27.1574 10.184 25.6694 8.632C24.0374 6.92 22.4534 5.256 22.0214 4.776ZM49.0886 11.688V8.968C49.0886 7.672 49.0086 7.496 48.3686 7.32C48.2406 7.288 47.9686 7.272 47.8246 7.272C47.7606 7.272 47.6966 7.24 47.6966 7.176C47.6966 7.08 47.7766 7.048 47.9526 7.048C48.6726 7.048 49.6806 7.096 49.7606 7.096C49.8406 7.096 50.8486 7.048 51.3286 7.048C51.5046 7.048 51.5846 7.08 51.5846 7.176C51.5846 7.24 51.5206 7.272 51.4566 7.272C51.3446 7.272 51.2486 7.288 51.0566 7.32C50.6246 7.4 50.4966 7.672 50.4646 8.232C50.4326 8.744 50.4326 9.224 50.4326 9.896V11.688C50.4326 12.408 50.4166 12.44 50.2246 12.552C49.2006 13.096 47.7606 13.272 46.8326 13.272C45.6166 13.272 43.3446 13.112 41.5686 11.56C40.5926 10.712 39.6646 9 39.6646 7C39.6646 4.44 40.9126 2.632 42.3366 1.736C43.7766 0.839999 45.3606 0.728 46.5926 0.728C47.6006 0.728 48.7366 0.936 49.0406 0.999999C49.3766 1.08 49.9366 1.144 50.3366 1.16C50.4966 1.176 50.5286 1.24 50.5286 1.304C50.5286 1.528 50.4166 1.976 50.4166 3.576C50.4166 3.832 50.3846 3.912 50.2726 3.912C50.1926 3.912 50.1766 3.816 50.1606 3.672C50.1446 3.448 50.0646 3 49.8246 2.616C49.4246 2.008 48.1286 1.32 46.0646 1.32C45.0566 1.32 43.8566 1.416 42.6406 2.376C41.7126 3.112 41.0566 4.568 41.0566 6.44C41.0566 8.696 42.1926 10.328 42.7526 10.872C44.0166 12.104 45.4726 12.584 46.9446 12.584C47.5206 12.584 48.3526 12.488 48.7686 12.248C48.9766 12.136 49.0886 11.96 49.0886 11.688ZM54.2495 11.544L57.5615 3.032C57.7375 2.584 57.8015 2.504 57.8975 2.504C58.0415 2.504 58.0895 2.696 58.2335 3C58.4895 3.576 60.7455 9.192 61.6095 11.256C62.1215 12.472 62.5055 12.648 62.8095 12.744C63.0175 12.808 63.2255 12.824 63.3695 12.824C63.4495 12.824 63.5455 12.856 63.5455 12.936C63.5455 13.016 63.3855 13.048 63.2255 13.048C63.0175 13.048 61.9775 13.048 61.0015 13.016C60.7295 13 60.5055 13 60.5055 12.92C60.5055 12.856 60.5375 12.856 60.6015 12.824C60.6815 12.792 60.8255 12.68 60.7295 12.456L59.4655 9.336C59.4335 9.272 59.4175 9.256 59.3375 9.256H56.0895C56.0255 9.256 55.9775 9.288 55.9455 9.368L55.1455 11.544C55.0175 11.88 54.9375 12.216 54.9375 12.456C54.9375 12.728 55.1775 12.824 55.4175 12.824H55.5455C55.6575 12.824 55.6895 12.872 55.6895 12.936C55.6895 13.016 55.6095 13.048 55.4815 13.048C55.1455 13.048 54.3775 13 54.2175 13C54.0735 13 53.3695 13.048 52.7935 13.048C52.6175 13.048 52.5215 13.016 52.5215 12.936C52.5215 12.872 52.5855 12.824 52.6495 12.824C52.7455 12.824 52.9535 12.808 53.0655 12.792C53.7055 12.712 53.9775 12.232 54.2495 11.544ZM56.2815 8.696H59.1295C59.1935 8.696 59.1935 8.664 59.1775 8.6L57.7855 4.872C57.7055 4.664 57.6255 4.664 57.5455 4.872L56.2335 8.6C56.2175 8.664 56.2335 8.696 56.2815 8.696ZM65.9019 9.096V6.696C65.9019 4.584 65.9019 4.2 65.8699 3.768C65.8379 3.304 65.7579 3.048 65.2939 2.984C65.1819 2.968 64.9419 2.952 64.8139 2.952C64.7659 2.952 64.7019 2.92 64.7019 2.872C64.7019 2.792 64.7659 2.76 64.9259 2.76C65.5659 2.76 66.4779 2.792 66.5579 2.792C66.8939 2.792 67.5499 2.76 68.2059 2.76C70.5579 2.76 71.1659 4.12 71.1659 4.84C71.1659 5.912 70.4619 6.584 69.7419 7.224C70.8139 7.544 72.2219 8.52 72.2219 10.056C72.2219 11.576 71.0859 13.08 68.6859 13.08C68.4299 13.08 67.9179 13.064 67.4699 13.032C67.0219 13.016 66.6219 13 66.5579 13C66.5259 13 66.2699 13.016 65.9819 13.016C65.6939 13.032 65.3579 13.048 65.1339 13.048C64.9899 13.048 64.9099 13.016 64.9099 12.936C64.9099 12.888 64.9419 12.856 65.0219 12.856C65.1499 12.856 65.3259 12.808 65.4539 12.792C65.7259 12.744 65.7579 12.44 65.8219 12.04C65.9019 11.48 65.9019 10.408 65.9019 9.096ZM67.1179 3.4V6.984C67.1179 7.08 67.1499 7.112 67.2139 7.128C67.2939 7.144 67.5499 7.192 68.0779 7.192C68.8619 7.192 69.1659 7.16 69.4539 6.84C69.7579 6.504 69.9979 6.04 69.9979 5.384C69.9979 4.344 69.4219 3.192 68.0139 3.192C67.8539 3.192 67.5179 3.208 67.2939 3.256C67.1659 3.288 67.1179 3.32 67.1179 3.4ZM67.1179 7.736V8.488C67.1179 9.544 67.1179 11.176 67.1339 11.384C67.1819 12.04 67.1819 12.2 67.6139 12.408C67.9979 12.584 68.5899 12.6 68.8459 12.6C69.7739 12.6 70.9099 12.248 70.9099 10.504C70.9099 9.896 70.6699 8.728 69.5659 8.024C69.0859 7.72 68.6379 7.736 68.3019 7.672C68.1259 7.64 67.4219 7.64 67.1979 7.64C67.1499 7.64 67.1179 7.672 67.1179 7.736ZM75.7456 9.096V6.696C75.7456 4.584 75.7456 4.2 75.7136 3.768C75.6816 3.304 75.6016 3.08 75.1376 3.016C75.0256 3 74.7856 2.984 74.6576 2.984C74.6096 2.984 74.5456 2.92 74.5456 2.872C74.5456 2.792 74.6096 2.76 74.7696 2.76C75.4096 2.76 76.3536 2.792 76.4336 2.792C76.5776 2.792 77.7616 2.76 78.1936 2.76C79.0896 2.76 80.0816 2.84 80.8176 3.352C81.1696 3.608 81.7936 4.264 81.7936 5.208C81.7936 6.216 81.3776 7.192 80.0656 8.312C81.2176 9.752 82.1936 10.984 83.0096 11.832C83.7616 12.6 84.2256 12.728 84.5776 12.776C84.8496 12.824 84.9936 12.824 85.0736 12.824C85.1536 12.824 85.2016 12.888 85.2016 12.936C85.2016 13.016 85.1216 13.048 84.8656 13.048H83.9856C83.1856 13.048 82.8336 12.968 82.4816 12.776C81.8736 12.456 81.3616 11.8 80.5616 10.776C79.9696 10.04 79.3456 9.16 79.0416 8.792C78.9776 8.728 78.9456 8.712 78.8496 8.712L77.0576 8.68C76.9936 8.68 76.9616 8.712 76.9616 8.792V9.112C76.9616 10.424 76.9616 11.48 77.0256 12.04C77.0736 12.44 77.1536 12.696 77.5856 12.76C77.7776 12.792 78.0816 12.824 78.2096 12.824C78.3056 12.824 78.3216 12.888 78.3216 12.936C78.3216 13 78.2576 13.048 78.0976 13.048C77.3296 13.048 76.4336 13 76.3696 13C76.3536 13 75.4096 13.048 74.9776 13.048C74.8336 13.048 74.7536 13.016 74.7536 12.936C74.7536 12.888 74.7856 12.824 74.8656 12.824C74.9936 12.824 75.1696 12.792 75.2976 12.76C75.5696 12.696 75.6016 12.44 75.6656 12.04C75.7456 11.48 75.7456 10.408 75.7456 9.096ZM76.9616 3.48V7.848C76.9616 7.928 76.9936 7.976 77.0576 8.024C77.2656 8.136 77.9856 8.232 78.6096 8.232C78.9456 8.232 79.3296 8.216 79.6656 7.992C80.1456 7.672 80.5136 6.952 80.5136 5.912C80.5136 4.216 79.5856 3.24 78.0816 3.24C77.6656 3.24 77.2176 3.288 77.0736 3.32C77.0096 3.352 76.9616 3.4 76.9616 3.48ZM88.2756 6.696V9.096C88.2756 10.408 88.2756 11.48 88.3396 12.04C88.3876 12.44 88.4356 12.696 88.8516 12.76C89.0596 12.792 89.3636 12.824 89.4916 12.824C89.5716 12.824 89.6036 12.888 89.6036 12.936C89.6036 13 89.5396 13.048 89.3796 13.048C88.5956 13.048 87.6836 13 87.6196 13C87.5396 13 86.6596 13.048 86.2276 13.048C86.0836 13.048 86.0036 13.016 86.0036 12.936C86.0036 12.888 86.0356 12.824 86.1156 12.824C86.2436 12.824 86.4196 12.792 86.5476 12.76C86.8196 12.696 86.8676 12.44 86.9156 12.04C86.9796 11.48 86.9956 10.408 86.9956 9.096V6.696C86.9956 4.584 86.9956 4.2 86.9636 3.768C86.9316 3.304 86.8196 3.096 86.5156 3.032C86.3556 3 86.1796 2.984 86.0836 2.984C86.0196 2.984 85.9716 2.92 85.9716 2.872C85.9716 2.792 86.0356 2.76 86.1956 2.76C86.6596 2.76 87.5396 2.792 87.6196 2.792C87.6836 2.792 88.5956 2.76 89.0276 2.76C89.1876 2.76 89.2516 2.792 89.2516 2.872C89.2516 2.92 89.1876 2.984 89.1396 2.984C89.0436 2.984 88.9476 2.984 88.7876 3.016C88.4036 3.096 88.3236 3.288 88.2916 3.768C88.2756 4.2 88.2756 4.584 88.2756 6.696ZM93.4019 9.096V6.696C93.4019 4.584 93.4019 4.2 93.3699 3.768C93.3379 3.304 93.2579 3.08 92.7939 3.016C92.6819 3 92.4419 2.984 92.3139 2.984C92.2659 2.984 92.2019 2.92 92.2019 2.872C92.2019 2.792 92.2659 2.76 92.4259 2.76C93.0659 2.76 93.9779 2.792 94.0579 2.792C94.1539 2.792 97.0979 2.808 97.4179 2.792C97.6899 2.776 97.9459 2.728 98.0579 2.712C98.1219 2.696 98.1859 2.648 98.2499 2.648C98.2979 2.648 98.3139 2.712 98.3139 2.776C98.3139 2.872 98.2339 3.032 98.2019 3.416C98.1859 3.544 98.1539 4.152 98.1219 4.312C98.1059 4.376 98.0579 4.456 97.9939 4.456C97.9139 4.456 97.8819 4.392 97.8819 4.28C97.8819 4.184 97.8659 3.96 97.8019 3.8C97.7059 3.576 97.5619 3.48 96.7939 3.384C96.5539 3.352 94.9219 3.336 94.7619 3.336C94.6979 3.336 94.6819 3.384 94.6819 3.48V7.176C94.6819 7.272 94.6819 7.32 94.7619 7.32C94.9379 7.32 96.7939 7.32 97.1139 7.288C97.4499 7.256 97.6579 7.24 97.8019 7.096C97.8979 7 97.9619 6.92 98.0099 6.92C98.0579 6.92 98.0899 6.952 98.0899 7.032C98.0899 7.112 98.0099 7.336 97.9779 7.784C97.9459 8.056 97.9139 8.568 97.9139 8.664C97.9139 8.776 97.8819 8.92 97.7859 8.92C97.7219 8.92 97.6899 8.872 97.6899 8.792C97.6899 8.664 97.6899 8.52 97.6259 8.344C97.5779 8.152 97.4499 7.992 96.9059 7.928C96.5219 7.88 95.0179 7.864 94.7779 7.864C94.6979 7.864 94.6819 7.912 94.6819 7.96V9.096C94.6819 9.56 94.6659 11.144 94.6819 11.416C94.7139 12.328 94.9699 12.504 96.3619 12.504C96.7299 12.504 97.4019 12.504 97.7699 12.36C98.1379 12.2 98.3299 11.96 98.4099 11.416C98.4419 11.256 98.4739 11.208 98.5539 11.208C98.6339 11.208 98.6499 11.32 98.6499 11.416C98.6499 11.512 98.5379 12.44 98.4579 12.728C98.3619 13.08 98.2179 13.08 97.6739 13.08C96.6179 13.08 95.8019 13.048 95.2259 13.032C94.6339 13 94.2659 13 94.0579 13C94.0259 13 93.7539 13 93.4499 13.016C93.1779 13.032 92.8579 13.048 92.6339 13.048C92.4899 13.048 92.4099 13.016 92.4099 12.936C92.4099 12.888 92.4419 12.824 92.5219 12.824C92.6499 12.824 92.8259 12.776 92.9539 12.76C93.2259 12.712 93.2579 12.44 93.3219 12.04C93.4019 11.48 93.4019 10.408 93.4019 9.096ZM103.994 6.696V9.128C103.994 11.128 104.026 11.944 104.282 12.184C104.506 12.408 105.05 12.504 106.154 12.504C106.89 12.504 107.514 12.488 107.85 12.088C108.026 11.88 108.138 11.592 108.186 11.32C108.202 11.224 108.25 11.144 108.33 11.144C108.394 11.144 108.426 11.208 108.426 11.352C108.426 11.496 108.33 12.312 108.218 12.712C108.122 13.032 108.074 13.08 107.322 13.08C106.314 13.08 105.53 13.064 104.874 13.032C104.234 13.016 103.754 13 103.338 13C103.274 13 103.034 13 102.762 13.016C102.474 13.032 102.17 13.048 101.946 13.048C101.802 13.048 101.722 13.016 101.722 12.936C101.722 12.888 101.754 12.824 101.834 12.824C101.962 12.824 102.138 12.792 102.266 12.76C102.538 12.696 102.57 12.44 102.634 12.04C102.714 11.48 102.714 10.408 102.714 9.096V6.696C102.714 4.584 102.714 4.2 102.682 3.768C102.65 3.304 102.57 3.08 102.106 3.016C101.994 3 101.754 2.984 101.626 2.984C101.578 2.984 101.514 2.92 101.514 2.872C101.514 2.792 101.578 2.76 101.738 2.76C102.378 2.76 103.258 2.792 103.338 2.792C103.402 2.792 104.458 2.76 104.89 2.76C105.034 2.76 105.114 2.792 105.114 2.872C105.114 2.92 105.05 2.968 105.002 2.968C104.906 2.968 104.698 2.984 104.538 3C104.122 3.08 104.042 3.288 104.01 3.768C103.994 4.2 103.994 4.584 103.994 6.696Z" fill="white"/>
</svg>
