<svg width="87" height="14" viewBox="0 0 87 14" fill="none" xmlns="http://www.w3.org/2000/svg">
<path opacity="0.87" d="M3.192 5.592V8.44C3.192 10.792 3.256 11.816 3.544 12.104C3.8 12.36 4.216 12.472 5.464 12.472C6.312 12.472 7.016 12.456 7.4 11.992C7.608 11.736 7.768 11.336 7.816 11.032C7.832 10.904 7.864 10.824 7.96 10.824C8.04 10.824 8.056 10.888 8.056 11.064C8.056 11.24 7.944 12.2 7.816 12.664C7.704 13.032 7.656 13.096 6.808 13.096C5.656 13.096 4.824 13.064 4.152 13.048C3.48 13.016 2.984 13 2.52 13C2.456 13 2.184 13.016 1.864 13.016C1.544 13.032 1.192 13.048 0.952 13.048C0.776 13.048 0.696 13.016 0.696 12.92C0.696 12.872 0.728 12.824 0.824 12.824C0.968 12.824 1.16 12.792 1.304 12.76C1.624 12.696 1.704 12.344 1.768 11.88C1.848 11.208 1.848 9.944 1.848 8.408V5.592C1.848 3.096 1.848 2.648 1.816 2.136C1.784 1.592 1.656 1.336 1.128 1.224C1 1.192 0.728 1.176 0.584 1.176C0.52 1.176 0.456 1.144 0.456 1.08C0.456 0.983999 0.536 0.952 0.712 0.952C1.432 0.952 2.44 0.999999 2.52 0.999999C2.6 0.999999 3.768 0.952 4.248 0.952C4.424 0.952 4.504 0.983999 4.504 1.08C4.504 1.144 4.44 1.176 4.376 1.176C4.264 1.176 4.04 1.192 3.848 1.224C3.384 1.304 3.256 1.576 3.224 2.136C3.192 2.648 3.192 3.096 3.192 5.592ZM10.4526 11.544L13.7646 3.032C13.9406 2.584 14.0046 2.504 14.1006 2.504C14.2446 2.504 14.2926 2.696 14.4366 3C14.6926 3.576 16.9486 9.192 17.8126 11.256C18.3246 12.472 18.7086 12.648 19.0126 12.744C19.2206 12.808 19.4286 12.824 19.5726 12.824C19.6526 12.824 19.7486 12.856 19.7486 12.936C19.7486 13.016 19.5886 13.048 19.4286 13.048C19.2206 13.048 18.1806 13.048 17.2046 13.016C16.9326 13 16.7086 13 16.7086 12.92C16.7086 12.856 16.7406 12.856 16.8046 12.824C16.8846 12.792 17.0286 12.68 16.9326 12.456L15.6686 9.336C15.6366 9.272 15.6206 9.256 15.5406 9.256H12.2926C12.2286 9.256 12.1806 9.288 12.1486 9.368L11.3486 11.544C11.2206 11.88 11.1406 12.216 11.1406 12.456C11.1406 12.728 11.3806 12.824 11.6206 12.824H11.7486C11.8606 12.824 11.8926 12.872 11.8926 12.936C11.8926 13.016 11.8126 13.048 11.6846 13.048C11.3486 13.048 10.5806 13 10.4206 13C10.2766 13 9.57263 13.048 8.99662 13.048C8.82062 13.048 8.72462 13.016 8.72462 12.936C8.72462 12.872 8.78862 12.824 8.85262 12.824C8.94862 12.824 9.15663 12.808 9.26863 12.792C9.90863 12.712 10.1806 12.232 10.4526 11.544ZM12.4846 8.696H15.3326C15.3966 8.696 15.3966 8.664 15.3806 8.6L13.9886 4.872C13.9086 4.664 13.8286 4.664 13.7486 4.872L12.4366 8.6C12.4206 8.664 12.4366 8.696 12.4846 8.696ZM23.1096 13.224C22.4536 13.224 21.6376 13.128 21.0616 12.856C20.8696 12.76 20.8536 12.712 20.8536 12.344C20.8536 11.672 20.9176 11.128 20.9336 10.904C20.9336 10.76 20.9656 10.68 21.0456 10.68C21.1256 10.68 21.1736 10.728 21.1736 10.84C21.1736 10.952 21.1736 11.144 21.2216 11.336C21.4456 12.328 22.5016 12.68 23.4456 12.68C24.8376 12.68 25.5576 11.896 25.5576 10.872C25.5576 9.896 25.0296 9.432 23.7816 8.504L23.1416 8.024C21.6216 6.888 21.1256 6.056 21.1256 5.112C21.1256 3.512 22.3896 2.552 24.2456 2.552C24.8056 2.552 25.3656 2.632 25.7016 2.712C25.9736 2.776 26.0856 2.776 26.1976 2.776C26.3096 2.776 26.3416 2.792 26.3416 2.872C26.3416 2.936 26.2776 3.384 26.2776 4.312C26.2776 4.52 26.2616 4.616 26.1656 4.616C26.0696 4.616 26.0536 4.552 26.0376 4.44C26.0216 4.28 25.9096 3.912 25.8296 3.768C25.7336 3.608 25.2696 3.096 24.0056 3.096C22.9816 3.096 22.1336 3.608 22.1336 4.568C22.1336 5.432 22.5656 5.928 23.9576 6.872L24.3576 7.144C26.0696 8.312 26.6616 9.256 26.6616 10.424C26.6616 11.224 26.3576 12.088 25.3496 12.744C24.7576 13.128 23.8776 13.224 23.1096 13.224ZM37.6074 2.904L40.6794 11.096C41.6074 8.952 43.7514 3.368 44.1034 2.216C44.1834 1.976 44.2474 1.752 44.2474 1.608C44.2474 1.48 44.1994 1.32 44.0394 1.24C43.8474 1.176 43.6074 1.176 43.4314 1.176C43.3354 1.176 43.2554 1.16 43.2554 1.08C43.2554 0.983999 43.3514 0.952 43.6074 0.952C44.2474 0.952 44.9834 0.999999 45.1754 0.999999C45.2714 0.999999 45.9594 0.952 46.4234 0.952C46.5994 0.952 46.6954 0.983999 46.6954 1.064C46.6954 1.144 46.6314 1.176 46.5034 1.176C46.3914 1.176 46.0394 1.176 45.7354 1.368C45.5274 1.512 45.2874 1.784 44.8554 2.872C44.6794 3.32 43.8794 5.24 43.0634 7.208C42.0874 9.544 41.3674 11.272 40.9994 12.056C40.5514 13.016 40.4874 13.272 40.3274 13.272C40.1354 13.272 40.0554 13.048 39.7514 12.28L35.8314 2.472C35.4794 1.576 35.2394 1.4 34.6794 1.24C34.4394 1.176 34.1674 1.176 34.0714 1.176C33.9754 1.176 33.9434 1.128 33.9434 1.064C33.9434 0.967999 34.1034 0.952 34.3594 0.952C35.1274 0.952 36.0394 0.999999 36.2314 0.999999C36.3914 0.999999 37.1114 0.952 37.7194 0.952C38.0074 0.952 38.1514 0.983999 38.1514 1.064C38.1514 1.144 38.1034 1.176 37.9914 1.176C37.8154 1.176 37.5274 1.192 37.3834 1.256C37.2074 1.336 37.1754 1.464 37.1754 1.576C37.1754 1.784 37.3674 2.28 37.6074 2.904ZM49.2144 9.096V6.696C49.2144 4.584 49.2144 4.2 49.1824 3.768C49.1504 3.304 49.0704 3.08 48.6064 3.016C48.4944 3 48.2544 2.984 48.1264 2.984C48.0784 2.984 48.0144 2.92 48.0144 2.872C48.0144 2.792 48.0784 2.76 48.2384 2.76C48.8784 2.76 49.7904 2.792 49.8704 2.792C49.9664 2.792 52.9104 2.808 53.2304 2.792C53.5024 2.776 53.7584 2.728 53.8704 2.712C53.9344 2.696 53.9984 2.648 54.0624 2.648C54.1104 2.648 54.1264 2.712 54.1264 2.776C54.1264 2.872 54.0464 3.032 54.0144 3.416C53.9984 3.544 53.9664 4.152 53.9344 4.312C53.9184 4.376 53.8704 4.456 53.8064 4.456C53.7264 4.456 53.6944 4.392 53.6944 4.28C53.6944 4.184 53.6784 3.96 53.6144 3.8C53.5184 3.576 53.3744 3.48 52.6064 3.384C52.3664 3.352 50.7344 3.336 50.5744 3.336C50.5104 3.336 50.4944 3.384 50.4944 3.48V7.176C50.4944 7.272 50.4944 7.32 50.5744 7.32C50.7504 7.32 52.6064 7.32 52.9264 7.288C53.2624 7.256 53.4704 7.24 53.6144 7.096C53.7104 7 53.7744 6.92 53.8224 6.92C53.8704 6.92 53.9024 6.952 53.9024 7.032C53.9024 7.112 53.8224 7.336 53.7904 7.784C53.7584 8.056 53.7264 8.568 53.7264 8.664C53.7264 8.776 53.6944 8.92 53.5984 8.92C53.5344 8.92 53.5024 8.872 53.5024 8.792C53.5024 8.664 53.5024 8.52 53.4384 8.344C53.3904 8.152 53.2624 7.992 52.7184 7.928C52.3344 7.88 50.8304 7.864 50.5904 7.864C50.5104 7.864 50.4944 7.912 50.4944 7.96V9.096C50.4944 9.56 50.4784 11.144 50.4944 11.416C50.5264 12.328 50.7824 12.504 52.1744 12.504C52.5424 12.504 53.2144 12.504 53.5824 12.36C53.9504 12.2 54.1424 11.96 54.2224 11.416C54.2544 11.256 54.2864 11.208 54.3664 11.208C54.4464 11.208 54.4624 11.32 54.4624 11.416C54.4624 11.512 54.3504 12.44 54.2704 12.728C54.1744 13.08 54.0304 13.08 53.4864 13.08C52.4304 13.08 51.6144 13.048 51.0384 13.032C50.4464 13 50.0784 13 49.8704 13C49.8384 13 49.5664 13 49.2624 13.016C48.9904 13.032 48.6704 13.048 48.4464 13.048C48.3024 13.048 48.2224 13.016 48.2224 12.936C48.2224 12.888 48.2544 12.824 48.3344 12.824C48.4624 12.824 48.6384 12.776 48.7664 12.76C49.0384 12.712 49.0704 12.44 49.1344 12.04C49.2144 11.48 49.2144 10.408 49.2144 9.096ZM65.1509 11.928V9.576C65.1509 8.472 65.1189 8.312 64.5429 8.2C64.4309 8.184 64.1909 8.168 64.0629 8.168C64.0149 8.168 63.9509 8.104 63.9509 8.056C63.9509 7.96 64.0149 7.944 64.1749 7.944C64.8149 7.944 65.7589 7.976 65.8389 7.976C65.9029 7.976 66.7829 7.944 67.2149 7.944C67.3749 7.944 67.4389 7.96 67.4389 8.056C67.4389 8.104 67.3749 8.168 67.3269 8.168C67.2309 8.168 67.1349 8.168 66.9749 8.2C66.5909 8.264 66.4789 8.472 66.4469 8.952C66.4309 9.384 66.4309 9.784 66.4309 10.36V11.88C66.4309 12.504 66.4149 12.52 66.2389 12.616C65.3429 13.08 64.0629 13.224 63.2469 13.224C62.1749 13.224 60.1749 13.096 58.6069 11.768C57.7429 11.048 56.9269 9.592 56.9269 7.896C56.9269 5.72 58.0309 4.184 59.2789 3.432C60.5429 2.664 61.9509 2.568 63.0229 2.568C63.9189 2.568 64.9109 2.728 65.1829 2.792C65.4709 2.856 65.9669 2.936 66.3189 2.936C66.4629 2.936 66.4949 3 66.4949 3.064C66.4949 3.256 66.4149 3.624 66.4149 4.984C66.4149 5.208 66.3509 5.272 66.2549 5.272C66.1749 5.272 66.1589 5.192 66.1589 5.064C66.1429 4.888 66.0629 4.488 65.8389 4.168C65.4869 3.656 64.4149 3.112 62.5909 3.112C61.7429 3.112 60.7189 3.176 59.6469 3.992C58.8309 4.616 58.2549 5.832 58.2549 7.416C58.2549 9.336 59.2469 10.712 59.7429 11.176C60.8629 12.216 62.0469 12.6 63.3429 12.6C63.8389 12.6 64.4949 12.552 64.8629 12.344C65.0389 12.248 65.1509 12.184 65.1509 11.928ZM69.9995 11.544L73.3115 3.032C73.4875 2.584 73.5515 2.504 73.6475 2.504C73.7915 2.504 73.8395 2.696 73.9835 3C74.2395 3.576 76.4955 9.192 77.3595 11.256C77.8715 12.472 78.2555 12.648 78.5595 12.744C78.7675 12.808 78.9755 12.824 79.1195 12.824C79.1995 12.824 79.2955 12.856 79.2955 12.936C79.2955 13.016 79.1355 13.048 78.9755 13.048C78.7675 13.048 77.7275 13.048 76.7515 13.016C76.4795 13 76.2555 13 76.2555 12.92C76.2555 12.856 76.2875 12.856 76.3515 12.824C76.4315 12.792 76.5755 12.68 76.4795 12.456L75.2155 9.336C75.1835 9.272 75.1675 9.256 75.0875 9.256H71.8395C71.7755 9.256 71.7275 9.288 71.6955 9.368L70.8955 11.544C70.7675 11.88 70.6875 12.216 70.6875 12.456C70.6875 12.728 70.9275 12.824 71.1675 12.824H71.2955C71.4075 12.824 71.4395 12.872 71.4395 12.936C71.4395 13.016 71.3595 13.048 71.2315 13.048C70.8955 13.048 70.1275 13 69.9675 13C69.8235 13 69.1195 13.048 68.5435 13.048C68.3675 13.048 68.2715 13.016 68.2715 12.936C68.2715 12.872 68.3355 12.824 68.3995 12.824C68.4955 12.824 68.7035 12.808 68.8155 12.792C69.4555 12.712 69.7275 12.232 69.9995 11.544ZM72.0315 8.696H74.8795C74.9435 8.696 74.9435 8.664 74.9275 8.6L73.5355 4.872C73.4555 4.664 73.3755 4.664 73.2955 4.872L71.9835 8.6C71.9675 8.664 71.9835 8.696 72.0315 8.696ZM82.6565 13.224C82.0005 13.224 81.1845 13.128 80.6085 12.856C80.4165 12.76 80.4005 12.712 80.4005 12.344C80.4005 11.672 80.4645 11.128 80.4805 10.904C80.4805 10.76 80.5125 10.68 80.5925 10.68C80.6725 10.68 80.7205 10.728 80.7205 10.84C80.7205 10.952 80.7205 11.144 80.7685 11.336C80.9925 12.328 82.0485 12.68 82.9925 12.68C84.3845 12.68 85.1045 11.896 85.1045 10.872C85.1045 9.896 84.5765 9.432 83.3285 8.504L82.6885 8.024C81.1685 6.888 80.6725 6.056 80.6725 5.112C80.6725 3.512 81.9365 2.552 83.7925 2.552C84.3525 2.552 84.9125 2.632 85.2485 2.712C85.5205 2.776 85.6325 2.776 85.7445 2.776C85.8565 2.776 85.8885 2.792 85.8885 2.872C85.8885 2.936 85.8245 3.384 85.8245 4.312C85.8245 4.52 85.8085 4.616 85.7125 4.616C85.6165 4.616 85.6005 4.552 85.5845 4.44C85.5685 4.28 85.4565 3.912 85.3765 3.768C85.2805 3.608 84.8165 3.096 83.5525 3.096C82.5285 3.096 81.6805 3.608 81.6805 4.568C81.6805 5.432 82.1125 5.928 83.5045 6.872L83.9045 7.144C85.6165 8.312 86.2085 9.256 86.2085 10.424C86.2085 11.224 85.9045 12.088 84.8965 12.744C84.3045 13.128 83.4245 13.224 82.6565 13.224Z" fill="white"/>
</svg>
