<svg width="641" height="686" viewBox="0 0 641 686" fill="none" xmlns="http://www.w3.org/2000/svg">
<path opacity="0.1" fill-rule="evenodd" clip-rule="evenodd" d="M141.999 484.011C171.161 496.589 203.464 502.878 238.908 502.878C251.919 502.878 266.5 501.185 282.652 497.798C288.243 496.793 293.781 495.76 299.265 494.697V684.609C299.265 699.606 296.573 709.523 291.189 714.361C286.254 719.199 274.589 723.553 256.194 727.423L215.143 735.405V748.467H443.956V735.405L402.904 727.423C384.509 723.553 372.62 719.199 367.236 714.361C362.301 709.523 359.833 699.606 359.833 684.609V530.045H384.061C409.634 530.045 430.496 535.85 446.648 547.461C462.799 558.588 476.932 573.101 489.046 591C501.608 608.9 514.619 627.525 528.078 646.875C541.538 665.259 554.773 683.158 567.784 700.574C581.244 717.506 596.049 731.293 612.201 741.936C628.801 752.579 648.542 757.9 671.423 757.9C683.537 757.9 694.978 755.965 705.745 752.095V739.033C692.734 739.033 679.948 733.954 667.385 723.795C655.272 713.635 643.382 700.574 631.717 684.609C620.052 668.161 608.387 650.987 596.722 633.088C584.609 613.737 572.719 595.354 561.054 577.938C549.838 560.523 537.052 546.251 522.695 535.125C508.338 523.514 490.84 517.709 470.202 517.709V515.532C492.186 512.63 512.376 506.099 530.77 495.94C549.614 485.297 564.644 471.509 575.86 454.577C587.076 437.162 592.685 417.327 592.685 395.074C592.685 353.953 576.309 321.299 543.557 297.111C510.805 272.438 464.145 260.102 403.577 260.102H215.143V273.164L256.194 281.146C274.589 284.533 286.254 288.645 291.189 293.482C296.573 298.32 299.265 308.479 299.265 323.96V474.193C291.5 477.172 283.943 479.477 276.595 481.108C261.341 484.011 249.003 485.462 239.581 485.462C206.381 485.462 176.545 475.061 150.075 454.259C124.053 433.457 103.415 405.157 88.1604 369.358C73.3548 333.559 65.952 293.164 65.952 248.174C65.952 203.183 73.8035 163.514 89.5063 129.166C105.658 94.335 126.745 67.2439 152.766 47.8932C179.237 28.0586 207.951 18.1413 238.908 18.1413C268.519 18.1413 294.99 25.3979 318.32 39.911C341.65 53.9403 361.166 71.5978 376.869 92.8837C393.02 113.686 404.685 134.246 411.864 154.564H425.323C418.145 122.635 414.331 96.7538 413.883 76.9193C413.883 57.0847 414.78 41.3622 416.575 29.7518L415.229 28.3005C410.742 28.7843 406.704 29.5099 403.115 30.4774C399.526 31.445 395.264 31.9288 390.328 31.9288C381.804 31.9288 373.504 30.7194 365.428 28.3005C357.801 25.3979 349.277 22.2534 339.855 18.867C327.741 14.5131 313.609 10.401 297.457 6.53089C281.306 2.17697 260.892 0 236.216 0C205.259 0 175.648 6.04711 147.383 18.1413C119.117 29.7518 93.7686 46.6837 71.3359 68.9371C49.3519 90.7067 31.8544 117.072 18.8434 148.033C6.28115 178.511 0 212.375 0 249.625C0 284.94 5.60816 318.078 16.8245 349.039C28.4895 379.517 44.8653 406.366 65.952 429.587C87.4874 452.808 112.836 470.949 141.999 484.011ZM359.833 481.764C363.371 481.025 366.806 480.323 370.139 479.657C382.701 477.238 393.693 476.029 403.115 476.029H409.845C409.845 456.678 411.639 435.876 415.229 413.622C418.818 391.369 422.856 368.632 427.342 345.411H413.883C403.564 376.372 390.553 401.286 374.85 420.153C369.932 426.062 364.927 431.496 359.833 436.455V276.792H394.828C435.656 276.792 467.735 287.193 491.065 307.995C514.843 328.314 526.732 358.307 526.732 397.976C526.732 420.713 521.797 440.548 511.927 457.48C502.505 473.928 488.597 486.748 470.202 495.94C452.256 505.131 430.048 509.727 403.577 509.727H359.833V481.764Z" fill="#BDB5AA"/>
</svg>
