<svg width="161" height="46" viewBox="0 0 161 46" fill="none" xmlns="http://www.w3.org/2000/svg">
<g id="logo(black)">
<path id="Vector" d="M65.9413 0.00349741C67.0716 2.59125 68.2037 5.17725 69.3322 7.765C71.514 12.7655 73.6958 17.7661 75.8777 22.7666C75.9109 22.8419 75.9389 22.9188 75.9792 23.0238C75.8812 23.0238 75.8077 23.0238 75.7342 23.0238C74.7176 23.0238 73.6993 23.0186 72.6828 23.0291C72.5078 23.0308 72.4326 22.9696 72.3661 22.8156C71.4213 20.6548 70.4695 18.4974 69.5264 16.3366C69.4547 16.1721 69.3777 16.1109 69.1922 16.1109C66.363 16.1179 63.532 16.1179 60.7028 16.1109C60.5121 16.1109 60.4229 16.1704 60.3477 16.3419C59.4046 18.5027 58.451 20.66 57.5062 22.8191C57.4432 22.9608 57.3785 23.0273 57.2088 23.0256C56.1695 23.0151 55.1284 23.0203 54.0891 23.0203C54.0296 23.0203 53.9684 23.0203 53.8792 23.0203C53.9194 22.9223 53.9474 22.8454 53.9806 22.7701C56.8028 16.2841 59.6268 9.79987 62.4455 3.31211C62.5172 3.14589 62.561 2.96568 62.596 2.78721C62.6625 2.44778 62.5977 2.3358 62.3003 2.14684C61.8331 1.85289 61.3327 1.66218 60.7571 1.65693C60.7571 1.09354 60.7571 0.547645 60.7571 0C62.4857 0.00349933 64.2144 0.00349741 65.9413 0.00349741ZM61.7736 13.1242C63.8995 13.1242 65.9816 13.1242 68.0917 13.1242C67.0384 10.7377 65.9973 8.37739 64.9318 5.96285C63.8662 8.37914 62.8252 10.7394 61.7736 13.1242Z" fill="black"/>
<path id="Vector_2" d="M117.154 0.003479C118.342 2.72246 119.532 5.44318 120.72 8.16216C122.848 13.0367 124.975 17.9113 127.101 22.7859C127.131 22.8541 127.155 22.9258 127.192 23.0221C127.096 23.0221 127.022 23.0221 126.949 23.0221C125.932 23.0221 124.914 23.0168 123.897 23.0273C123.722 23.0291 123.647 22.9678 123.581 22.8156C122.636 20.6548 121.684 18.4974 120.741 16.3366C120.669 16.1739 120.592 16.1109 120.407 16.1109C117.578 16.1179 114.747 16.1179 111.917 16.1109C111.728 16.1109 111.637 16.1686 111.562 16.3418C110.619 18.5027 109.666 20.66 108.723 22.8208C108.653 22.9801 108.57 23.0291 108.401 23.0273C107.375 23.0186 106.352 23.0238 105.326 23.0238C105.258 23.0238 105.19 23.0238 105.094 23.0238C105.134 22.9258 105.162 22.8488 105.195 22.7736C108.014 16.2946 110.834 9.81559 113.651 3.33659C113.727 3.16337 113.774 2.97616 113.811 2.79069C113.877 2.45126 113.812 2.33928 113.515 2.15031C113.048 1.85462 112.546 1.66916 111.972 1.65866C111.972 1.09877 111.972 0.551124 111.972 0.003479C113.699 0.003479 115.426 0.003479 117.154 0.003479ZM119.305 13.1277C118.251 10.7394 117.208 8.37562 116.143 5.96283C115.076 8.38612 114.033 10.7464 112.983 13.1277C115.107 13.1277 117.189 13.1277 119.305 13.1277Z" fill="black"/>
<path id="Vector_3" d="M48.6424 0.003479C48.6424 2.34803 48.6424 4.69258 48.6424 7.06512C48.2855 7.06512 47.9425 7.07212 47.6031 7.05813C47.5366 7.05463 47.4649 6.97589 47.4124 6.9164C46.1054 5.42919 44.4957 4.41438 42.5623 4.00846C39.6631 3.39958 37.1804 4.20442 35.1805 6.4055C32.5997 9.2452 32.3915 13.5406 34.7378 16.5413C36.5522 18.8614 38.979 19.8814 41.9185 19.6732C42.963 19.5997 43.8991 19.1973 44.8036 18.6986C46.0634 18.004 47.2777 17.2412 48.394 16.3278C48.4622 16.2719 48.5374 16.2229 48.6424 16.1441C48.6424 16.2404 48.6424 16.2981 48.6424 16.3558C48.6424 17.5404 48.6459 18.7249 48.6354 19.9094C48.6354 20.0126 48.5742 20.1474 48.4954 20.2121C46.7283 21.6836 44.7127 22.6196 42.4276 22.9206C39.4969 23.3055 36.8024 22.6249 34.3791 20.9575C31.8106 19.1903 30.2832 16.7268 29.711 13.6719C29.3716 11.8592 29.5711 10.0763 30.1257 8.33538C31.039 5.46243 32.8622 3.32609 35.5042 1.88962C36.8129 1.1775 38.2127 0.705096 39.6964 0.57912C41.8835 0.391906 43.9953 0.710344 45.9654 1.74265C46.0267 1.77414 46.0879 1.80388 46.1789 1.85112C46.6268 1.31748 46.8193 0.677099 46.9435 0.00872778C47.5104 0.00347879 48.0755 0.003479 48.6424 0.003479Z" fill="black"/>
<path id="Vector_4" d="M0 33.8455C1.92813 33.8455 3.85451 33.8472 5.78264 33.8455C6.78345 33.8455 7.65828 34.1342 8.34765 34.8988C9.03526 35.6599 9.14899 36.5714 9.05976 37.5338C8.97403 38.4593 8.5996 39.2379 7.8105 39.7751C7.2611 40.1495 6.63298 40.2842 5.9856 40.3052C5.03903 40.3367 4.08896 40.3367 3.1424 40.3507C3.05316 40.3525 2.96218 40.3507 2.8572 40.3507C2.8572 41.9447 2.8572 43.5176 2.8572 45.1063C2.31131 45.1063 1.78116 45.1063 1.22127 45.1063C1.22127 45.0083 1.22127 44.9121 1.22127 44.8159C1.22127 42.0041 1.22127 39.1907 1.21952 36.379C1.21952 36.1428 1.19502 35.9048 1.19677 35.6686C1.20202 35.072 0.806595 34.7728 0.337685 34.6678C0.227456 34.6433 0.111978 34.6381 0 34.6241C0 34.3651 0 34.1062 0 33.8455ZM2.8502 38.727C3.914 38.727 4.9533 38.755 5.9891 38.7183C6.71871 38.692 7.13338 38.2949 7.3066 37.5705C7.5533 36.5434 7.20862 35.5199 5.80713 35.4901C4.88331 35.4709 3.95774 35.4587 3.03392 35.4447C2.97443 35.4429 2.91669 35.4517 2.84845 35.4552C2.8502 36.5504 2.8502 37.6317 2.8502 38.727Z" fill="black"/>
<path id="Vector_5" d="M98.9347 22.9783C97.7694 22.9783 96.6444 22.9608 95.5211 22.9888C95.1659 22.9976 94.9927 22.8821 94.8247 22.5759C93.194 19.605 91.5423 16.6445 89.9046 13.6789C89.8189 13.5231 89.7262 13.4706 89.5512 13.4706C88.2967 13.4794 87.0439 13.4741 85.7894 13.4741C85.7142 13.4741 85.639 13.4741 85.541 13.4741C85.541 16.6603 85.541 19.8272 85.541 23.0081C84.3757 23.0081 83.2314 23.0081 82.0522 23.0081C82.0522 22.9328 82.0522 22.8523 82.0522 22.7719C82.0364 16.4906 82.0172 10.211 82.0137 3.92973C82.0137 3.35059 81.7757 2.93416 81.3435 2.59823C80.8834 2.23955 80.341 2.09258 79.7723 2.02084C79.6516 2.0051 79.5309 1.98935 79.3892 1.9701C79.4242 1.4697 79.4609 0.978042 79.4976 0.461891C79.5939 0.461891 79.6761 0.461891 79.7566 0.461891C84.0923 0.461891 88.4279 0.454892 92.7636 0.46714C93.5457 0.468889 94.2753 0.752334 94.9839 1.06202C96.3259 1.64816 97.4124 2.52474 98.0773 3.86149C98.6057 4.92528 98.7125 6.06781 98.6827 7.22959C98.6582 8.12892 98.4867 9.002 98.1491 9.84009C97.5314 11.378 96.3941 12.3211 94.809 12.7445C94.4118 12.8513 94.0094 12.9387 93.5824 13.0437C95.3618 16.3471 97.136 19.6417 98.9347 22.9783ZM85.52 10.2145C85.5585 10.2215 85.5795 10.2303 85.6022 10.2303C87.7875 10.225 89.9746 10.2233 92.16 10.211C92.7041 10.2075 93.2185 10.0728 93.6717 9.7561C94.3663 9.2732 94.7407 8.57683 94.9647 7.78773C95.4091 6.22003 94.7442 4.76957 93.2762 4.07845C92.6814 3.7985 92.0427 3.73201 91.4006 3.72152C89.5057 3.69177 87.6108 3.67427 85.716 3.65328C85.6565 3.65328 85.5952 3.66028 85.5217 3.66553C85.52 5.85086 85.52 8.02394 85.52 10.2145Z" fill="black"/>
<path id="Vector_6" d="M109.814 39.6772C110.682 41.3254 111.539 42.9578 112.418 44.627C112.3 44.634 112.222 44.6427 112.143 44.6427C111.685 44.6445 111.224 44.634 110.766 44.648C110.584 44.6532 110.497 44.585 110.414 44.4328C109.636 42.9788 108.847 41.5318 108.066 40.0796C107.991 39.9396 107.909 39.8889 107.75 39.8906C107.139 39.8994 106.527 39.8941 105.888 39.8941C105.888 41.4846 105.888 43.0628 105.888 44.6532C105.314 44.6532 104.766 44.6532 104.18 44.6532C104.18 44.5605 104.18 44.4643 104.18 44.368C104.175 41.3411 104.17 38.3159 104.165 35.289C104.163 34.6749 103.904 34.3477 103.304 34.2095C103.171 34.1797 103.036 34.1605 102.884 34.1325C102.901 33.8893 102.919 33.6548 102.938 33.3854C103.027 33.3854 103.116 33.3854 103.204 33.3854C105.239 33.3854 107.272 33.3854 109.307 33.3854C110.836 33.3854 112.211 34.6714 112.283 36.1936C112.302 36.61 112.292 37.0387 112.22 37.4481C112.008 38.6554 111.286 39.385 110.073 39.6177C109.993 39.6352 109.912 39.6562 109.814 39.6772ZM105.884 34.9618C105.884 36.0956 105.884 37.1734 105.884 38.2529C105.921 38.2634 105.942 38.2739 105.965 38.2739C107.065 38.2669 108.166 38.2704 109.265 38.2407C109.471 38.2354 109.699 38.1322 109.874 38.0132C110.393 37.6616 110.665 36.834 110.502 36.1901C110.346 35.569 109.825 35.0931 109.132 35.0546C108.058 34.9916 106.98 34.9898 105.884 34.9618Z" fill="black"/>
<path id="Vector_7" d="M142.783 44.6602C142.195 44.6602 141.655 44.6602 141.077 44.6602C141.077 44.5587 141.077 44.4625 141.077 44.3662C141.072 41.3393 141.067 38.3141 141.062 35.2872C141.06 34.6731 140.799 34.3459 140.199 34.2094C140.066 34.1797 139.931 34.1604 139.781 34.1324C139.798 33.8892 139.816 33.6548 139.835 33.3871C139.926 33.3871 140.013 33.3871 140.103 33.3871C142.138 33.3871 144.171 33.3871 146.206 33.3871C147.724 33.3871 149.099 34.6626 149.18 36.1743C149.203 36.5977 149.19 37.0334 149.117 37.4516C148.905 38.6588 148.183 39.3884 146.97 39.6194C146.89 39.6351 146.809 39.6561 146.711 39.6771C147.579 41.3271 148.438 42.9595 149.315 44.6269C149.196 44.6339 149.117 44.6409 149.038 44.6427C148.594 44.6444 148.151 44.6339 147.708 44.6479C147.509 44.6549 147.399 44.5954 147.301 44.4117C146.533 42.97 145.747 41.537 144.976 40.0971C144.892 39.9396 144.801 39.8853 144.624 39.8888C144.02 39.9011 143.417 39.8941 142.787 39.8941C142.783 41.4863 142.783 43.0627 142.783 44.6602ZM142.773 38.2511C142.82 38.2634 142.841 38.2721 142.864 38.2721C143.955 38.2651 145.049 38.2687 146.141 38.2389C146.349 38.2337 146.576 38.1374 146.753 38.0219C147.289 37.672 147.567 36.8164 147.392 36.162C147.226 35.5427 146.673 35.0738 145.978 35.0458C144.934 35.002 143.885 35.0055 142.839 34.988C142.82 34.988 142.799 35.0038 142.773 35.0143C142.773 36.0921 142.773 37.1681 142.773 38.2511Z" fill="black"/>
<path id="Vector_8" d="M87.6058 36.8426C86.9707 36.8426 86.36 36.8426 85.7389 36.8426C85.7056 36.7184 85.6812 36.5907 85.6374 36.4735C85.4957 36.0973 85.2367 35.8138 84.8623 35.6739C83.851 35.2942 82.8449 35.2697 81.8809 35.8226C81.4452 36.0728 81.1233 36.4175 81.1198 36.9651C81.1163 37.3133 81.244 37.6265 81.5502 37.7717C81.9929 37.9834 82.4653 38.1426 82.9359 38.2896C83.9035 38.5906 84.8886 38.8425 85.8474 39.1662C86.3898 39.3499 86.8849 39.6544 87.2401 40.1338C87.933 41.0698 87.8997 42.5763 87.1649 43.5474C86.7239 44.13 86.1606 44.5377 85.4642 44.7739C84.1222 45.2288 82.7855 45.248 81.4435 44.7704C80.2834 44.3574 79.5451 43.5544 79.2109 42.3768C79.1409 42.1284 79.0867 41.8747 79.0237 41.6087C79.0797 41.6 79.1217 41.586 79.1637 41.586C79.6763 41.5842 80.189 41.5807 80.6999 41.5895C80.7646 41.5912 80.8801 41.6455 80.8871 41.691C81.097 42.7863 81.8721 43.2044 82.8677 43.3619C83.739 43.5001 84.5754 43.4319 85.3312 42.9227C85.9856 42.4818 86.1308 41.691 85.6304 41.1486C85.4887 40.9946 85.277 40.8756 85.074 40.8161C83.9402 40.4802 82.7959 40.1775 81.6622 39.8398C81.1355 39.6823 80.6194 39.4829 80.1995 39.1067C78.791 37.847 79.0044 35.5549 80.6194 34.5628C81.3332 34.1237 82.1153 33.9155 82.9429 33.8647C83.9455 33.8017 84.9323 33.863 85.8456 34.3424C86.8499 34.8673 87.4448 35.6844 87.6058 36.8426Z" fill="black"/>
<path id="Vector_9" d="M34.6995 41.586C35.2891 41.586 35.8525 41.5825 36.4176 41.5913C36.4684 41.5913 36.5524 41.649 36.5611 41.6928C36.7693 42.7863 37.5444 43.2062 38.5417 43.3637C39.4131 43.5019 40.2494 43.4337 41.0053 42.9228C41.6596 42.4818 41.8031 41.691 41.3027 41.1486C41.161 40.9946 40.9475 40.8774 40.7463 40.8179C39.6125 40.482 38.4682 40.1775 37.3345 39.8416C36.8148 39.6876 36.3057 39.4899 35.8892 39.1225C34.4633 37.8697 34.6715 35.5602 36.2952 34.5629C37.009 34.1255 37.7911 33.9155 38.6187 33.8648C39.6213 33.8035 40.6046 33.8683 41.5214 34.3424C42.5205 34.8603 43.1941 35.8139 43.2623 36.8357C42.6482 36.8357 42.0341 36.8357 41.4007 36.8357C41.3167 36.2146 40.951 35.8104 40.3649 35.6004C40.2074 35.5444 40.0429 35.5024 39.8767 35.4762C39.0649 35.3485 38.274 35.38 37.5497 35.8226C37.1367 36.0763 36.8148 36.3983 36.7921 36.9232C36.7763 37.2976 36.9075 37.63 37.2417 37.7875C37.6791 37.994 38.1446 38.1479 38.6082 38.2914C39.5758 38.5923 40.5591 38.8443 41.5179 39.168C42.0603 39.3517 42.5555 39.6561 42.9106 40.1355C43.6035 41.0734 43.5703 42.5781 42.8336 43.5491C42.3927 44.1318 41.8293 44.5395 41.133 44.7757C39.791 45.2306 38.4542 45.2498 37.1123 44.7704C35.9522 44.3575 35.2174 43.5544 34.8797 42.3769C34.8289 42.2001 34.7887 42.0217 34.7467 41.8432C34.7292 41.7715 34.7205 41.6962 34.6995 41.586Z" fill="black"/>
<path id="Vector_10" d="M135.917 43.124C135.917 43.6541 135.917 44.1423 135.917 44.6497C133.466 44.6497 131.018 44.6497 128.539 44.6497C128.539 44.5622 128.539 44.4729 128.539 44.3837C128.539 41.4338 128.534 38.4856 128.542 35.5357C128.544 34.8638 128.348 34.5593 127.612 34.3144C127.225 34.1849 127.22 34.1989 127.211 33.7912C127.209 33.6688 127.211 33.5463 127.211 33.4063C130.105 33.4063 132.999 33.4063 135.907 33.4063C135.907 33.9225 135.907 34.4456 135.907 35.0038C134.066 35.0038 132.222 35.0038 130.367 35.0038C130.367 36.0815 130.367 37.1261 130.367 38.1986C132.014 38.1986 133.653 38.1986 135.305 38.1986C135.305 38.7183 135.305 39.2134 135.305 39.7383C133.667 39.7383 132.03 39.7383 130.374 39.7383C130.374 40.8791 130.374 41.9884 130.374 43.1257C132.219 43.124 134.057 43.124 135.917 43.124Z" fill="black"/>
<path id="Vector_11" d="M123.694 34.4562C123.673 34.255 123.654 34.0677 123.633 33.863C123.923 33.863 124.216 33.863 124.525 33.863C124.525 35.0738 124.525 36.2898 124.525 37.5548C124.377 37.3799 124.252 37.2294 124.125 37.0842C123.26 36.0921 122.188 35.576 120.854 35.6284C119.042 35.7002 117.42 37.2189 117.24 39.0245C117.037 41.0577 118.242 42.7863 120.216 43.2657C121.117 43.4844 121.992 43.3707 122.825 42.9578C122.889 42.9263 122.973 42.8476 122.975 42.7898C122.986 42.1582 122.982 41.5248 122.982 40.8704C122.487 40.8704 122.009 40.8704 121.474 40.8704C121.584 40.7165 121.665 40.601 121.745 40.489C121.992 40.1478 122.237 39.8066 122.489 39.4707C122.531 39.4147 122.601 39.343 122.658 39.343C123.269 39.3342 123.88 39.3377 124.518 39.3377C124.518 39.4305 124.518 39.5057 124.518 39.5792C124.511 40.9474 124.501 42.3157 124.499 43.6821C124.499 43.8694 124.438 44.0058 124.284 44.1073C123.222 44.8124 122.071 45.1799 120.781 45.1239C118.074 45.0066 115.761 42.8353 115.495 40.1408C115.214 37.2889 116.879 34.8166 119.605 34.073C120.895 33.7213 122.163 33.821 123.39 34.3652C123.46 34.3967 123.53 34.4264 123.6 34.4562C123.615 34.4614 123.631 34.4562 123.694 34.4562Z" fill="black"/>
<path id="Vector_12" d="M97.6679 33.87C98.2506 33.87 98.807 33.87 99.3756 33.87C99.3808 33.898 99.3931 33.9417 99.3931 33.9855C99.3808 36.3703 99.3861 38.7533 99.3458 41.1381C99.3109 43.1747 97.7274 44.8544 95.6961 45.0836C94.4993 45.2183 93.376 45.0223 92.3839 44.3085C91.3709 43.5789 90.776 42.5728 90.7305 41.3288C90.6693 39.6649 90.6763 37.9975 90.699 36.3335C90.713 35.338 90.4698 35.0038 89.5075 34.7798C89.4777 34.7728 89.448 34.7623 89.406 34.7501C89.406 34.4754 89.406 34.1972 89.406 33.9067C90.4348 33.9067 91.4566 33.9067 92.5012 33.9067C92.5047 33.9785 92.5117 34.052 92.5117 34.1254C92.5274 36.295 92.5327 38.4664 92.5641 40.6359C92.5694 41.0349 92.6324 41.446 92.7479 41.8275C93.1031 43.0102 94.1319 43.6524 95.3601 43.5001C96.7091 43.3322 97.6294 42.3751 97.6487 41.0121C97.6819 38.7358 97.6644 36.4578 97.6679 34.1814C97.6679 34.0817 97.6679 33.9855 97.6679 33.87Z" fill="black"/>
<path id="Vector_13" d="M32.1029 45.1168C31.522 45.1168 30.9586 45.1168 30.39 45.1168C29.9263 44.06 29.4592 43.0067 29.0025 41.9482C28.936 41.796 28.859 41.733 28.6858 41.7347C27.3631 41.7435 26.0403 41.7417 24.7176 41.7347C24.5619 41.7347 24.4901 41.7837 24.4306 41.9237C23.9985 42.9245 23.5541 43.9218 23.1219 44.9244C23.0554 45.0801 22.9749 45.1361 22.8017 45.1326C22.3136 45.1186 21.8236 45.1273 21.3022 45.1273C21.339 45.0329 21.3652 44.9576 21.3967 44.8841C22.7475 41.7767 24.0982 38.6711 25.4489 35.5654C25.6694 35.0598 25.6082 34.9163 25.0833 34.7361C24.9555 34.6923 24.8173 34.6748 24.6668 34.6416C24.6668 34.3931 24.6668 34.1359 24.6668 33.8595C24.7386 33.856 24.8121 33.8473 24.8856 33.8473C25.5889 33.8455 26.2923 33.8507 26.9957 33.8437C27.1444 33.842 27.2231 33.8787 27.2861 34.024C28.866 37.6633 30.4512 41.2991 32.0364 44.9366C32.0609 44.9891 32.0784 45.0469 32.1029 45.1168ZM26.707 36.7674C26.1803 37.9625 25.6782 39.1015 25.1655 40.2668C26.2048 40.2668 27.2091 40.2668 28.2502 40.2668C27.7358 39.1015 27.2336 37.9625 26.707 36.7674Z" fill="black"/>
<path id="Vector_14" d="M72.0373 33.8542C72.0373 35.0143 72.0373 36.1428 72.0373 37.2906C71.7573 37.3151 71.5369 37.3221 71.3024 37.0771C70.3016 36.0326 69.0821 35.4797 67.6246 35.8016C66.0079 36.1585 65.0894 37.2643 64.7394 38.8373C64.3458 40.6009 65.2888 42.4416 66.937 43.166C67.9833 43.6244 69.0471 43.6751 70.0654 43.082C70.7373 42.6918 71.3794 42.2526 72.0355 41.8362C72.0373 41.8485 72.0478 41.9044 72.0478 41.9587C72.0495 42.4783 72.0548 42.998 72.0425 43.5176C72.0408 43.6104 71.9953 43.7311 71.9271 43.7871C68.7199 46.5008 63.8996 44.8421 63.0738 40.7199C62.4876 37.7945 64.2758 34.6171 67.7314 34.1394C68.7462 33.9995 69.747 34.1674 70.6691 34.6521C70.8545 34.7483 70.949 34.7186 71.0172 34.5401C71.0872 34.3546 71.145 34.1657 71.2219 33.9837C71.2447 33.9295 71.3129 33.8612 71.3654 33.856C71.5404 33.8402 71.7171 33.849 71.8921 33.8507C71.9358 33.8455 71.9796 33.8507 72.0373 33.8542Z" fill="black"/>
<path id="Vector_15" d="M151.535 34.2882C151.535 33.9872 151.535 33.6985 151.535 33.3871C151.664 33.3871 151.785 33.3871 151.904 33.3871C152.646 33.3871 153.388 33.3941 154.128 33.3819C154.334 33.3784 154.452 33.4361 154.555 33.6251C155.157 34.7133 155.776 35.7929 156.388 36.8759C156.422 36.9354 156.458 36.9932 156.513 37.0859C156.567 37.0019 156.612 36.9389 156.653 36.8724C157.312 35.7719 157.974 34.6731 158.626 33.5691C158.707 33.4326 158.791 33.3819 158.948 33.3836C159.484 33.3941 160.017 33.3871 160.596 33.3871C160.546 33.4798 160.511 33.5481 160.47 33.6146C159.407 35.3712 158.341 37.1261 157.284 38.8863C157.207 39.014 157.164 39.1837 157.162 39.3342C157.153 41.0156 157.157 42.6953 157.157 44.3767C157.157 44.466 157.157 44.5552 157.157 44.6567C156.56 44.6567 155.99 44.6567 155.384 44.6567C155.384 44.5692 155.384 44.48 155.384 44.3925C155.384 42.6813 155.386 40.9701 155.379 39.259C155.379 39.1225 155.339 38.9703 155.27 38.8531C154.518 37.5513 153.753 36.2566 152.999 34.9566C152.884 34.7571 152.726 34.6364 152.511 34.5734C152.191 34.4789 151.869 34.3862 151.535 34.2882Z" fill="black"/>
<path id="Vector_16" d="M53.4034 33.8613C53.4034 34.3932 53.4034 34.9093 53.4034 35.4482C52.3344 35.4482 51.2758 35.4482 50.198 35.4482C50.198 38.6763 50.198 41.8817 50.198 45.1064C49.5664 45.1064 48.9523 45.1064 48.3084 45.1064C48.3084 41.901 48.3084 38.6903 48.3084 35.4535C47.2464 35.4535 46.2106 35.4535 45.166 35.4535C45.166 34.9111 45.166 34.3949 45.166 33.8613C47.906 33.8613 50.646 33.8613 53.4034 33.8613Z" fill="black"/>
<path id="Vector_17" d="M12.5818 45.1098C12.5818 45.0101 12.5818 44.9209 12.5818 44.8299C12.5818 41.9639 12.5818 39.0997 12.5818 36.2338C12.5818 36.1341 12.5818 36.0343 12.5818 35.9363C12.5731 35.3222 12.3561 35.0335 11.7683 34.8498C11.616 34.8026 11.3921 34.8043 11.3273 34.7046C11.2469 34.5786 11.2941 34.3686 11.2888 34.1937C11.2853 34.0974 11.2888 33.9995 11.2888 33.8752C12.3421 33.8752 13.3709 33.8752 14.426 33.8752C14.426 37.0806 14.426 40.293 14.426 43.5351C15.9919 43.5351 17.5316 43.5351 19.0801 43.5351C19.0801 44.074 19.0801 44.5832 19.0801 45.1098C16.9263 45.1098 14.7724 45.1098 12.5818 45.1098Z" fill="black"/>
<path id="Vector_18" d="M59.4606 33.863C59.4606 37.6213 59.4606 41.3621 59.4606 45.1151C58.8727 45.1151 58.2954 45.1151 57.6865 45.1151C57.6865 45.0224 57.6865 44.9332 57.6865 44.8439C57.6865 41.9255 57.6742 39.007 57.6935 36.0886C57.7005 35.1928 57.3488 34.8848 56.6314 34.7099C56.5719 34.6959 56.516 34.6749 56.4495 34.6556C56.4495 34.3949 56.4495 34.1377 56.4495 33.863C57.4503 33.863 58.4476 33.863 59.4606 33.863Z" fill="black"/>
</g>
</svg>
