<svg width="198" height="57" viewBox="0 0 198 57" fill="none" xmlns="http://www.w3.org/2000/svg">
<g id="logo(white)">
<path id="Vector" d="M81.2993 0.748514C82.6928 3.93897 84.0885 7.12726 85.4798 10.3177C88.1698 16.4829 90.8598 22.6481 93.5498 28.8133C93.5908 28.906 93.6253 29.0009 93.6749 29.1304C93.5541 29.1304 93.4635 29.1304 93.3729 29.1304C92.1196 29.1304 90.8641 29.1239 89.6108 29.1368C89.3951 29.139 89.3023 29.0635 89.2204 28.8737C88.0555 26.2096 86.882 23.5498 85.7193 20.8857C85.6308 20.6829 85.5359 20.6074 85.3073 20.6074C81.8191 20.616 78.3288 20.616 74.8407 20.6074C74.6056 20.6074 74.4955 20.6807 74.4028 20.8921C73.2401 23.5563 72.0644 26.216 70.8995 28.878C70.8219 29.0527 70.7421 29.1347 70.5328 29.1325C69.2515 29.1196 67.968 29.1261 66.6866 29.1261C66.6133 29.1261 66.5377 29.1261 66.4277 29.1261C66.4773 29.0053 66.5119 28.9103 66.5528 28.8176C70.0324 20.821 73.514 12.8265 76.9892 4.82772C77.0777 4.62279 77.1316 4.4006 77.1747 4.18057C77.2567 3.76208 77.1769 3.62402 76.8102 3.39104C76.2342 3.02864 75.6173 2.79351 74.9076 2.78704C74.9076 2.09243 74.9076 1.4194 74.9076 0.744202C77.0388 0.748516 79.1701 0.748514 81.2993 0.748514ZM76.1609 16.9251C78.7818 16.9251 81.3489 16.9251 83.9504 16.9251C82.6518 13.9827 81.3683 11.0727 80.0546 8.09583C78.7409 11.0749 77.4573 13.9849 76.1609 16.9251Z" fill="white"/>
<path id="Vector_2" d="M144.44 0.748474C145.904 4.10071 147.371 7.45511 148.836 10.8073C151.459 16.8172 154.082 22.8271 156.703 28.837C156.74 28.9211 156.77 29.0095 156.815 29.1282C156.697 29.1282 156.606 29.1282 156.515 29.1282C155.262 29.1282 154.007 29.1217 152.753 29.1347C152.538 29.1368 152.445 29.0613 152.363 28.8736C151.198 26.2095 150.025 23.5497 148.862 20.8856C148.773 20.685 148.678 20.6074 148.45 20.6074C144.962 20.616 141.471 20.616 137.983 20.6074C137.75 20.6074 137.638 20.6786 137.545 20.8921C136.383 23.5562 135.207 26.216 134.044 28.8801C133.958 29.0764 133.857 29.1368 133.647 29.1347C132.383 29.1239 131.121 29.1303 129.857 29.1303C129.773 29.1303 129.689 29.1303 129.57 29.1303C129.62 29.0095 129.654 28.9146 129.695 28.8219C133.171 20.8339 136.648 12.8459 140.121 4.85788C140.214 4.64432 140.272 4.4135 140.317 4.18484C140.399 3.76635 140.319 3.62829 139.953 3.39532C139.377 3.03076 138.758 2.8021 138.05 2.78915C138.05 2.09886 138.05 1.42367 138.05 0.748474C140.179 0.748474 142.308 0.748474 144.44 0.748474ZM147.091 16.9294C145.792 13.9849 144.507 11.0705 143.193 8.09579C141.877 11.0835 140.591 13.9935 139.297 16.9294C141.916 16.9294 144.483 16.9294 147.091 16.9294Z" fill="white"/>
<path id="Vector_3" d="M59.9715 0.748474C59.9715 3.63908 59.9715 6.52968 59.9715 9.4548C59.5314 9.4548 59.1086 9.46343 58.6902 9.44618C58.6082 9.44186 58.5197 9.34479 58.455 9.27145C56.8436 7.43785 54.859 6.1867 52.4754 5.68623C48.9009 4.93554 45.8399 5.92783 43.3743 8.64155C40.1924 12.1426 39.9357 17.4385 42.8285 21.138C45.0655 23.9984 48.0575 25.2561 51.6815 24.9994C52.9693 24.9088 54.1234 24.4126 55.2387 23.7978C56.7918 22.9414 58.2889 22.0009 59.6652 20.8748C59.7493 20.8058 59.8421 20.7454 59.9715 20.6483C59.9715 20.767 59.9715 20.8382 59.9715 20.9094C59.9715 22.3698 59.9758 23.8302 59.9629 25.2906C59.9629 25.4178 59.8874 25.5839 59.7903 25.6638C57.6116 27.4779 55.1265 28.632 52.3092 29.0031C48.696 29.4776 45.3739 28.6385 42.3863 26.5827C39.2195 24.404 37.3363 21.3667 36.6309 17.6003C36.2125 15.3654 36.4584 13.1673 37.1422 11.0209C38.2682 7.47884 40.516 4.84494 43.7733 3.0739C45.3869 2.19593 47.1126 1.6135 48.9419 1.45818C51.6384 1.22737 54.2421 1.61997 56.671 2.8927C56.7465 2.93153 56.822 2.9682 56.9342 3.02644C57.4864 2.36851 57.7237 1.57898 57.8769 0.754945C58.5758 0.748474 59.2726 0.748474 59.9715 0.748474Z" fill="white"/>
<path id="Vector_4" d="M0 42.4724C2.3772 42.4724 4.75224 42.4746 7.12944 42.4724C8.36334 42.4724 9.44192 42.8283 10.2918 43.771C11.1396 44.7094 11.2798 45.8333 11.1698 47.0197C11.0641 48.1609 10.6025 49.1208 9.6296 49.7831C8.95225 50.2447 8.17782 50.4108 7.37967 50.4367C6.21264 50.4755 5.0413 50.4755 3.87427 50.4928C3.76426 50.4949 3.65209 50.4928 3.52266 50.4928C3.52266 52.4579 3.52266 54.3972 3.52266 56.356C2.84962 56.356 2.196 56.356 1.5057 56.356C1.5057 56.2352 1.5057 56.1165 1.5057 55.9979C1.5057 52.5313 1.5057 49.0626 1.50355 45.596C1.50355 45.3048 1.47335 45.0114 1.4755 44.7202C1.48198 43.9846 0.994454 43.6157 0.416333 43.4863C0.280432 43.4561 0.138059 43.4496 0 43.4324C0 43.1131 0 42.7938 0 42.4724ZM3.51403 48.4909C4.82558 48.4909 6.10694 48.5254 7.38399 48.4801C8.28353 48.4478 8.79478 47.9581 9.00833 47.065C9.3125 45.7988 8.88753 44.5368 7.15964 44.5002C6.02066 44.4764 4.87951 44.4613 3.74053 44.4441C3.66719 44.4419 3.596 44.4527 3.51187 44.457C3.51403 45.8074 3.51403 47.1405 3.51403 48.4909Z" fill="white"/>
<path id="Vector_5" d="M121.977 29.0743C120.54 29.0743 119.153 29.0527 117.768 29.0872C117.331 29.098 117.117 28.9556 116.91 28.5781C114.899 24.9152 112.863 21.2653 110.844 17.6089C110.738 17.4169 110.624 17.3522 110.408 17.3522C108.862 17.363 107.317 17.3565 105.77 17.3565C105.678 17.3565 105.585 17.3565 105.464 17.3565C105.464 21.2847 105.464 25.1892 105.464 29.1109C104.027 29.1109 102.617 29.1109 101.163 29.1109C101.163 29.0182 101.163 28.919 101.163 28.8197C101.143 21.0755 101.119 13.3334 101.115 5.58918C101.115 4.87516 100.822 4.36175 100.289 3.94757C99.7216 3.50535 99.0529 3.32415 98.3518 3.23571C98.203 3.2163 98.0541 3.19688 97.8794 3.17315C97.9225 2.5562 97.9678 1.95004 98.0131 1.31367C98.1318 1.31367 98.2332 1.31367 98.3324 1.31367C103.678 1.31367 109.023 1.30504 114.369 1.32014C115.333 1.3223 116.233 1.67176 117.106 2.05358C118.761 2.77623 120.1 3.85697 120.92 5.50505C121.572 6.81661 121.703 8.22524 121.666 9.6576C121.636 10.7664 121.425 11.8428 121.009 12.8761C120.247 14.7722 118.845 15.935 116.891 16.457C116.401 16.5886 115.905 16.6964 115.378 16.8259C117.572 20.8986 119.76 24.9606 121.977 29.0743ZM105.438 13.3377C105.486 13.3464 105.511 13.3571 105.54 13.3571C108.234 13.3507 110.93 13.3485 113.625 13.3334C114.295 13.3291 114.93 13.163 115.488 12.7725C116.345 12.1772 116.806 11.3186 117.083 10.3457C117.63 8.41291 116.811 6.62462 115.001 5.77254C114.267 5.4274 113.48 5.34542 112.688 5.33248C110.352 5.29581 108.016 5.27423 105.68 5.24835C105.606 5.24835 105.531 5.25698 105.44 5.26345C105.438 7.95775 105.438 10.637 105.438 13.3377Z" fill="white"/>
<path id="Vector_6" d="M135.39 49.6623C136.46 51.6944 137.517 53.707 138.6 55.765C138.456 55.7736 138.359 55.7844 138.262 55.7844C137.696 55.7865 137.129 55.7736 136.564 55.7908C136.34 55.7973 136.232 55.7132 136.13 55.5255C135.17 53.7329 134.198 51.9489 133.235 50.1585C133.143 49.9859 133.041 49.9233 132.845 49.9255C132.092 49.9363 131.337 49.9298 130.55 49.9298C130.55 51.8907 130.55 53.8365 130.55 55.7973C129.842 55.7973 129.167 55.7973 128.444 55.7973C128.444 55.683 128.444 55.5643 128.444 55.4457C128.438 51.7138 128.431 47.9841 128.425 44.2522C128.423 43.495 128.104 43.0916 127.364 42.9212C127.2 42.8845 127.034 42.8608 126.846 42.8263C126.868 42.5264 126.889 42.2374 126.913 41.9052C127.023 41.9052 127.133 41.9052 127.241 41.9052C129.749 41.9052 132.256 41.9052 134.765 41.9052C136.65 41.9052 138.346 43.4907 138.434 45.3674C138.458 45.8808 138.445 46.4093 138.357 46.9141C138.096 48.4025 137.205 49.3021 135.71 49.589C135.611 49.6106 135.511 49.6364 135.39 49.6623ZM130.545 43.8488C130.545 45.2466 130.545 46.5754 130.545 47.9064C130.591 47.9193 130.617 47.9323 130.645 47.9323C132.002 47.9236 133.358 47.928 134.713 47.8913C134.968 47.8848 135.248 47.7576 135.464 47.6109C136.105 47.1773 136.439 46.1569 136.238 45.3631C136.046 44.5973 135.403 44.0106 134.549 43.9631C133.225 43.8854 131.896 43.8833 130.545 43.8488Z" fill="white"/>
<path id="Vector_7" d="M176.038 55.8059C175.313 55.8059 174.647 55.8059 173.935 55.8059C173.935 55.6808 173.935 55.5622 173.935 55.4435C173.928 51.7116 173.922 47.9819 173.915 44.25C173.913 43.4928 173.592 43.0894 172.852 42.9212C172.688 42.8845 172.522 42.8608 172.336 42.8262C172.358 42.5264 172.379 42.2373 172.403 41.9073C172.515 41.9073 172.623 41.9073 172.733 41.9073C175.242 41.9073 177.749 41.9073 180.257 41.9073C182.13 41.9073 183.825 43.4799 183.924 45.3437C183.953 45.8657 183.937 46.4028 183.847 46.9184C183.586 48.4068 182.695 49.3064 181.2 49.5911C181.101 49.6105 181.002 49.6364 180.881 49.6623C181.951 51.6965 183.01 53.7092 184.091 55.7649C183.944 55.7736 183.847 55.7822 183.75 55.7844C183.202 55.7865 182.656 55.7736 182.11 55.7908C181.864 55.7994 181.728 55.7261 181.608 55.4996C180.661 53.7221 179.692 51.9554 178.741 50.18C178.637 49.9859 178.525 49.919 178.307 49.9233C177.563 49.9384 176.819 49.9298 176.042 49.9298C176.038 51.8928 176.038 53.8364 176.038 55.8059ZM176.025 47.9042C176.083 47.9193 176.109 47.9301 176.137 47.9301C177.483 47.9215 178.831 47.9258 180.177 47.8891C180.434 47.8827 180.715 47.764 180.932 47.6216C181.593 47.1902 181.936 46.1353 181.72 45.3286C181.515 44.5649 180.833 43.9868 179.977 43.9523C178.689 43.8984 177.397 43.9027 176.107 43.8811C176.083 43.8811 176.057 43.9005 176.025 43.9135C176.025 45.2423 176.025 46.5689 176.025 47.9042Z" fill="white"/>
<path id="Vector_8" d="M108.01 46.1676C107.227 46.1676 106.474 46.1676 105.708 46.1676C105.667 46.0145 105.637 45.857 105.583 45.7125C105.408 45.2487 105.089 44.8992 104.627 44.7267C103.38 44.2586 102.14 44.2283 100.951 44.91C100.414 45.2185 100.017 45.6435 100.013 46.3186C100.009 46.7479 100.166 47.1341 100.544 47.3131C101.089 47.5741 101.672 47.7704 102.252 47.9516C103.445 48.3227 104.66 48.6333 105.842 49.0324C106.51 49.2589 107.121 49.6342 107.559 50.2253C108.413 51.3794 108.372 53.2367 107.466 54.4339C106.922 55.1523 106.228 55.6549 105.369 55.9461C103.715 56.507 102.067 56.5307 100.412 55.9418C98.9819 55.4327 98.0715 54.4425 97.6595 52.9908C97.5732 52.6845 97.5064 52.3717 97.4287 52.0438C97.4977 52.033 97.5495 52.0157 97.6013 52.0157C98.2333 52.0136 98.8654 52.0093 99.4953 52.02C99.5751 52.0222 99.7175 52.0891 99.7261 52.1452C99.9849 53.4955 100.941 54.0111 102.168 54.2053C103.242 54.3757 104.273 54.2915 105.205 53.6638C106.012 53.1202 106.191 52.1452 105.574 51.4764C105.399 51.2866 105.138 51.1399 104.888 51.0666C103.49 50.6524 102.08 50.2792 100.682 49.8629C100.032 49.6687 99.396 49.4228 98.8783 48.959C97.1418 47.4059 97.405 44.58 99.396 43.3569C100.276 42.8154 101.24 42.5587 102.261 42.4962C103.497 42.4185 104.713 42.494 105.84 43.0851C107.078 43.7322 107.811 44.7396 108.01 46.1676Z" fill="white"/>
<path id="Vector_9" d="M42.781 52.0158C43.508 52.0158 44.2026 52.0115 44.8993 52.0223C44.9619 52.0223 45.0654 52.0935 45.0762 52.1474C45.3329 53.4956 46.2886 54.0133 47.5181 54.2075C48.5924 54.3779 49.6235 54.2938 50.5554 53.6639C51.3622 53.1203 51.5391 52.1452 50.9222 51.4765C50.7474 51.2867 50.4843 51.1421 50.2362 51.0688C48.8383 50.6546 47.4275 50.2793 46.0297 49.8651C45.389 49.6753 44.7613 49.4315 44.2479 48.9785C42.4898 47.434 42.7465 44.5865 44.7483 43.3569C45.6285 42.8176 46.5927 42.5588 47.6131 42.4962C48.8491 42.4207 50.0614 42.5005 51.1918 43.0851C52.4235 43.7236 53.2541 44.8993 53.3382 46.1591C52.581 46.1591 51.8239 46.1591 51.043 46.1591C50.9394 45.3933 50.4886 44.895 49.7659 44.6361C49.5718 44.5671 49.369 44.5153 49.1641 44.483C48.1631 44.3255 47.1881 44.3643 46.295 44.9101C45.7859 45.2229 45.389 45.6198 45.361 46.2669C45.3416 46.7286 45.5034 47.1384 45.9154 47.3326C46.4547 47.5871 47.0285 47.777 47.6001 47.9539C48.793 48.3249 50.0054 48.6355 51.1875 49.0346C51.8562 49.2611 52.4667 49.6364 52.9046 50.2275C53.7588 51.3837 53.7178 53.2389 52.8097 54.4361C52.2661 55.1545 51.5715 55.6571 50.7129 55.9483C49.0584 56.5092 47.4103 56.5329 45.7557 55.9418C44.3255 55.4327 43.4195 54.4426 43.0032 52.9908C42.9406 52.773 42.891 52.5529 42.8392 52.3329C42.8177 52.2445 42.8069 52.1517 42.781 52.0158Z" fill="white"/>
<path id="Vector_10" d="M167.573 53.9119C167.573 54.5655 167.573 55.1674 167.573 55.7929C164.551 55.7929 161.533 55.7929 158.476 55.7929C158.476 55.6851 158.476 55.5751 158.476 55.4651C158.476 51.8281 158.47 48.1932 158.481 44.5563C158.483 43.7279 158.241 43.3525 157.333 43.0505C156.856 42.8909 156.85 42.9082 156.839 42.4055C156.837 42.2545 156.839 42.1035 156.839 41.931C160.407 41.931 163.975 41.931 167.56 41.931C167.56 42.5673 167.56 43.2123 167.56 43.9005C165.291 43.9005 163.017 43.9005 160.731 43.9005C160.731 45.2293 160.731 46.5171 160.731 47.8395C162.761 47.8395 164.782 47.8395 166.818 47.8395C166.818 48.4801 166.818 49.0906 166.818 49.7378C164.799 49.7378 162.78 49.7378 160.739 49.7378C160.739 51.1442 160.739 52.5119 160.739 53.914C163.013 53.9119 165.28 53.9119 167.573 53.9119Z" fill="white"/>
<path id="Vector_11" d="M152.503 43.2253C152.477 42.9773 152.454 42.7465 152.428 42.4941C152.786 42.4941 153.146 42.4941 153.528 42.4941C153.528 43.9868 153.528 45.4861 153.528 47.0457C153.345 46.83 153.191 46.6445 153.034 46.4654C151.968 45.2423 150.646 44.6059 149.002 44.6707C146.767 44.7591 144.768 46.6315 144.545 48.8577C144.295 51.3644 145.782 53.4956 148.215 54.0867C149.326 54.3563 150.404 54.2161 151.431 53.707C151.511 53.6682 151.615 53.5711 151.617 53.4999C151.63 52.7212 151.625 51.9403 151.625 51.1335C151.015 51.1335 150.426 51.1335 149.766 51.1335C149.902 50.9437 150.001 50.8013 150.1 50.6633C150.404 50.2426 150.706 49.822 151.017 49.4078C151.069 49.3388 151.155 49.2503 151.226 49.2503C151.979 49.2395 152.732 49.2439 153.519 49.2439C153.519 49.3582 153.519 49.4509 153.519 49.5415C153.511 51.2284 153.498 52.9154 153.496 54.6001C153.496 54.8309 153.42 54.9992 153.23 55.1243C151.921 55.9936 150.501 56.4466 148.912 56.3776C145.574 56.2331 142.723 53.556 142.395 50.234C142.047 46.7178 144.101 43.6697 147.462 42.7529C149.052 42.3193 150.616 42.4423 152.128 43.1132C152.214 43.152 152.301 43.1887 152.387 43.2253C152.406 43.2318 152.426 43.2253 152.503 43.2253Z" fill="white"/>
<path id="Vector_12" d="M120.415 42.5027C121.134 42.5027 121.82 42.5027 122.521 42.5027C122.527 42.5372 122.542 42.5911 122.542 42.6451C122.527 45.5853 122.534 48.5233 122.484 51.4636C122.441 53.9745 120.489 56.0454 117.984 56.328C116.509 56.4941 115.124 56.2525 113.901 55.3723C112.652 54.4728 111.918 53.2324 111.862 51.6987C111.787 49.6472 111.795 47.5914 111.823 45.54C111.841 44.3126 111.541 43.9005 110.354 43.6244C110.318 43.6158 110.281 43.6028 110.229 43.5877C110.229 43.2491 110.229 42.9061 110.229 42.548C111.498 42.548 112.757 42.548 114.045 42.548C114.05 42.6364 114.058 42.727 114.058 42.8176C114.078 45.4925 114.084 48.1696 114.123 50.8444C114.129 51.3363 114.207 51.8432 114.349 52.3135C114.787 53.7717 116.056 54.5634 117.57 54.3757C119.233 54.1686 120.368 52.9887 120.392 51.3082C120.433 48.5018 120.411 45.6931 120.415 42.8867C120.415 42.7637 120.415 42.6451 120.415 42.5027Z" fill="white"/>
<path id="Vector_13" d="M39.5796 56.3689C38.8634 56.3689 38.1688 56.3689 37.4678 56.3689C36.8961 55.066 36.3201 53.7674 35.7571 52.4623C35.6752 52.2746 35.5802 52.197 35.3667 52.1991C33.7359 52.2099 32.105 52.2078 30.4742 52.1991C30.2822 52.1991 30.1938 52.2595 30.1204 52.4321C29.5876 53.666 29.0397 54.8956 28.5069 56.1316C28.4249 56.3236 28.3257 56.3927 28.1121 56.3883C27.5103 56.3711 26.9063 56.3819 26.2634 56.3819C26.3087 56.2654 26.3411 56.1726 26.3799 56.082C28.0453 52.2509 29.7106 48.4219 31.3759 44.5929C31.6477 43.9695 31.5722 43.7926 30.9251 43.5705C30.7676 43.5165 30.5972 43.4949 30.4117 43.454C30.4117 43.1476 30.4117 42.8305 30.4117 42.4897C30.5001 42.4854 30.5907 42.4746 30.6813 42.4746C31.5485 42.4724 32.4157 42.4789 33.2829 42.4703C33.4662 42.4681 33.5633 42.5134 33.6409 42.6925C35.5889 47.1794 37.5433 51.662 39.4977 56.1467C39.5279 56.2115 39.5494 56.2826 39.5796 56.3689ZM32.9269 46.0749C32.2776 47.5483 31.6585 48.9526 31.0265 50.3893C32.3078 50.3893 33.546 50.3893 34.8295 50.3893C34.1953 48.9526 33.5762 47.5483 32.9269 46.0749Z" fill="white"/>
<path id="Vector_14" d="M88.8151 42.4832C88.8151 43.9134 88.8151 45.3048 88.8151 46.7199C88.4699 46.7501 88.1981 46.7588 87.9091 46.4568C86.6752 45.1689 85.1716 44.4872 83.3747 44.8842C81.3815 45.3242 80.249 46.6876 79.8175 48.6269C79.3322 50.8013 80.4949 53.0706 82.5269 53.9637C83.8169 54.5289 85.1285 54.5914 86.384 53.8602C87.2123 53.3791 88.004 52.8377 88.8129 52.3243C88.8151 52.3394 88.828 52.4084 88.828 52.4752C88.8302 53.1159 88.8366 53.7566 88.8216 54.3973C88.8194 54.5116 88.7633 54.6605 88.6792 54.7295C84.7251 58.0753 78.7821 56.0303 77.7639 50.948C77.0413 47.3412 79.2459 43.4238 83.5063 42.8349C84.7574 42.6623 85.9913 42.8694 87.1282 43.4669C87.3568 43.5856 87.4733 43.5489 87.5575 43.3289C87.6437 43.1002 87.7149 42.8672 87.8098 42.6429C87.8379 42.576 87.922 42.4919 87.9867 42.4854C88.2024 42.466 88.4203 42.4768 88.636 42.4789C88.69 42.4725 88.7439 42.4789 88.8151 42.4832Z" fill="white"/>
<path id="Vector_15" d="M186.828 43.0182C186.828 42.6472 186.828 42.2913 186.828 41.9073C186.988 41.9073 187.137 41.9073 187.283 41.9073C188.198 41.9073 189.113 41.9159 190.025 41.9008C190.28 41.8965 190.424 41.9677 190.551 42.2007C191.293 43.5424 192.057 44.8734 192.812 46.2087C192.853 46.282 192.898 46.3532 192.965 46.4675C193.032 46.364 193.088 46.2863 193.138 46.2044C193.951 44.8475 194.766 43.4928 195.571 42.1316C195.67 41.9634 195.774 41.9008 195.968 41.903C196.628 41.9159 197.286 41.9073 198 41.9073C197.938 42.0216 197.894 42.1057 197.845 42.1877C196.533 44.3535 195.22 46.5171 193.917 48.6873C193.822 48.8447 193.768 49.054 193.766 49.2395C193.755 51.3125 193.759 53.3834 193.759 55.4565C193.759 55.5665 193.759 55.6765 193.759 55.8016C193.024 55.8016 192.32 55.8016 191.574 55.8016C191.574 55.6937 191.574 55.5837 191.574 55.4759C191.574 53.3662 191.576 51.2564 191.567 49.1467C191.567 48.9785 191.518 48.7908 191.434 48.6463C190.506 47.0413 189.563 45.445 188.634 43.8423C188.491 43.5964 188.297 43.4475 188.032 43.3698C187.637 43.2534 187.24 43.139 186.828 43.0182Z" fill="white"/>
<path id="Vector_16" d="M65.8412 42.4919C65.8412 43.1477 65.8412 43.784 65.8412 44.4484C64.5232 44.4484 63.2181 44.4484 61.8893 44.4484C61.8893 48.4284 61.8893 52.3803 61.8893 56.356C61.1106 56.356 60.3534 56.356 59.5596 56.356C59.5596 52.4041 59.5596 48.4457 59.5596 44.4549C58.2502 44.4549 56.9731 44.4549 55.6853 44.4549C55.6853 43.7862 55.6853 43.1498 55.6853 42.4919C59.0634 42.4919 62.4416 42.4919 65.8412 42.4919Z" fill="white"/>
<path id="Vector_17" d="M15.5123 56.3603C15.5123 56.2374 15.5123 56.1274 15.5123 56.0152C15.5123 52.4817 15.5123 48.9505 15.5123 45.417C15.5123 45.2941 15.5123 45.1711 15.5123 45.0503C15.5015 44.2931 15.234 43.9372 14.5092 43.7107C14.3215 43.6524 14.0454 43.6546 13.9656 43.5317C13.8664 43.3763 13.9246 43.1175 13.9182 42.9017C13.9138 42.7831 13.9182 42.6623 13.9182 42.5092C15.2168 42.5092 16.4852 42.5092 17.786 42.5092C17.786 46.4611 17.786 50.4216 17.786 54.4189C19.7166 54.4189 21.6149 54.4189 23.524 54.4189C23.524 55.0833 23.524 55.711 23.524 56.3603C20.8685 56.3603 18.2131 56.3603 15.5123 56.3603Z" fill="white"/>
<path id="Vector_18" d="M73.3094 42.4941C73.3094 47.1277 73.3094 51.7397 73.3094 56.3668C72.5846 56.3668 71.8727 56.3668 71.122 56.3668C71.122 56.2525 71.122 56.1425 71.122 56.0325C71.122 52.4343 71.1069 48.8361 71.1307 45.238C71.1393 44.1335 70.7057 43.7539 69.8213 43.5381C69.7479 43.5209 69.6789 43.495 69.5969 43.4713C69.5969 43.1499 69.5969 42.8328 69.5969 42.4941C70.8308 42.4941 72.0604 42.4941 73.3094 42.4941Z" fill="white"/>
</g>
</svg>
