<svg width="308" height="120" viewBox="0 0 308 120" fill="none" xmlns="http://www.w3.org/2000/svg">
<g clip-path="url(#clip0_537_1247)">
<path d="M71.3459 56.9171L69.0071 72.2892C62.2034 77.1793 54.9745 80.6449 42.0475 80.1984C19 79.5181 0.183594 64.3799 0.183594 40.0992C0.183594 15.8186 17.8944 0 41.3884 0C51.4026 0 61.7782 3.23175 69.0071 7.90928V23.7279H66.6684C63.3303 9.80156 53.5287 3.12544 41.3884 3.12544C24.0178 3.12544 13.2169 18.7101 13.2169 40.0992C13.2169 61.4883 24.0178 76.0737 41.3884 77.1793C54.9745 77.966 64.7761 71.056 69.1134 56.9171H71.3459Z" fill="#585451"/>
<path d="M152.097 76.6264V79.0714H127.03V76.6264C131.154 76.2862 133.153 73.5009 131.601 69.5038L125.137 53.9191H93.7341L87.7171 69.9503C86.165 74.1813 87.9509 76.1799 92.182 76.6264V79.0714H75.2578V76.6264C79.4889 76.1799 81.3811 74.1813 82.9332 70.0566L105.322 10.1416C106.661 6.56968 105.874 3.91199 101.984 3.5718V1.10547H115.357L144.315 69.929C146.101 74.0537 147.887 76.2862 152.118 76.6051L152.097 76.6264ZM123.479 49.6668L108.66 13.586L95.2862 49.6668H123.458H123.479Z" fill="#585451"/>
<path d="M226.959 76.6264V79.0714H210.928L190.432 46.6689C189.326 46.6689 188.093 46.7752 186.988 46.7752H175.953V69.9503C175.953 74.2876 177.059 76.3075 181.183 76.6264V79.0714H158.795V76.6264C163.026 76.2862 164.132 74.2876 164.132 69.9503V10.1416C164.132 5.80426 163.026 3.91199 158.795 3.5718V1.10547H186.966C203.338 1.10547 217.711 8.01546 217.711 23.9403C217.711 34.7412 211.141 41.311 201.679 44.5428L218.497 69.929C220.942 73.7135 223.961 75.946 226.959 76.6051V76.6264ZM205.358 23.9403C205.358 12.4591 197.661 5.33651 185.861 5.33651H175.953V42.4166H185.861C197.661 42.4166 205.358 35.4003 205.358 23.9191V23.9403Z" fill="#585451"/>
<path d="M307.158 76.6264V79.0714H282.09V76.6264C286.215 76.2862 288.213 73.5009 286.661 69.5038L280.198 53.9191H248.795L242.778 69.9503C241.226 74.1813 243.011 76.1799 247.243 76.6264V79.0714H230.318V76.6264C234.549 76.1799 236.442 74.1813 237.994 70.0566L260.382 10.1416C261.722 6.56968 260.935 3.91199 257.044 3.5718V1.10547H270.418L299.376 69.929C301.162 74.0537 302.948 76.2862 307.179 76.6051L307.158 76.6264ZM278.539 49.6668L263.72 13.586L250.347 49.6668H278.518H278.539Z" fill="#585451"/>
<path d="M173.444 42.416H150.184V46.7534H173.444V42.416Z" fill="#585451"/>
<path d="M150.184 42.416V51.8561H151.885C151.885 51.8561 152.203 46.5407 155.882 46.2856C159.56 46.0305 156.86 44.5847 156.86 44.5847L150.184 42.416Z" fill="#585451"/>
<path d="M16.5761 98.2494C16.5761 102.459 12.6853 104.458 8.41172 104.458H5.92413V109.943C5.92413 111.07 6.22179 111.602 7.28486 111.687V112.325H1.48047V111.687C2.58607 111.602 2.84121 111.07 2.84121 109.943V94.3798C2.84121 93.2529 2.58607 92.7639 1.48047 92.6789V92.041H8.41172C12.6853 92.041 16.5761 94.0396 16.5761 98.2706V98.2494ZM13.3657 98.2494C13.3657 94.8901 11.3246 93.1253 8.11406 93.1253H5.92413V103.352H8.11406C11.3246 103.352 13.3657 101.587 13.3657 98.2494Z" fill="#585451"/>
<path d="M32.1398 111.644V112.282H26.3779V111.644C27.4835 111.559 27.7599 111.028 27.7599 109.901V94.3376C27.7599 93.2108 27.4623 92.7217 26.3779 92.6367V91.9988L30.29 90.957H30.7578V109.901C30.7578 111.028 31.0555 111.559 32.1398 111.644Z" fill="#585451"/>
<path d="M55.3576 111.539C54.7623 112.283 53.9543 112.581 53.0826 112.581C51.977 112.581 50.6588 112.049 50.6375 110.348C49.9146 111.773 48.3838 112.581 46.6829 112.581C44.4292 112.581 41.9841 111.603 41.8353 109.052C41.6439 106.032 43.9614 104.672 46.853 104.417C48.639 104.268 49.9359 104.161 50.6375 104.098V102.971C50.6375 100.419 50.0422 99.0586 48.0436 98.9098C46.938 98.846 45.7474 99.4626 45.7899 100.845C45.8537 102.418 44.8119 102.843 43.8764 102.503C43.0897 102.184 42.8771 101.291 43.3023 100.398C44.0465 98.7822 46.2151 98.3145 47.9373 98.3145C50.6163 98.3145 53.6142 99.2074 53.6142 103.502V110.348C53.6142 111.39 54.4221 111.56 55.0599 111.071L55.3363 111.56L55.3576 111.539ZM50.6375 107.627V104.757C50.2123 104.82 49.4894 104.863 48.3626 105.012C46.0025 105.309 44.7056 106.755 44.7268 108.584C44.7481 110.582 46.0238 111.539 47.6184 111.475C49.4682 111.412 50.6375 109.966 50.6375 107.627Z" fill="#585451"/>
<path d="M75.3212 109.2C74.7472 111.433 72.7273 112.581 69.9208 112.581C68.1561 112.581 66.1363 112.049 64.8818 111.071V107.903H65.3496C65.9874 110.646 68.0711 111.73 69.9421 111.794C71.3879 111.858 72.5998 111.305 72.8762 110.051C73.3014 108.158 71.4091 107.414 69.5594 106.564C66.7954 105.288 64.8818 103.991 65.6473 101.036C66.1363 99.0584 68.2412 98.293 70.261 98.293C71.728 98.293 73.2376 98.782 74.492 99.76V102.567H74.003C73.3439 99.9514 72.1533 98.9521 70.261 98.9946C69.2404 99.0159 68.1348 99.3986 67.986 100.674C67.7947 102.375 69.6232 103.141 71.5367 104.012C73.7266 105.033 76.1292 106.245 75.3425 109.158L75.3212 109.2Z" fill="#585451"/>
<path d="M94.0746 110.965C93.4367 111.858 92.4375 112.581 90.9917 112.581C88.908 112.581 87.2922 111.475 87.2922 108.52V99.5898H85.166V98.5479C87.5898 98.5479 88.9506 96.8895 89.3971 94.5508H90.29V98.5479H93.2666V99.5898H90.29V108.52C90.29 109.795 90.694 110.582 91.5232 110.837C92.3524 111.135 93.1178 110.858 93.6919 110.433L94.0746 110.965Z" fill="#585451"/>
<path d="M109.617 111.644V112.282H103.876V111.644C104.939 111.559 105.237 111.027 105.237 109.9V101.672C105.237 100.545 104.939 100.014 103.876 99.9287V99.2909L107.788 98.2703H108.256V109.879C108.256 111.006 108.554 111.537 109.617 111.623V111.644ZM104.514 94.3157C104.514 93.0612 105.428 92.3809 106.534 92.3809C107.639 92.3809 108.554 93.0825 108.554 94.3157C108.554 95.5488 107.639 96.2505 106.534 96.2505C105.428 96.2505 104.514 95.5488 104.514 94.3157Z" fill="#585451"/>
<path d="M132.217 109.285C131.239 111.22 129.219 112.581 126.689 112.581C122.862 112.581 119.588 109.774 119.588 105.224C119.588 100.674 122.905 98.293 126.625 98.293C129.049 98.293 130.899 99.1009 131.771 100.547C132.26 101.397 132.196 102.715 131.112 103.098C130.219 103.417 129.071 102.843 129.156 101.248C129.241 99.76 128.178 98.8245 126.562 98.9521C124.393 99.1434 122.373 101.44 122.586 105.203C122.905 111.603 129.326 112.219 131.835 108.945L132.238 109.264L132.217 109.285Z" fill="#585451"/>
<path d="M170.319 108.179C169.447 111.474 166.428 112.58 163.43 112.58C160.815 112.58 158.625 111.857 156.732 110.517V106.435H157.285C158.327 109.773 160.283 111.644 163.026 111.793C165.79 111.942 167.172 110.496 167.491 108.668C167.98 105.84 165.684 104.585 163.026 103.076C160.113 101.417 156.966 99.4614 157.838 95.5705C158.476 92.7428 160.9 91.6797 163.642 91.6797C165.854 91.6797 167.512 92.4664 169.404 93.7421V97.6542H168.851C167.98 94.061 166.321 92.5939 164.004 92.4876C161.75 92.3813 160.602 93.5294 160.453 95.2941C160.219 97.8243 162.494 98.8873 165.131 100.418C168.745 102.544 171.297 104.245 170.319 108.157V108.179Z" fill="#585451"/>
<path d="M196.108 111.645V112.282H191.728V110.624C190.729 111.921 189.283 112.559 187.582 112.559C184.031 112.559 181.863 110.39 181.863 107.073V101.652C181.863 100.525 181.565 99.9932 180.502 99.9082V99.2703L184.393 98.2498H184.882V107.35C184.882 109.986 186.094 111.411 188.347 111.411C190.24 111.411 191.728 109.795 191.728 107.605V101.63C191.728 100.503 191.43 99.972 190.367 99.8869V99.2491L194.258 98.2285H194.747V109.88C194.747 111.007 195.045 111.496 196.108 111.581V111.645Z" fill="#585451"/>
<path d="M216.859 102.204C215.902 102.523 214.861 102.182 214.754 100.758C214.648 99.6948 214.053 99.4822 213.245 99.631C212.097 99.8224 210.885 101.396 210.885 103.479V109.943C210.885 111.07 211.182 111.559 212.245 111.644V112.282H206.505V111.644C207.568 111.559 207.866 111.07 207.866 109.943V101.693C207.866 100.567 207.568 100.035 206.505 99.95V99.3121L210.332 98.2916H210.8V100.758C211.608 99.1633 212.905 98.3341 214.584 98.2916C215.945 98.2703 217.284 98.8656 217.688 100.078C217.922 100.864 217.667 101.906 216.859 102.204Z" fill="#585451"/>
<path d="M240.97 114.111C240.864 117.385 237.909 120 233.252 120C229.191 120 225.173 118.491 225.471 115.514C225.641 114.09 226.895 112.942 228.851 112.261C226.98 111.708 225.96 110.73 226.257 109.306C226.576 107.881 228.362 107.243 229.723 106.967C228.49 106.159 227.682 104.841 227.682 103.119C227.682 100.015 230.297 98.3136 233.252 98.3136C234.379 98.3136 235.464 98.5475 236.399 99.0365C236.463 98.3349 236.697 97.6545 237.037 96.9529C237.696 95.6984 239.397 95.337 239.971 96.3788C240.396 97.2505 239.78 98.3774 238.568 98.2286C237.994 98.1648 237.675 98.2286 237.377 98.4412C237.079 98.6325 236.994 99.0152 236.973 99.4192C238.1 100.227 238.844 101.503 238.844 103.119C238.844 106.223 236.186 107.988 233.252 107.988C232.338 107.988 231.403 107.796 230.595 107.456C229.638 107.605 228.107 107.988 228.065 108.753C227.958 109.88 229.659 110.05 233.508 110.05C238.632 110.05 241.119 111.304 241.013 114.111H240.97ZM233.104 112.75C232.104 112.75 231.147 112.686 230.297 112.58C229.085 113.005 227.937 113.92 227.852 115.599C227.703 118.406 230.871 119.192 233.38 119.192C235.825 119.214 238.249 117.938 238.653 115.578C239.036 113.26 236.973 112.771 233.082 112.771L233.104 112.75ZM230.403 103.097C230.403 105.798 231.615 107.201 233.231 107.201C234.847 107.201 236.08 105.776 236.08 103.097C236.08 100.418 234.868 99.0152 233.231 99.0152C231.594 99.0152 230.403 100.44 230.403 103.097Z" fill="#585451"/>
<path d="M262.402 104.969H252.472C252.472 104.969 252.472 105.139 252.494 105.224C252.813 111.624 259.297 112.241 261.806 108.966L262.21 109.306C261.232 111.22 259.042 112.581 256.576 112.581C252.77 112.581 249.475 109.774 249.475 105.224C249.475 100.674 252.451 98.293 256.278 98.293C260.467 98.293 262.423 101.227 262.359 104.778V104.948L262.402 104.969ZM252.515 103.927H259.638C259.723 101.355 258.66 98.9096 256.257 98.9521C254.237 98.9733 252.706 100.887 252.515 103.927Z" fill="#585451"/>
<path d="M283.025 102.204C282.068 102.523 281.027 102.182 280.92 100.758C280.814 99.6948 280.219 99.4822 279.411 99.631C278.263 99.8224 277.051 101.396 277.051 103.479V109.943C277.051 111.07 277.348 111.559 278.412 111.644V112.282H272.671V111.644C273.734 111.559 274.032 111.07 274.032 109.943V101.693C274.032 100.567 273.734 100.035 272.671 99.95V99.3121L276.498 98.2916H276.966V100.758C277.774 99.1633 279.071 98.3341 280.75 98.2916C282.111 98.2703 283.45 98.8656 283.854 100.078C284.088 100.864 283.833 101.906 283.025 102.204Z" fill="#585451"/>
<path d="M307.816 98.5684V99.2062C306.987 99.3125 306.711 99.6952 306.349 100.567L301.098 113.026C299.099 117.364 298.185 118.384 296.548 118.724C295.655 118.894 294.252 118.809 293.38 118.15C292.742 117.619 292.508 116.556 293.21 115.833C293.869 115.174 294.932 115.386 295.208 116.237C295.378 116.853 295.612 117.704 296.675 117.576C297.505 117.491 298.61 116.853 300.205 113.026L300.311 112.729L295.059 101.056C294.57 99.9291 294.273 99.355 293.21 99.2062V98.5684H298.844V99.2062C297.951 99.27 297.887 100.014 298.227 100.865L301.778 109.242L305.265 100.865C305.584 100.078 305.52 99.2912 304.627 99.2062V98.5684H307.838H307.816Z" fill="#585451"/>
</g>
<defs>
<clipPath id="clip0_537_1247">
<rect width="307.633" height="120" fill="white" transform="translate(0.183594)"/>
</clipPath>
</defs>
</svg>
