<svg width="56" height="56" viewBox="0 0 56 56" fill="none" xmlns="http://www.w3.org/2000/svg">
<g id="Frame 34985">
<path id="&#226;&#128;&#156;" d="M14.92 49.84C12.4267 49.84 10.3867 49.33 8.8 48.31C7.21333 47.29 5.91 45.9867 4.89 44.4C3.75667 42.4733 2.96333 40.49 2.51 38.45C2.17 36.2967 2 34.54 2 33.18C2 27.6267 3.41667 22.5833 6.25 18.05C9.08333 13.5167 13.5033 9.83334 19.51 7L21.04 10.06C17.5267 11.5333 14.4667 13.8567 11.86 17.03C9.36667 20.2033 8.12 23.4333 8.12 26.72C8.12 28.08 8.29 29.27 8.63 30.29C10.4433 28.8167 12.54 28.08 14.92 28.08C17.8667 28.08 20.4167 29.0433 22.57 30.97C24.7233 32.8967 25.8 35.56 25.8 38.96C25.8 42.1333 24.7233 44.74 22.57 46.78C20.4167 48.82 17.8667 49.84 14.92 49.84ZM43.82 49.84C41.3267 49.84 39.2867 49.33 37.7 48.31C36.1133 47.29 34.81 45.9867 33.79 44.4C32.6567 42.4733 31.8633 40.49 31.41 38.45C31.07 36.2967 30.9 34.54 30.9 33.18C30.9 27.6267 32.3167 22.5833 35.15 18.05C37.9833 13.5167 42.4033 9.83334 48.41 7L49.94 10.06C46.4267 11.5333 43.3667 13.8567 40.76 17.03C38.2667 20.2033 37.02 23.4333 37.02 26.72C37.02 28.08 37.19 29.27 37.53 30.29C39.3433 28.8167 41.44 28.08 43.82 28.08C46.7667 28.08 49.3167 29.0433 51.47 30.97C53.6233 32.8967 54.7 35.56 54.7 38.96C54.7 42.1333 53.6233 44.74 51.47 46.78C49.3167 48.82 46.7667 49.84 43.82 49.84Z" fill="#9D9892"/>
</g>
</svg>
