<svg width="980" height="257" viewBox="0 0 980 257" fill="none" xmlns="http://www.w3.org/2000/svg">
<path d="M227.167 181.693L219.701 230.764C197.982 246.374 174.905 257.438 133.639 256.012C60.0665 253.84 0 205.516 0 128.006C0 50.4966 56.5372 0 131.535 0C163.503 0 196.624 10.3165 219.701 25.2483V75.7449H212.235C201.579 31.2889 170.29 9.97715 131.535 9.97715C76.0842 9.97715 41.6054 59.7271 41.6054 128.006C41.6054 196.285 76.0842 242.845 131.535 246.374C174.905 248.886 206.194 226.827 220.04 181.693H227.167Z" fill="#FAFAF9"/>
<path d="M484.943 244.611V252.416H404.922V244.611C418.089 243.525 424.469 234.634 419.514 221.874L398.881 172.124H298.635L279.427 223.299C274.472 236.805 280.174 243.185 293.68 244.611V252.416H239.654V244.611C253.161 243.185 259.201 236.805 264.156 223.638L335.625 32.3758C339.901 20.9733 337.39 12.4893 324.969 11.4034V3.53027H367.66L460.102 223.231C465.803 236.398 471.504 243.525 485.011 244.543L484.943 244.611ZM393.587 158.549L346.281 43.371L303.589 158.549H393.52H393.587Z" fill="#FAFAF9"/>
<path d="M723.919 244.611V252.416H672.744L607.315 148.979C603.786 148.979 599.85 149.319 596.32 149.319H561.095V223.299C561.095 237.145 564.624 243.593 577.791 244.611V252.416H506.322V244.611C519.829 243.525 523.358 237.145 523.358 223.299V32.3758C523.358 18.5299 519.829 12.4893 506.322 11.4034V3.53027H596.252C648.514 3.53027 694.395 25.5886 694.395 76.4245C694.395 110.903 673.422 131.876 643.22 142.192L696.906 223.231C704.711 235.312 714.349 242.439 723.919 244.543V244.611ZM654.961 76.4245C654.961 39.7738 630.392 17.0368 592.723 17.0368H561.095V135.405H592.723C630.392 135.405 654.961 113.007 654.961 76.3566V76.4245Z" fill="#FAFAF9"/>
<path d="M979.933 244.611V252.416H899.912V244.611C913.079 243.525 919.459 234.634 914.505 221.874L893.872 172.124H793.625L774.417 223.299C769.463 236.805 775.164 243.185 788.67 244.611V252.416H734.645V244.611C748.151 243.185 754.192 236.805 759.146 223.638L830.615 32.3758C834.891 20.9733 832.38 12.4893 819.959 11.4034V3.53027H862.651L955.092 223.231C960.793 236.398 966.494 243.525 980.001 244.543L979.933 244.611ZM888.578 158.549L841.271 43.371L798.58 158.549H888.51H888.578Z" fill="#FAFAF9"/>
</svg>
