<svg width="20" height="21" viewBox="0 0 20 21" fill="none" xmlns="http://www.w3.org/2000/svg">
<g clip-path="url(#clip0_297_189)">
<path d="M10 2.28295C12.7132 2.28295 13.0233 2.28295 14.031 2.36047C15.0388 2.43798 15.5039 2.59302 15.8915 2.67054C16.3566 2.82558 16.6667 3.05814 17.0543 3.44574C17.4419 3.83333 17.5969 4.14341 17.8295 4.60853C17.9845 4.99612 18.1395 5.46124 18.1395 6.46899C18.2171 7.55426 18.2171 7.86434 18.2171 10.5C18.2171 13.1357 18.2171 13.5233 18.1395 14.531C18.062 15.5388 17.907 16.0039 17.8295 16.3915C17.6744 16.8566 17.4419 17.1667 17.0543 17.5543C16.6667 17.9419 16.3566 18.0969 15.8915 18.3295C15.5039 18.4845 15.0388 18.6395 14.031 18.6395C12.9457 18.7171 12.6357 18.7171 10 18.7171C7.36434 18.7171 6.97674 18.7171 5.96899 18.6395C4.96124 18.562 4.49612 18.407 4.10853 18.3295C3.64341 18.1744 3.33333 17.9419 2.94574 17.5543C2.55814 17.1667 2.4031 16.8566 2.17054 16.3915C2.0155 16.0039 1.86047 15.5388 1.86047 14.531C1.78295 13.4457 1.78295 13.1357 1.78295 10.5C1.78295 7.86434 1.78295 7.47674 1.86047 6.46899C1.93798 5.46124 2.09302 4.99612 2.17054 4.60853C2.32558 4.14341 2.55814 3.83333 2.94574 3.44574C3.33333 3.05814 3.64341 2.9031 4.10853 2.67054C4.49612 2.5155 4.96124 2.36047 5.96899 2.36047C6.97674 2.28295 7.28682 2.28295 10 2.28295ZM10 0.5C7.28682 0.5 6.89922 0.5 5.89147 0.577519C4.8062 0.655039 4.10853 0.810078 3.48837 1.04264C2.7907 1.27519 2.24806 1.66279 1.70543 2.20543C1.16279 2.74806 0.775194 3.2907 0.542636 3.98837C0.310078 4.60853 0.155039 5.38372 0.0775194 6.39147C0 7.47674 0 7.78682 0 10.5C0 13.2132 0 13.6008 0.0775194 14.6085C0.155039 15.6938 0.310078 16.3915 0.542636 17.0116C0.775194 17.7093 1.16279 18.2519 1.70543 18.7946C2.24806 19.3372 2.7907 19.7248 3.48837 19.9574C4.10853 20.1899 4.88372 20.345 5.89147 20.4225C6.97674 20.5 7.28682 20.5 10 20.5C12.7132 20.5 13.1008 20.5 14.1085 20.4225C15.1938 20.345 15.8915 20.1899 16.5116 19.9574C17.2093 19.7248 17.7519 19.3372 18.2946 18.7946C18.8372 18.2519 19.2248 17.7093 19.4574 17.0116C19.6899 16.3915 19.845 15.6163 19.9225 14.6085C20 13.5233 20 13.2132 20 10.5C20 7.78682 20 7.39922 19.9225 6.39147C19.845 5.3062 19.6899 4.60853 19.4574 3.98837C19.2248 3.2907 18.8372 2.74806 18.2946 2.20543C17.7519 1.66279 17.2093 1.27519 16.5116 1.04264C15.8915 0.810078 15.1163 0.655039 14.1085 0.577519C13.0233 0.5 12.7132 0.5 10 0.5Z" fill="#302C29"/>
<path d="M9.99946 5.38281C7.13125 5.38281 4.80566 7.70839 4.80566 10.4991C4.80566 13.2898 7.13125 15.6154 9.99946 15.6154C12.8677 15.6154 15.1157 13.2898 15.1157 10.4991C15.1157 7.70839 12.7902 5.38281 9.99946 5.38281ZM9.99946 13.8324C8.139 13.8324 6.66613 12.3596 6.66613 10.4991C6.66613 8.63863 8.139 7.16576 9.99946 7.16576C11.8599 7.16576 13.3328 8.63863 13.3328 10.4991C13.3328 12.3596 11.7824 13.8324 9.99946 13.8324Z" fill="#302C29"/>
<path d="M15.3487 6.39273C16.0337 6.39273 16.589 5.83742 16.589 5.15242C16.589 4.46741 16.0337 3.91211 15.3487 3.91211C14.6637 3.91211 14.1084 4.46741 14.1084 5.15242C14.1084 5.83742 14.6637 6.39273 15.3487 6.39273Z" fill="#302C29"/>
</g>
<defs>
<clipPath id="clip0_297_189">
<rect width="20" height="20" fill="white" transform="translate(0 0.5)"/>
</clipPath>
</defs>
</svg>
