<svg width="20" height="17" viewBox="0 0 20 17" fill="none" xmlns="http://www.w3.org/2000/svg">
<path d="M7.91157 6.02673C7.67277 6.68504 7.45979 7.29172 7.2339 7.88549C7.18226 8.02748 7.2468 8.03394 7.35652 8.03394C7.76958 8.03394 8.1891 8.03394 8.64733 8.03394C8.40208 7.35626 8.16973 6.71731 7.91157 6.02673ZM7.91157 6.02673C7.67277 6.68504 7.45979 7.29172 7.2339 7.88549C7.18226 8.02748 7.2468 8.03394 7.35652 8.03394C7.76958 8.03394 8.1891 8.03394 8.64733 8.03394C8.40208 7.35626 8.16973 6.71731 7.91157 6.02673ZM7.2339 7.88549C7.18226 8.02748 7.2468 8.03394 7.35652 8.03394C7.76958 8.03394 8.1891 8.03394 8.64733 8.03394C8.40208 7.35626 8.16973 6.71731 7.91157 6.02673C7.67277 6.68504 7.45979 7.29172 7.2339 7.88549ZM17.0957 9.60227C16.8569 9.77008 16.56 9.7249 16.3341 9.45383C15.9469 8.98914 15.5725 8.51799 15.1853 8.04685C15.1143 7.96294 15.0627 7.77577 14.94 7.84677C14.7916 7.92422 14.6238 8.03394 14.6367 8.25338C14.6496 8.55672 14.6367 8.86651 14.6367 9.16985C14.6367 9.50546 14.456 9.69908 14.1462 9.69263C13.8493 9.69263 13.6879 9.51837 13.6815 9.18276C13.6815 8.04685 13.6815 6.91093 13.6815 5.77502C13.6815 5.41359 13.8364 5.25224 14.1591 5.25224C14.4818 5.25224 14.6302 5.42005 14.6367 5.78147C14.6367 6.18808 14.6367 6.58823 14.6367 7.07228C15.2111 6.53014 15.7274 6.03318 16.2502 5.53622C16.3857 5.40714 16.5277 5.29742 16.7407 5.31678C16.9085 5.32969 17.0441 5.39423 17.1215 5.54267C17.1925 5.69112 17.1667 5.83311 17.0441 5.94928C16.6762 6.2978 16.3212 6.66568 15.9275 6.98838C15.6823 7.19491 15.7016 7.32399 15.9017 7.54343C16.3083 7.99521 16.6891 8.4599 17.0763 8.93105C17.3216 9.22794 17.3216 9.45383 17.1086 9.60227M12.7844 9.64745C12.21 9.64745 11.6356 9.6539 11.0676 9.64745C10.7062 9.64745 10.5448 9.47964 10.5384 9.12467C10.5319 8.56317 10.5384 8.00167 10.5384 7.43371C10.5384 6.86575 10.5384 6.31071 10.5384 5.74275C10.5384 5.38778 10.7384 5.21997 11.087 5.25224C11.358 5.27806 11.4936 5.4265 11.5 5.7492C11.5065 6.40752 11.5 7.07228 11.5 7.7306C11.5 8.03394 11.5065 8.34373 11.5 8.64707C11.5 8.80197 11.5517 8.8536 11.713 8.84715C12.0809 8.84069 12.4423 8.84069 12.8102 8.84715C13.12 8.8536 13.2943 9.0085 13.2878 9.24084C13.2878 9.46674 13.0942 9.62809 12.7973 9.62809M9.7058 9.66681C9.47991 9.71199 9.28629 9.64745 9.18302 9.44092C9.10557 9.29248 9.05394 9.13113 9.00876 8.96978C8.97004 8.82779 8.89904 8.78261 8.74414 8.78261C8.21491 8.78906 7.67923 8.78906 7.14999 8.78261C6.98864 8.78261 6.90474 8.83424 6.85956 8.97623C6.82084 9.11822 6.76921 9.26021 6.71112 9.39574C6.59495 9.6539 6.33678 9.74426 6.06571 9.641C5.82046 9.54419 5.7301 9.34411 5.83982 9.07949C6.29806 7.96294 6.76275 6.83994 7.22744 5.72984C7.35007 5.43295 7.57596 5.23933 7.93739 5.24579C8.29881 5.24579 8.51825 5.43941 8.64088 5.74275C9.09266 6.85285 9.53799 7.9694 9.98332 9.07949C10.0156 9.15049 10.0285 9.22794 10.0414 9.26666C10.035 9.51837 9.89942 9.63454 9.69934 9.67327M5.02661 6.12999C4.90398 6.27843 4.98143 6.58178 4.98143 6.81412C4.98143 7.5757 4.98143 8.33082 4.98143 9.0924C4.98143 9.49901 4.83299 9.68617 4.51674 9.69263C4.18758 9.69263 4.03269 9.50546 4.03269 9.07949C4.03269 8.18238 4.02623 7.28527 4.03269 6.38815C4.03269 6.15581 3.99396 6.04609 3.71644 6.07836C3.50991 6.10418 3.30338 6.08481 3.0904 6.07836C2.75478 6.07191 2.58052 5.92992 2.58698 5.67821C2.58698 5.43295 2.77415 5.28451 3.1033 5.27806C3.57445 5.27806 4.03914 5.27806 4.51029 5.27806C4.98143 5.27806 5.42676 5.27806 5.885 5.27806C6.23352 5.27806 6.41423 5.4265 6.40778 5.69112C6.40778 5.94282 6.23997 6.07191 5.89145 6.07836C5.83982 6.07836 5.78819 6.07836 5.73656 6.07836C5.4913 6.09772 5.15569 5.96864 5.02661 6.12999ZM19.8451 5.96219C19.4385 4.38094 18.4188 3.17404 17.057 2.21884C14.9529 0.779583 12.5843 0.172902 10.0156 0.166448C9.11203 0.140632 8.22782 0.230989 7.34362 0.411702C5.18796 0.850578 3.27756 1.72187 1.75441 3.2773C-0.48515 5.57494 -0.588414 8.6858 1.48979 11.1061C2.28364 12.029 3.26465 12.7389 4.38121 13.2682C4.58128 13.365 4.63937 13.4424 4.56837 13.6683C4.27149 14.6106 4.00687 15.5658 3.72289 16.5081C3.68417 16.6501 3.64544 16.7856 3.78743 16.8824C3.93588 16.9857 4.08432 16.9341 4.21985 16.8437C4.25212 16.8179 4.29085 16.7985 4.32312 16.7792C5.54293 16.0305 6.7692 15.2818 7.98902 14.5267C8.12456 14.4428 8.25364 14.4105 8.42144 14.4234C9.82843 14.5719 11.229 14.5396 12.6166 14.2621C14.7722 13.8297 16.702 12.9777 18.2122 11.4159C19.7096 9.86043 20.3485 8.0533 19.8128 5.96219M7.89866 6.01382C7.65986 6.67213 7.44688 7.27881 7.22099 7.87259C7.16936 8.01457 7.2339 8.02103 7.34362 8.02103C7.75667 8.02103 8.17619 8.02103 8.63443 8.02103C8.38917 7.34335 8.15683 6.7044 7.89866 6.01382ZM7.89866 6.01382C7.65986 6.67213 7.44688 7.27881 7.22099 7.87259C7.16936 8.01457 7.2339 8.02103 7.34362 8.02103C7.75667 8.02103 8.17619 8.02103 8.63443 8.02103C8.38917 7.34335 8.15683 6.7044 7.89866 6.01382Z" fill="#302C29"/>
<path d="M8.64778 8.03184C8.18971 8.03184 7.77681 8.03184 7.35745 8.03184C7.24778 8.03184 7.18326 8.02539 7.23487 7.88346C7.46068 7.28346 7.67358 6.677 7.91229 6.02539C8.1639 6.71571 8.39616 7.35442 8.64778 8.03184Z" fill="#302C29"/>
<path d="M8.64778 8.03184C8.18971 8.03184 7.77681 8.03184 7.35745 8.03184C7.24778 8.03184 7.18326 8.02539 7.23487 7.88346C7.46068 7.28346 7.67358 6.677 7.91229 6.02539C8.1639 6.71571 8.39616 7.35442 8.64778 8.03184Z" fill="#302C29"/>
</svg>
