<svg width="20" height="21" viewBox="0 0 20 21" fill="none" xmlns="http://www.w3.org/2000/svg">
<g clip-path="url(#clip0_297_248)">
<path d="M13.2652 0.5H10.419V14.4231C10.419 16.1154 8.88056 17.5 7.18825 17.5C5.49594 17.5 4.11133 16.1154 4.11133 14.4231C4.11133 12.7308 5.49594 11.3462 7.18825 11.3462H7.57287V8.34615H7.18825C3.88056 8.34615 1.11133 11.0385 1.11133 14.4231C1.11133 17.8077 3.80364 20.5 7.18825 20.5C10.5729 20.5 13.2652 17.8077 13.2652 14.4231V6.19231C14.2652 7.73077 15.9575 8.57692 17.7267 8.57692H18.1883V5.26923C15.5729 5.03846 13.5729 3.03846 13.2652 0.5Z" fill="#302C29"/>
</g>
<defs>
<clipPath id="clip0_297_248">
<rect width="20" height="20" fill="white" transform="translate(0 0.5)"/>
</clipPath>
</defs>
</svg>
