<svg width="21" height="17" viewBox="0 0 21 17" fill="none" xmlns="http://www.w3.org/2000/svg">
<path d="M18.707 4.41022C19.4897 3.82313 20.1942 3.11863 20.7422 2.29671C20.0377 2.60983 19.2158 2.84466 18.3939 2.92294C19.2549 2.41413 19.8811 1.63135 20.1942 0.652879C19.4115 1.12255 18.5113 1.4748 17.6111 1.67049C16.8283 0.848574 15.7715 0.378906 14.5974 0.378906C12.3273 0.378906 10.4878 2.21844 10.4878 4.48849C10.4878 4.80161 10.5269 5.11472 10.6052 5.42783C7.20011 5.23213 4.14728 3.5883 2.11205 1.12255C1.7598 1.70963 1.56411 2.41413 1.56411 3.19691C1.56411 4.60591 2.26861 5.85836 3.40364 6.602C2.73827 6.56286 2.07291 6.4063 1.52497 6.09319V6.13233C1.52497 8.12842 2.93397 9.77225 4.81264 10.1636C4.49953 10.2419 4.10814 10.3202 3.75589 10.3202C3.48191 10.3202 3.24708 10.2811 2.97311 10.2419C3.48191 11.8858 5.00833 13.0599 6.80872 13.0991C5.39972 14.195 3.63847 14.8603 1.72066 14.8603C1.36841 14.8603 1.0553 14.8212 0.742188 14.782C2.54258 15.9562 4.69522 16.6216 7.04356 16.6216C14.5974 16.6216 18.707 10.3985 18.707 4.95816C18.707 4.76247 18.707 4.60591 18.707 4.41022Z" fill="#302C29"/>
</svg>
