<svg width="20" height="21" viewBox="0 0 20 21" fill="none" xmlns="http://www.w3.org/2000/svg">
<path fill-rule="evenodd" clip-rule="evenodd" d="M4.80861 5.38866C4.27147 5.38866 3.84861 5.81723 3.8429 6.3658C3.8429 6.89723 4.28861 7.36008 4.80861 7.36008C5.33432 7.36008 5.7629 6.90866 5.76861 6.3658C5.76861 5.81151 5.35147 5.38294 4.80861 5.38866ZM8.69432 6.38294C8.70004 6.92008 9.15147 7.37151 9.67147 7.36008C10.1858 7.34866 10.6315 6.88008 10.62 6.34866C10.6086 5.8058 10.18 5.38294 9.63718 5.38866C9.10004 5.39437 8.6829 5.83437 8.69432 6.38294ZM14.4029 7.38294C13.18 7.33151 12.0372 7.51437 10.9686 8.0058C9.24861 8.79437 7.98575 10.0115 7.50575 11.9487C7.29432 12.7944 7.36861 13.6344 7.61432 14.4915C6.68861 14.5715 5.82004 14.4229 4.95147 14.2287C4.71718 14.1772 4.42004 14.2229 4.2029 14.3258C3.74575 14.5429 3.3229 14.8458 2.87718 15.0915C2.74575 15.1658 2.56861 15.1601 2.41432 15.1887C2.4029 15.0229 2.3629 14.8515 2.38575 14.6972C2.43718 14.4172 2.51147 14.1315 2.60861 13.8629C2.77432 13.4172 2.66575 13.1258 2.2829 12.8344C1.22575 12.0229 0.465753 10.9658 0.162896 9.64008C-0.368532 7.30866 0.425753 5.43437 2.17432 3.94294C5.21432 1.34866 10.2143 1.62866 12.9515 4.54294C13.6886 5.33151 14.1858 6.25151 14.4029 7.38866" fill="#302C29"/>
<path fill-rule="evenodd" clip-rule="evenodd" d="M16.7692 11.3905C16.7692 10.9277 16.3864 10.5277 15.9406 10.5334C15.5121 10.5334 15.1406 10.9277 15.1349 11.3734C15.1349 11.8362 15.5178 12.242 15.9635 12.2305C16.3921 12.2248 16.7692 11.8362 16.7749 11.3905M12.7806 11.3677C12.7749 10.9334 12.3864 10.5391 11.9635 10.5277C11.5235 10.522 11.1178 10.9334 11.1235 11.3848C11.1292 11.8191 11.5121 12.2191 11.9406 12.2248C12.3749 12.2305 12.7864 11.8134 12.7806 11.3677ZM13.9692 18.1848C12.1578 18.162 10.5521 17.6077 9.26636 16.2591C7.46636 14.3734 7.48922 11.6534 9.28922 9.77339C11.6892 7.27625 16.1406 7.24196 18.5806 9.70482C20.5806 11.722 20.4549 14.8077 18.2606 16.6305C17.8321 16.9848 17.6664 17.2991 17.8835 17.8191C17.9635 18.002 18.0035 18.202 18.0321 18.402C18.0492 18.5048 18.0321 18.6648 17.9692 18.7105C17.9064 18.7563 17.7521 18.7277 17.6606 18.682C17.2778 18.4705 16.9121 18.2134 16.5178 18.0305C16.3178 17.9391 16.0664 17.9162 15.8435 17.9334C15.5064 17.9677 15.1806 18.082 14.8492 18.1277C14.5578 18.1677 14.2549 18.162 13.9578 18.1791" fill="#302C29"/>
</svg>
