<svg width="20" height="21" viewBox="0 0 20 21" fill="none" xmlns="http://www.w3.org/2000/svg">
<g clip-path="url(#clip0_297_209)">
<path d="M9.39742 14.5707C9.07232 14.3756 8.61719 14.4406 8.42213 14.7657L7.77193 15.4809C6.92668 16.3912 6.08143 17.3665 5.36621 18.4068V18.7319C5.36621 18.8619 5.43123 18.992 5.56127 19.122C6.08143 19.7722 8.48715 20.6175 9.3324 20.4874C9.52746 20.4224 9.72252 20.2924 9.85256 20.0973C9.9826 19.9673 9.9826 19.9023 9.9826 16.7163C9.9826 16.2612 9.91758 15.806 9.85256 15.3509C9.91758 15.0258 9.72252 14.7007 9.39742 14.5707Z" fill="#302C29"/>
<path d="M7.77197 13.2691C8.09707 13.2041 8.35715 12.879 8.29213 12.5539C8.29213 12.1638 8.09707 11.8387 7.77197 11.7087L6.79668 11.3185C3.5457 10.0832 3.41566 9.95312 3.22061 9.95312C2.96053 9.95312 2.70045 10.0832 2.57041 10.2782C2.24531 10.7984 2.18029 12.4889 2.24531 13.5292C2.24531 13.8543 2.31033 14.1144 2.44037 14.3745C2.57041 14.6345 2.83049 14.7646 3.09057 14.7646C3.28563 14.7646 3.41566 14.7646 6.34154 13.7243L7.77197 13.2691Z" fill="#302C29"/>
<path d="M12.5184 11.9037L13.5587 11.5786C16.9397 10.7334 17.1348 10.7334 17.2648 10.6033C17.5249 10.4733 17.655 10.2132 17.5899 9.95315C17.4599 9.1079 16.0295 6.89724 15.2492 6.57214C14.9892 6.4421 14.7941 6.4421 14.534 6.57214C14.339 6.70218 14.2089 6.7672 12.4534 9.30296L11.6081 10.4733C11.3481 10.7334 11.3481 11.1885 11.6081 11.4486C11.8032 11.7737 12.1933 11.9688 12.5184 11.9037Z" fill="#302C29"/>
<path d="M9.0719 0.526841C8.09661 0.331782 4.84563 1.24206 4.26046 1.89225C4.0654 2.08731 4.00038 2.34739 4.0654 2.60746C4.19544 2.80252 5.56085 5.14323 6.60116 6.70369L8.29167 9.30447C8.94186 10.2798 9.33198 10.0197 9.52704 10.0197C9.7221 10.0197 10.1772 9.82463 10.1772 8.65428C10.1772 7.48393 9.59206 1.37209 9.59206 1.11202C9.59206 0.786919 9.397 0.59186 9.0719 0.526841Z" fill="#302C29"/>
<path d="M17.4603 15.1552C17.2653 15.0252 17.1352 14.9602 14.2093 13.9849L12.8439 13.5948C12.4538 13.4647 12.0637 13.5948 11.8686 13.9199C11.5435 14.1799 11.4785 14.6351 11.7386 14.9602L12.2588 15.8054C13.9493 18.6663 14.1443 18.8613 14.2744 18.9914C14.4694 19.1864 14.7295 19.2515 14.9896 19.1214C15.7048 18.7963 17.3953 16.7157 17.5904 15.8704C17.7854 15.6104 17.7204 15.3503 17.4603 15.1552Z" fill="#302C29"/>
</g>
<defs>
<clipPath id="clip0_297_209">
<rect width="20" height="20" fill="white" transform="translate(0 0.5)"/>
</clipPath>
</defs>
</svg>
