<svg width="20" height="21" viewBox="0 0 20 21" fill="none" xmlns="http://www.w3.org/2000/svg">
<g clip-path="url(#clip0_297_200)">
<path d="M16.6805 13.8608C16.6805 13.6119 16.5145 13.4459 16.2655 13.4459C16.0995 13.3629 15.9336 13.5289 15.8506 13.6949V14.7737H16.6805V13.8608Z" fill="#302C29"/>
<path d="M16.5145 9.54492H3.48548C1.57676 9.54492 0 11.1217 0 13.0304V16.1009C0 18.0097 1.57676 19.5864 3.48548 19.5864H16.5145C18.4232 19.5864 20 18.0097 20 16.1009V13.0304C20 11.1217 18.5062 9.54492 16.5145 9.54492ZM5.47718 11.7856H4.31535V18.0926H3.07054V11.7856H1.82573V10.8727H5.47718V11.7856ZM8.87967 18.0926H7.80083V17.5947C7.55187 17.9267 7.13693 18.0926 6.72199 18.1756C6.47303 18.1756 6.14108 18.0926 5.9751 17.8437C5.80913 17.5947 5.72614 17.2628 5.80913 16.9308V12.6984H6.97095V16.9308C6.97095 17.1798 7.05394 17.3458 7.3029 17.3458L7.80083 17.0968V12.6984H8.96266L8.87967 18.0926ZM13.361 16.9308C13.444 17.2628 13.361 17.5947 13.195 17.8437C13.029 18.0926 12.6971 18.1756 12.4481 18.1756C12.0332 18.0926 11.6183 17.9267 11.3693 17.5947V18.0926H10.2075V10.8727H11.3693V13.1964C11.7012 12.8644 12.1162 12.6155 12.5311 12.6155C12.7801 12.6155 13.029 12.7814 13.195 12.9474C13.361 13.2794 13.444 13.6113 13.361 13.9433V16.9308ZM16.1826 18.1756C15.4357 18.2586 14.6888 17.6777 14.6058 16.9308V14.1922C14.6058 13.1964 15.1867 12.6984 16.2656 12.6984C17.0124 12.5325 17.6763 13.0304 17.8423 13.7773V15.603H15.7676V16.7648C15.7676 17.1798 15.8506 17.3458 16.1826 17.3458L16.5145 17.1798C16.5975 17.0138 16.5975 16.7648 16.5975 16.5989V16.1839H17.7593V16.6819C17.8423 17.4287 17.2614 18.0926 16.4315 18.1756H16.1826Z" fill="#302C29"/>
<path d="M11.8671 13.5293L11.3691 13.7783V17.0978L11.8671 17.3467C12.116 17.3467 12.199 17.1807 12.199 16.9318V13.9442C12.199 13.6123 12.116 13.5293 11.8671 13.5293Z" fill="#302C29"/>
<path d="M4.8961 8.4668H6.30689V5.1473L7.80066 0.5H6.38987L6.14091 1.24689L5.97494 1.8278L5.89195 2.40871L5.72597 2.98963L5.64299 3.48755H5.56L5.47701 2.98963L5.31104 2.40871L5.22805 1.8278L5.06207 1.24689L4.81311 0.5H3.31934L4.8961 5.1473V8.4668Z" fill="#302C29"/>
<path d="M9.70873 8.54829C10.5386 8.71426 11.2855 8.13335 11.4515 7.30347V4.14994C11.4515 3.15409 10.6216 2.32422 9.70873 2.32422C8.71288 2.32422 7.88301 3.15409 7.88301 4.14994V6.88853C7.80002 7.71841 8.29795 8.4653 9.12782 8.54829C9.37678 8.63127 9.54276 8.63127 9.70873 8.54829ZM9.21081 3.98397C9.12782 3.73501 9.37678 3.48604 9.62575 3.40306H9.70873C9.9577 3.40306 10.2067 3.65202 10.2067 3.90098V7.05451C10.2067 7.33926 10.2067 7.63542 9.9577 7.71841C9.70873 7.8014 9.37678 7.71841 9.2938 7.46945C9.21081 7.30347 9.20215 7.1658 9.20215 7.05451V3.98397H9.21081Z" fill="#302C29"/>
<path d="M13.7754 8.54932C14.2734 8.54932 14.6883 8.30036 15.0203 7.96841V8.46633H16.1821V2.57422H14.8543V7.3875L14.2734 7.63646C14.0244 7.63646 13.9414 7.47048 13.9414 7.22152V2.57422H12.6136V7.22152C12.5306 7.55347 12.6136 7.88542 12.7796 8.21737C13.1115 8.46633 13.4435 8.63231 13.7754 8.54932Z" fill="#302C29"/>
</g>
<defs>
<clipPath id="clip0_297_200">
<rect width="20" height="20" fill="white" transform="translate(0 0.5)"/>
</clipPath>
</defs>
</svg>

